<svg width="28" height="27" viewBox="0 0 28 27" fill="none" xmlns="http://www.w3.org/2000/svg">
<rect x="7.62939e-05" width="28" height="27" rx="13.42" fill="white"/>
<path d="M19.3099 13.2707C19.3099 13.1666 19.1998 13.0626 19.1998 13.0626L15.1262 9.21145C14.7959 8.8992 14.3555 8.8992 14.1353 9.21145C13.9151 9.52371 13.805 9.94004 14.1353 10.1482L16.8878 12.7503H8.52031C8.07991 12.8544 7.74962 13.0626 7.74962 13.4789C7.74962 13.8952 8.07991 14.2075 8.52031 14.2075H16.9979L14.1353 16.8096C13.805 17.1218 13.805 17.5382 14.1353 17.7463C14.2454 17.8504 14.4656 17.9545 14.6858 17.9545C14.906 17.9545 15.0161 17.8504 15.2363 17.7463L19.3099 13.8952C19.42 13.7912 19.42 13.7912 19.42 13.6871C19.42 13.583 19.42 13.3748 19.3099 13.2707Z" fill="#D89036"/>
</svg>
