<svg width="24" height="19" viewBox="0 0 24 19" fill="none" xmlns="http://www.w3.org/2000/svg">
<path d="M22.6172 15.326C22.2409 14.3812 21.9184 13.4365 21.542 12.4917C21.2195 11.7044 20.4668 11.232 19.6067 11.232H19.2841C18.9078 11.232 18.5315 11.232 18.1551 11.232H18.1014C17.8326 11.232 17.7251 11.0746 17.6175 10.8646C17.1337 9.49998 16.5961 8.13532 16.166 7.03311C15.7897 6.14083 15.0908 5.61597 14.0694 5.61597C12.6716 5.61597 11.2739 5.61597 9.82234 5.61597C8.85466 5.61597 8.10202 6.08835 7.77946 6.98062C7.29561 8.29278 6.75801 9.60495 6.27417 10.9171C6.22041 11.1271 6.05913 11.1795 5.84409 11.1795C5.36025 11.1795 4.87641 11.1795 4.44633 11.1795H4.33881C3.47865 11.1795 2.72601 11.7044 2.40345 12.4917C2.34969 12.6492 2.29593 12.8066 2.24217 12.9116L1.54329 14.7486L0.629364 17.2155V17.6354C0.790644 17.8978 1.00568 18.0553 1.38201 18.0553C7.18809 18.0553 12.9942 18.0553 18.854 18.0553H22.671C22.7248 18.0553 22.7785 18.0553 22.8323 18.0553C23.1011 18.0553 23.2624 17.8978 23.3161 17.6879C23.3699 17.5304 23.3699 17.373 23.3161 17.1105C23.0473 16.4807 22.8323 15.9033 22.6172 15.326ZM7.61817 10.8646L7.67194 10.6547C8.10202 9.55246 8.47834 8.50273 8.90842 7.40051C9.0697 6.98062 9.3385 6.77067 9.82234 6.77067C11.2201 6.77067 12.6716 6.77067 14.0694 6.77067C14.5532 6.77067 14.822 6.92813 14.9833 7.34803C15.1983 7.87289 15.3596 8.39776 15.5747 8.92262C15.8435 9.55246 16.0585 10.2348 16.3273 10.8646C16.3811 10.9696 16.3811 11.0221 16.3273 11.1271C16.2735 11.1795 16.166 11.232 16.1123 11.232C15.0908 11.232 14.0694 11.232 12.9942 11.232H11.9727H7.83321C7.67193 11.232 7.61817 11.232 7.56441 11.1795C7.51065 11.1271 7.56441 11.0221 7.61817 10.8646ZM11.0051 16.7431C10.9513 16.7956 10.8438 16.7956 10.6825 16.7956H7.94074H2.56473C2.40345 16.7956 2.29593 16.7956 2.24217 16.7431C2.18841 16.6906 2.24217 16.5857 2.29593 16.4282C2.72601 15.326 3.15609 14.2238 3.58617 13.1216C3.80121 12.6492 4.01625 12.4917 4.55385 12.4917C5.95161 12.4917 7.34937 12.4917 8.74714 12.4917C9.28474 12.4917 9.49978 12.6492 9.71482 13.1216C10.1449 14.2238 10.575 15.326 11.0051 16.4807C11.0051 16.5332 11.0588 16.6382 11.0051 16.7431ZM12.134 15.3785C12.134 15.3785 12.134 15.431 12.0803 15.431L12.0265 15.5359L11.9727 15.4834C11.8652 15.431 11.8652 15.3785 11.8652 15.326C11.8652 15.326 11.8652 15.326 11.8652 15.2735L11.5427 14.4337C11.3276 13.8564 11.1126 13.3315 10.8975 12.7541C10.8438 12.6492 10.8438 12.5967 10.8975 12.4917C10.9513 12.4392 11.0588 12.3867 11.1663 12.4392C11.7577 12.4392 12.4028 12.4392 12.9942 12.4392C13.1017 12.4392 13.1555 12.4392 13.2092 12.4917C13.263 12.5442 13.2092 12.6492 13.2092 12.7017C12.9942 13.279 12.7254 13.9089 12.5103 14.4862L12.134 15.3785ZM21.7571 16.7431C21.7033 16.7956 21.5958 16.7956 21.4345 16.7956C20.7356 16.7956 20.0368 16.7956 19.3916 16.7956C19.0691 16.7956 18.6928 16.7956 18.3702 16.7956H13.3167C13.1555 16.7956 13.0479 16.7956 12.9942 16.7431C12.9404 16.6906 12.9942 16.5857 13.0479 16.4282L14.3382 13.0691C14.4995 12.5967 14.7683 12.4392 15.2521 12.4392C16.6499 12.4392 18.1014 12.4392 19.4992 12.4392C20.0368 12.4392 20.2518 12.5967 20.4131 13.0691L21.7033 16.4282C21.7571 16.5857 21.8108 16.6382 21.7571 16.7431Z" fill="#236561"/>
<path d="M6.16668 4.51377C6.43548 4.72372 6.75804 4.72372 7.02684 4.51377C7.29564 4.25134 7.29564 3.93642 7.02684 3.67399C6.8118 3.41156 6.543 3.20161 6.2742 2.93918C6.16668 2.8342 6.05916 2.72923 5.95164 2.62426C5.84412 2.51928 5.7366 2.4668 5.57532 2.4668C5.30652 2.4668 5.09148 2.62426 4.98396 2.8342C4.87644 3.04415 4.87643 3.2541 5.09148 3.46404C5.4678 3.83145 5.84412 4.19886 6.16668 4.51377Z" fill="#236561"/>
<path d="M17.3487 4.72372C17.51 4.72372 17.6175 4.67123 17.725 4.56626L17.8863 4.4088C18.2089 4.09388 18.5852 3.77896 18.9078 3.41156C19.1228 3.20161 19.069 2.8342 18.854 2.62426C18.7465 2.51928 18.5852 2.4668 18.4239 2.4668C18.2626 2.4668 18.1551 2.51928 18.0476 2.62426C17.6713 2.99166 17.2412 3.35907 16.8649 3.77896C16.7036 3.93642 16.7574 4.19886 16.8111 4.35632C16.9186 4.56626 17.0799 4.67123 17.3487 4.72372Z" fill="#236561"/>
<path d="M11.9726 2.62433C12.2952 2.62433 12.564 2.3619 12.564 2.04698C12.564 1.88952 12.564 1.73206 12.564 1.52211V1.31217C12.564 1.25968 12.564 1.15471 12.564 1.10222C12.564 0.944759 12.564 0.787299 12.564 0.577353C12.564 0.262433 12.2952 0 11.9726 0C11.6501 0 11.3813 0.262433 11.3813 0.577353C11.3813 1.04973 11.3813 1.5746 11.3813 2.04698C11.3813 2.3619 11.6501 2.57184 11.9726 2.62433Z" fill="#236561"/>
</svg>
