<svg width="23" height="23" viewBox="0 0 23 23" fill="none" xmlns="http://www.w3.org/2000/svg">
<path d="M22.6913 9.33884C22.5369 9.18448 22.3054 9.1073 21.9966 9.1073C20.5302 9.1073 19.0638 9.1073 17.5973 9.1073C17.2886 9.1073 17.0571 9.18448 16.9027 9.33884C16.7483 9.49321 16.594 9.80193 16.594 10.1107C16.594 13.8154 16.594 17.6744 16.594 21.9194C16.594 22.4596 16.7483 22.7684 17.2114 22.9999H22.3826C22.7685 22.8456 23 22.5368 23 21.9966C23 17.3657 23 13.661 23 10.1107C23 9.80193 22.9228 9.57039 22.6913 9.33884ZM21.302 20.916C21.302 21.3019 21.302 21.3019 20.9161 21.3019H20.2987C19.7584 21.3019 19.2181 21.3019 18.755 21.3019C18.6779 21.3019 18.6007 21.3019 18.5235 21.2248C18.4463 21.1476 18.4463 21.0704 18.4463 20.9932C18.4463 17.8288 18.4463 14.6643 18.4463 11.1912C18.4463 11.114 18.4463 11.0368 18.5235 10.9596C18.5235 10.8053 18.6007 10.8053 18.6779 10.8053C19.5269 10.8053 20.2215 10.8053 20.9161 10.8053C20.9933 10.8053 21.1477 10.8053 21.2248 10.8825C21.302 10.9596 21.302 11.0368 21.302 11.1912C21.302 12.4261 21.302 13.661 21.302 14.9731V20.916Z" fill="#3F7874"/>
<path d="M14.6644 13.5067C14.6644 13.4295 14.6644 13.4295 14.6644 13.3523C14.5873 12.8892 14.2785 12.5033 13.8154 12.5033C12.7349 12.5033 11.6544 12.5033 10.5738 12.5033H9.10739C8.95302 12.5033 8.87584 12.5033 8.72148 12.5805C8.41276 12.7348 8.25839 13.0436 8.25839 13.5067V14.0469C8.25839 16.6711 8.25839 19.3724 8.25839 21.9966C8.25839 22.4597 8.48994 22.7684 8.87584 22.9999H13.9698C14.4329 22.8456 14.5873 22.5369 14.5873 21.9966C14.5873 19.9127 14.5873 17.8288 14.5873 15.7449L14.6644 13.5067ZM12.8893 21.2248C12.8121 21.302 12.7349 21.302 12.6577 21.302C11.9631 21.302 11.1913 21.302 10.4195 21.302C10.2651 21.302 10.1879 21.302 10.1879 21.2248C10.0336 21.1476 10.0336 21.0704 10.0336 20.9932C10.0336 18.8322 10.0336 16.6711 10.0336 14.5872C10.0336 14.51 10.0336 14.3556 10.1107 14.3556C10.1879 14.2785 10.2651 14.2785 10.3423 14.2785C11.1141 14.2785 11.8859 14.2785 12.6577 14.2785C12.8121 14.2785 12.8893 14.2785 12.8893 14.3556C12.9664 14.4328 12.9664 14.51 12.9664 14.5872C12.9664 15.359 12.9664 16.1308 12.9664 16.9798V17.8288V18.6778C12.9664 19.4496 12.9664 20.2214 12.9664 20.9932C12.9664 21.0704 12.9664 21.1476 12.8893 21.2248Z" fill="#3F7874"/>
<path d="M6.32886 18.4462C6.32886 17.906 6.32886 17.4429 6.32886 16.9026C6.32886 16.2852 6.02013 15.9764 5.40268 15.9764C4.9396 15.9764 4.47651 15.9764 4.0906 15.9764C3.08725 15.9764 2.08389 15.9764 1.00336 15.9764C0.540268 15.9764 0.231544 16.1308 0 16.5939V17.7516C0 19.4496 0 21.2248 0 22.9227C0 22.9999 0 22.9999 0 22.9999C0 22.9999 0 22.9999 0.0771812 22.9999C1.62081 22.9999 3.16443 22.9999 4.70805 22.9999H5.71141C6.09732 22.8456 6.32886 22.4597 6.32886 21.9194C6.32886 20.7617 6.32886 19.604 6.32886 18.4462ZM4.63087 21.0704C4.63087 21.1476 4.63087 21.2248 4.55369 21.3019C4.47651 21.3791 4.39933 21.3791 4.32215 21.3791C3.47315 21.3791 2.70134 21.3791 1.92953 21.3791C1.85235 21.3791 1.77517 21.3791 1.69799 21.3019C1.62081 21.2248 1.62081 21.1476 1.62081 21.0704C1.62081 20.6845 1.62081 20.2986 1.62081 19.9127V19.5268V19.1409C1.62081 18.755 1.62081 18.3691 1.62081 17.9832C1.62081 17.906 1.62081 17.8288 1.69799 17.7516C1.77517 17.6744 1.85235 17.6744 1.92953 17.6744C2.70134 17.6744 3.47315 17.6744 4.32215 17.6744C4.39933 17.6744 4.47651 17.6744 4.55369 17.7516C4.63087 17.8288 4.63087 17.906 4.63087 17.9832C4.63087 18.9865 4.63087 19.9899 4.63087 21.0704Z" fill="#3F7874"/>
<path d="M3.16442 10.4194C3.39597 10.4194 3.62751 10.3422 3.85905 10.1107C5.17113 8.79863 6.79194 7.17782 8.25838 5.71138C8.33556 5.6342 8.41274 5.55701 8.48993 5.55701C8.56711 5.55701 8.64429 5.6342 8.72147 5.71138C9.49328 6.48319 10.2651 7.255 11.0369 8.02681L11.8087 8.79862C11.8859 8.87581 12.0403 9.03017 12.1946 9.03017C12.5805 9.18453 12.8893 9.10735 13.198 8.79862C15.0503 6.94628 16.9027 5.09393 18.6778 3.31876C18.6778 3.31876 18.6778 3.31876 18.6778 3.24158C18.6778 3.1644 18.755 3.08722 18.8322 3.08722H18.9094V3.1644C18.9866 3.24158 18.9866 3.31876 18.9094 3.39594C18.9094 3.39594 18.9094 3.39594 18.9094 3.47312C18.9094 3.70467 18.9094 3.93621 18.9094 4.16775C18.9094 4.55366 18.9094 5.01675 18.9094 5.40265C18.9094 5.86574 19.2953 6.25165 19.7584 6.25165C20.2215 6.25165 20.6074 5.86574 20.6074 5.40265C20.6074 3.85903 20.6074 2.3154 20.6074 0.926142C20.6074 0.463055 20.2215 0.0771484 19.7584 0.0771484C18.2919 0.0771484 16.7483 0.0771484 15.2819 0.0771484C14.7416 0.0771484 14.4329 0.463055 14.4329 0.926142C14.4329 1.38923 14.8188 1.77514 15.2819 1.77514C15.6678 1.77514 15.9765 1.77514 16.3624 1.77514C16.6711 1.77514 16.9799 1.77514 17.2886 1.77514C17.2886 1.77514 17.2886 1.77514 17.3658 1.77514C17.4429 1.77514 17.5201 1.77514 17.5973 1.85232V1.9295C17.5973 2.00668 17.5201 2.08386 17.5201 2.08386L16.0537 3.5503C14.896 4.70802 13.8154 5.78856 12.6577 6.94628C12.5805 6.94628 12.5033 6.94628 12.4262 6.94628C12.349 6.94628 12.2718 6.8691 12.1946 6.79191C11.3456 5.94292 10.5738 5.09393 9.72483 4.32212L9.18456 3.78185C8.95301 3.5503 8.72147 3.39594 8.48993 3.39594C8.25838 3.39594 8.02684 3.5503 7.7953 3.78185L2.70134 8.87581C2.62415 8.95299 2.62415 8.95299 2.54697 9.03017C2.23825 9.33889 2.23825 9.87916 2.54697 10.1879C2.70134 10.3422 2.93288 10.4194 3.16442 10.4194Z" fill="#D89036"/>
</svg>
