<svg width="25" height="24" viewBox="0 0 25 24" fill="none" xmlns="http://www.w3.org/2000/svg">
<path d="M12.2609 24C12.087 24 11.913 24 11.7391 24C9.91304 23.2552 8 22.5104 6.17391 21.8483C4.34783 21.1035 2.43478 20.3587 0.608696 19.6966C0.173913 19.5311 0 19.2828 0 18.869C0 18.7863 0 18.6207 0 18.538C0 14.6483 0 10.6759 0 6.78625C0 6.2897 0 5.79315 0 5.2966C0 4.80004 0.173913 4.55177 0.695652 4.38625C4.34783 2.97935 7.91304 1.57246 11.5652 0.165561C11.8261 4.41149e-05 12.1739 4.41149e-05 12.5217 0.0828027C16.087 1.4897 19.7391 2.8966 23.3913 4.30349C23.8261 4.46901 24.087 4.80004 24.087 5.21384C24.087 9.6828 24.087 14.2345 24.087 18.7035C24.087 19.2 23.913 19.4483 23.3913 19.6138C22 20.1104 20.6957 20.6897 19.3043 21.1863C16.9565 22.1794 14.6087 23.0897 12.2609 24ZM22.3478 12.4138C22.3478 10.5104 22.3478 8.60694 22.3478 6.70349C22.3478 6.37246 22.3478 6.37246 22 6.53798C19.0435 7.6966 16.087 8.85522 13.0435 10.0138C12.7826 10.0966 12.7826 10.1794 12.7826 10.4276C12.7826 14.2345 12.7826 18.0414 12.7826 21.8483C12.7826 22.1794 12.7826 22.1794 13.1304 22.0966C16.087 20.938 19.1304 19.7794 22.087 18.6207C22.3478 18.538 22.3478 18.4552 22.3478 18.2069C22.3478 16.2207 22.3478 14.3173 22.3478 12.4138ZM11.2174 16.0552C11.2174 14.1518 11.2174 12.2483 11.2174 10.4276C11.2174 10.1794 11.1304 10.0138 10.8696 9.93108C9.65217 9.51729 8.52174 9.02073 7.3913 8.52418C6.86957 8.27591 6.86957 8.27591 6.86957 8.85522C6.86957 9.76556 6.86957 10.6759 6.86957 11.5035C6.86957 11.9173 6.52174 12.2483 6.08696 12.2483C5.65217 12.2483 5.30435 12 5.21739 11.5863C5.21739 11.5035 5.21739 11.338 5.21739 11.2552C5.21739 10.0966 5.21739 9.02073 5.21739 7.86211C5.21739 7.61384 5.13043 7.53108 4.95652 7.44832C3.91304 7.20004 2.95652 6.86901 1.91304 6.45522C1.65217 6.37246 1.65217 6.37246 1.65217 6.62073C1.65217 10.4276 1.65217 14.2345 1.65217 18.0414C1.65217 18.2897 1.73913 18.3725 1.91304 18.4552C4.86957 19.6138 7.82609 20.7725 10.8696 21.9311C11.2174 22.0966 11.2174 22.0138 11.2174 21.6828C11.2174 19.8621 11.2174 17.9587 11.2174 16.0552ZM8 7.11729C8.08696 7.20005 8.17391 7.20004 8.17391 7.20004C9.30435 7.61384 10.4348 8.11039 11.6522 8.52418C11.8261 8.60694 12.087 8.60694 12.2609 8.52418C15.0435 7.44832 17.913 6.2897 20.7826 5.21384C20.8696 5.21384 20.9565 5.21384 20.9565 5.13108C20.9565 5.04832 20.8696 5.04832 20.7826 5.04832C19.5652 4.55177 18.3478 4.05522 17.1304 3.55867C16.8696 3.47591 16.6957 3.47591 16.4348 3.55867C13.7391 4.71729 10.9565 5.79315 8.26087 6.95177C8.17391 7.03453 8.08696 7.03453 8 7.11729ZM14.6087 2.64832C13.7391 2.31729 12.9565 1.98625 12.087 1.65522C12 1.57246 11.8261 1.65522 11.7391 1.73798C8.86957 2.8966 6 3.97246 3.13043 5.13108C3.04348 5.13108 2.95652 5.13108 2.95652 5.2966C3.04348 5.2966 3.13043 5.37935 3.21739 5.37935C4 5.71039 4.78261 5.95866 5.47826 6.2897C5.65217 6.37246 5.91304 6.37246 6.08696 6.2897C8.78261 5.13108 11.4783 4.05522 14.1739 2.8966C14.3478 2.73108 14.5217 2.73108 14.6087 2.64832Z" fill="#3F7874"/>
<path d="M15.8261 11.0896V18.7034C17.1304 18.2069 18.3478 17.7103 19.6522 17.2138V9.59998C18.4348 10.0965 17.1304 10.5931 15.8261 11.0896Z" fill="#D89036"/>
</svg>
