<svg width="22" height="22" viewBox="0 0 22 22" fill="none" xmlns="http://www.w3.org/2000/svg">
<g clip-path="url(#clip0_1_692)">
<path d="M11 22C8.30464 22 5.68212 22 2.98675 22C1.89404 22 1.01987 21.5629 0.437086 20.6159C0.145695 20.1788 0 19.6689 0 19.1589C0 15.9536 0 12.7483 0 9.54305C0 8.30464 0.728477 7.28477 1.82119 6.84768C1.96689 6.77483 2.03974 6.70199 2.03974 6.55629C2.03974 6.04636 2.03974 5.53642 2.03974 5.02649C2.03974 3.86093 2.84106 3.13245 3.93377 3.13245C5.24503 3.13245 6.55629 3.13245 7.7947 3.13245C8.08609 3.13245 8.08609 3.13245 8.08609 2.84106C8.08609 2.47682 8.08609 2.11258 8.08609 1.74834C8.30464 0.655629 9.03311 0 10.053 0C12.7483 0 15.4437 0 18.1391 0C19.2318 0 19.9603 0.801324 19.9603 1.89404C19.9603 4.5894 19.9603 7.28477 19.9603 9.98013C19.9603 10.1987 20.0331 10.3444 20.2517 10.4172C21.4172 10.9272 22 11.8013 22 13.0397C22 15.0795 22 17.0464 22 19.0861C22 20.6887 20.7616 21.9272 19.0861 21.9272C16.3907 22 13.6954 22 11 22ZM11 20.3974C13.6954 20.3974 16.3907 20.3974 19.0861 20.3974C19.8874 20.3974 20.3974 19.8874 20.3974 19.0861C20.3974 17.1192 20.3974 15.1523 20.3974 13.1854C20.3974 13.0397 20.3974 12.9669 20.3974 12.8212C20.2517 12.1656 19.7417 11.8013 19.0861 11.8013C17.4834 11.8013 15.8079 11.8013 14.2053 11.8013C13.1854 11.8013 12.3841 11.3642 11.8013 10.5629C11.3642 9.98013 11 9.39735 10.5629 8.81457C10.2715 8.45033 9.98013 8.23179 9.54305 8.23179C7.28477 8.23179 5.09934 8.23179 2.84106 8.23179C2.69536 8.23179 2.47682 8.30464 2.33113 8.37748C1.82119 8.59603 1.60265 9.03311 1.60265 9.54305C1.60265 12.6755 1.60265 15.8808 1.60265 19.0132C1.60265 19.8874 2.11258 20.3974 2.98675 20.3974C5.68212 20.3974 8.30464 20.3974 11 20.3974ZM18.3576 5.97351C18.3576 4.66225 18.3576 3.42384 18.3576 2.11258C18.3576 1.60265 18.3576 1.60265 17.8477 1.60265C15.5894 1.60265 13.2583 1.60265 11 1.60265C10.7086 1.60265 10.3444 1.60265 10.053 1.60265C9.83444 1.60265 9.76159 1.6755 9.76159 1.89404C9.76159 2.18543 9.76159 2.47682 9.76159 2.76821C9.76159 2.98675 9.83444 3.0596 10.053 3.0596C10.8543 3.0596 11.6556 3.0596 12.457 3.0596C14.0596 3.0596 14.8609 4.37086 14.8609 5.46358C14.7881 6.99338 14.8609 8.45033 14.8609 9.98013C14.8609 10.1987 14.9338 10.2715 15.1523 10.2715C16.1722 10.2715 17.1192 10.2715 18.1391 10.2715C18.3576 10.2715 18.4305 10.1987 18.4305 9.98013C18.3576 8.59603 18.3576 7.28477 18.3576 5.97351ZM13.2583 9.83444C13.2583 9.76159 13.2583 9.68874 13.2583 9.68874C13.2583 8.30464 13.2583 6.92053 13.2583 5.53642C13.2583 5.02649 12.9669 4.66225 12.5298 4.66225C9.68874 4.66225 6.84768 4.66225 3.93377 4.66225C3.71523 4.66225 3.64238 4.7351 3.64238 5.02649C3.64238 5.46358 3.64238 5.90066 3.64238 6.33775C3.64238 6.70199 3.64238 6.70199 3.93377 6.70199C5.75497 6.70199 7.57616 6.70199 9.39735 6.70199C10.4172 6.70199 11.1457 7.13907 11.7285 7.9404C12.1656 8.52318 12.5298 9.10596 12.9669 9.68874C13.0397 9.68874 13.1126 9.76159 13.2583 9.83444Z" fill="#3F7874"/>
<path d="M6.41059 15.3708C5.90066 15.3708 5.46357 15.3708 4.95364 15.3708C4.44371 15.3708 4.07947 15.0794 4.07947 14.5695C4.07947 14.1324 4.37086 13.7682 4.88079 13.7682C5.90066 13.7682 6.84768 13.7682 7.86755 13.7682C8.37748 13.7682 8.74172 14.1324 8.66887 14.5695C8.66887 15.0066 8.30463 15.3708 7.7947 15.3708C7.35761 15.3708 6.92053 15.3708 6.41059 15.3708Z" fill="#D89036"/>
<path d="M6.41059 17.9205C5.90066 17.9205 5.39073 17.9205 4.88079 17.9205C4.37086 17.9205 4.07947 17.6291 4.07947 17.1192C4.07947 16.6821 4.37086 16.3179 4.88079 16.3179C5.90066 16.3179 6.92053 16.3179 7.86755 16.3179C8.30463 16.3179 8.66887 16.6821 8.66887 17.1192C8.66887 17.5563 8.30463 17.9205 7.86755 17.9205C7.43046 17.9205 6.92053 17.9205 6.41059 17.9205Z" fill="#D89036"/>
</g>
<defs>
<clipPath id="clip0_1_692">
<rect width="22" height="22" fill="white"/>
</clipPath>
</defs>
</svg>
