<svg width="24" height="23" viewBox="0 0 24 23" fill="none" xmlns="http://www.w3.org/2000/svg">
<path d="M1.25175 23.0001C0.875928 22.8497 0.725601 22.5491 0.725601 22.1733C0.725601 20.8955 0.725601 19.6929 0.725601 18.4151C0.725601 17.8138 0.951092 17.5131 1.62756 17.5131C3.28116 17.5131 5.00993 17.5131 6.66353 17.5131C6.96418 17.5131 6.96418 17.5131 6.96418 17.2125C6.96418 16.3105 6.96418 15.4837 6.96418 14.5817C6.96418 13.9804 7.18967 13.7549 7.79098 13.7549C9.44458 13.7549 11.1733 13.7549 12.8269 13.7549C13.0524 13.7549 13.1276 13.6798 13.1276 13.4543C13.1276 12.1013 13.1276 10.6732 13.1276 9.32028C13.1276 8.71898 13.3531 8.49349 13.9544 8.49349C14.6309 8.49349 15.3073 8.49349 15.9086 8.49349C16.1341 8.49349 16.2093 8.41832 16.2093 8.19283C16.2093 5.7876 16.2093 3.38236 16.2093 0.901963C16.2093 0.8268 16.2093 0.751636 16.2093 0.676472C16.2093 0.300654 16.51 0 16.8106 0C17.1864 0 17.4871 0.225491 17.5622 0.601309C17.5622 0.751636 17.4871 0.901963 17.6374 0.977127C17.7877 1.05229 17.9381 0.977127 18.0884 0.977127C19.5917 0.977127 21.0949 0.977127 22.6734 0.977127C22.974 0.977127 23.2747 1.05229 23.3498 1.35294C23.5002 1.6536 23.425 1.95425 23.1995 2.17974C22.8237 2.55556 22.4479 3.00654 22.0721 3.38236C21.9217 3.53269 21.9217 3.60785 22.0721 3.83334C22.4479 4.134 22.7485 4.50982 23.1244 4.88563C23.3498 5.11112 23.5002 5.41178 23.3498 5.71243C23.1995 6.01309 22.974 6.16341 22.5982 6.16341C21.0198 6.16341 19.4413 6.16341 17.8629 6.16341C17.4871 6.16341 17.4871 6.16341 17.4871 6.53923C17.4871 7.14054 17.4871 7.74185 17.4871 8.26799C17.4871 8.41832 17.5622 8.49349 17.7126 8.49349C18.389 8.49349 19.1407 8.49349 19.8172 8.49349C20.4185 8.49349 20.644 8.71898 20.644 9.32028C20.644 13.6046 20.644 17.8138 20.644 22.0981C20.644 22.4739 20.4936 22.7746 20.193 22.9249C13.9544 23.0001 7.56549 23.0001 1.25175 23.0001ZM19.3662 15.8595C19.3662 13.9804 19.3662 12.1765 19.3662 10.2974C19.3662 10.0719 19.291 9.99676 19.0655 10.0719C17.6374 10.0719 16.2093 10.0719 14.706 10.0719C14.4054 10.0719 14.4054 10.0719 14.4054 10.3726C14.4054 14.0556 14.4054 17.7386 14.4054 21.4216C14.4054 21.7223 14.4054 21.7223 14.706 21.7223C16.1341 21.7223 17.5622 21.7223 18.9904 21.7223C19.291 21.7223 19.291 21.7223 19.291 21.4216C19.3662 19.5425 19.3662 17.6634 19.3662 15.8595ZM13.1276 18.4902C13.1276 17.5131 13.1276 16.536 13.1276 15.5589C13.1276 15.3334 13.0524 15.3334 12.9021 15.3334C11.474 15.3334 10.0459 15.3334 8.61778 15.3334C8.39229 15.3334 8.39229 15.4085 8.39229 15.5589C8.39229 17.5131 8.39229 19.4674 8.39229 21.4968C8.39229 21.7223 8.46745 21.7223 8.61778 21.7223C10.0459 21.7223 11.474 21.7223 12.9021 21.7223C13.1276 21.7223 13.1276 21.6471 13.1276 21.4216C13.1276 20.4445 13.1276 19.4674 13.1276 18.4902ZM4.55894 21.6471C5.31058 21.6471 5.98705 21.6471 6.73869 21.6471C6.88902 21.6471 6.96418 21.572 6.96418 21.4216C6.96418 20.67 6.96418 19.9184 6.96418 19.2419C6.96418 19.0916 6.88902 19.0164 6.73869 19.0164C5.31058 19.0164 3.88247 19.0164 2.3792 19.0164C2.15371 19.0164 2.15371 19.0916 2.15371 19.2419C2.15371 19.9935 2.15371 20.67 2.15371 21.4216C2.15371 21.572 2.22887 21.6471 2.3792 21.6471C3.13084 21.6471 3.80731 21.6471 4.55894 21.6471ZM21.0198 4.81047C20.8694 4.66014 20.7191 4.58498 20.644 4.43465C20.1178 3.98367 20.1178 3.68302 20.5688 3.15687C20.7191 2.93138 20.9446 2.78105 21.0949 2.55556C21.0198 2.55556 21.0198 2.55556 21.0198 2.55556C19.8923 2.55556 18.84 2.55556 17.7126 2.55556C17.5622 2.55556 17.4871 2.63073 17.4871 2.78105C17.4871 3.38236 17.4871 4.05883 17.4871 4.66014C17.4871 4.88563 17.5622 4.88563 17.7126 4.88563C18.6897 4.88563 19.6668 4.88563 20.7191 4.88563C20.8694 4.88563 20.9446 4.88563 21.0198 4.81047Z" fill="#3F7874"/>
<path d="M0.575211 13.3791C0.650374 13.1536 0.875865 13.0033 1.17652 12.853C5.00986 11.1242 8.01641 8.41832 10.0458 4.66014C10.121 4.58498 10.1961 4.50982 10.1961 4.35949C9.8955 4.43465 9.59484 4.50982 9.29419 4.50982C8.84321 4.58498 8.54255 4.35949 8.39222 3.98367C8.31706 3.60785 8.54255 3.23204 8.99353 3.15687C9.74517 3.00654 10.572 2.85622 11.3236 2.63073C11.6243 2.55556 11.9249 2.70589 12.0752 3.00654C12.3759 3.53269 12.6014 4.05883 12.8269 4.58498C12.902 4.81047 13.0524 4.9608 13.1275 5.18629C13.2779 5.56211 13.2027 5.93792 12.8269 6.16341C12.4511 6.31374 12.0752 6.23858 11.9249 5.86276C11.7746 5.56211 11.6243 5.26145 11.4739 4.9608C11.3988 4.9608 11.3988 5.03596 11.3236 5.11112C9.29419 8.94447 6.28764 11.8007 2.37914 13.7549C2.15365 13.9053 1.85299 13.9804 1.6275 14.1308C1.10136 14.3562 0.875865 14.2811 0.575211 13.7549C0.575211 13.6798 0.575211 13.5294 0.575211 13.3791Z" fill="#D89036"/>
</svg>
