<svg width="21" height="23" viewBox="0 0 21 23" fill="none" xmlns="http://www.w3.org/2000/svg">
<path d="M7.1223 21.4419H6.04317C5.17986 21.4419 4.38849 21.4419 3.52518 21.4419C2.3741 21.4419 1.58273 20.6258 1.58273 19.4387C1.58273 14.171 1.58273 8.97742 1.58273 3.70968C1.58273 2.52258 2.3741 1.70645 3.52518 1.70645C7.05036 1.70645 10.5755 1.70645 14.1007 1.70645C14.3165 1.70645 14.6763 1.70645 14.964 1.85484C15.6835 2.22581 16.0432 2.81935 16.0432 3.70968C16.0432 5.86129 16.0432 8.0129 16.0432 10.2387V11.9452C16.0432 12.0935 16.0432 12.2419 16.0432 12.3903C16.1151 12.9097 16.4029 13.2065 16.9065 13.1323C17.3381 13.1323 17.6259 12.7613 17.6259 12.2419V10.5355C17.6259 8.23548 17.6259 5.93548 17.6259 3.56129C17.6259 1.70645 16.1151 0.0741936 14.2446 0.0741936C10.6475 0 7.05036 0 3.38129 0C1.51079 0 0 1.55806 0 3.4871C0 8.0871 0 12.6871 0 17.2871V19.5871C0 20.4774 0.28777 21.2935 0.935252 21.9613C1.43885 22.4806 2.08633 22.8516 2.8777 23H7.48201C7.91367 22.7774 8.1295 22.4065 7.98561 21.9613C7.98561 21.5903 7.6259 21.4419 7.1223 21.4419Z" fill="#3F7874"/>
<path d="M19.8561 18.1774C18.9928 16.9903 18.0576 16.0258 17.0504 15.3581C15.3237 14.171 13.5252 14.0968 11.7986 14.9129C10.4317 15.5806 9.35252 16.6193 8.20144 18.2516C7.98561 18.5484 7.98561 18.9193 8.20144 19.2161C9.42446 20.8484 10.9353 22.5548 13.3813 23H14.6043C15.1079 22.9258 15.6115 22.7774 16.187 22.4806C17.554 21.8129 18.705 20.7742 19.8561 19.1419C20.0719 18.8452 20.0719 18.5484 19.8561 18.1774ZM18.0576 18.9193C17.3381 19.7355 16.4748 20.7 15.2518 21.1452C14.8921 21.2935 14.5324 21.3677 14.0288 21.3677C13.1655 21.3677 12.446 21.071 11.6547 20.5516C11.0791 20.1064 10.5036 19.5871 9.92806 18.9193C9.85611 18.8452 9.78417 18.6968 9.92806 18.5484C10.5755 17.7322 11.4388 16.8419 12.5899 16.3226C13.741 15.8032 14.964 15.9516 16.1151 16.7677C16.7626 17.2129 17.3381 17.7322 17.9856 18.4742C18.1295 18.6226 18.2014 18.6968 18.0576 18.9193Z" fill="#D89036"/>
<path d="M14.0288 4.45163C13.8849 4.15486 13.6691 4.00647 13.3093 4.00647H5.53956C5.10791 4.00647 4.67625 4.00647 4.2446 4.00647C3.81294 4.00647 3.52517 4.37744 3.45323 4.8226C3.45323 5.04518 3.52517 5.26776 3.66906 5.41615C3.88489 5.56453 4.10071 5.63873 4.31654 5.63873C5.32374 5.63873 6.33093 5.63873 7.41007 5.63873H10.0719C10.5036 5.63873 10.9352 5.63873 11.295 5.63873C11.9424 5.63873 12.6619 5.63873 13.3093 5.63873C13.5971 5.63873 13.8129 5.49034 13.9568 5.26776C14.1727 4.97099 14.1727 4.74841 14.0288 4.45163Z" fill="#3F7874"/>
<path d="M14.1727 9.20004C14.1727 8.97746 14.1007 8.75488 13.9568 8.60649C13.813 8.4581 13.5971 8.38391 13.3813 8.38391C12.8777 8.38391 12.3022 8.38391 11.7986 8.38391H9.56835C7.84173 8.38391 6.11511 8.38391 4.38849 8.38391C4.17267 8.38391 3.95684 8.4581 3.81296 8.5323C3.52519 8.75488 3.45324 9.12585 3.52519 9.42262C3.66907 9.79359 3.8849 9.94198 4.24461 9.94198C5.39569 9.94198 6.47483 9.94198 7.62591 9.94198H8.77698H10.0719C11.1511 9.94198 12.2302 9.94198 13.3094 9.94198C13.813 9.94198 14.1727 9.6452 14.1727 9.20004Z" fill="#3F7874"/>
<path d="M8.92087 12.6871C8.27339 12.6871 7.6259 12.6871 6.97842 12.6871C6.259 12.6871 5.61152 12.6871 4.89209 12.6871H4.31655C4.24461 12.6871 4.17267 12.6871 4.17267 12.6871C3.81295 12.7613 3.52518 13.1323 3.59713 13.5775C3.59713 13.9484 3.95684 14.2452 4.31655 14.2452C4.89209 14.2452 5.39569 14.2452 5.97123 14.2452H6.76259H7.19425C7.76979 14.2452 8.34533 14.2452 8.92087 14.2452C9.06475 14.2452 9.1367 14.2452 9.28058 14.171C9.64029 14.0226 9.78418 13.6516 9.71223 13.2807C9.64029 12.9839 9.28058 12.6871 8.92087 12.6871Z" fill="#3F7874"/>
<path d="M14.1007 17.0646C13.2374 17.0646 12.518 17.8065 12.518 18.6968C12.518 19.142 12.6619 19.5872 12.9496 19.8839C13.2374 20.1807 13.6691 20.3291 14.1007 20.3291C14.964 20.3291 15.6835 19.5872 15.6835 18.6968C15.6835 17.8065 14.964 17.1388 14.1007 17.0646Z" fill="#3F7874"/>
</svg>
