<svg width="23" height="23" viewBox="0 0 23 23" fill="none" xmlns="http://www.w3.org/2000/svg">
<path d="M22.9868 11.013C22.9868 12.9348 22.9868 14.8565 22.9868 16.7782C22.9868 19.3652 21.139 21.5826 18.552 22.026C18.3303 22.1 18.0346 22.1 17.8129 22.1C13.8955 22.1 9.97811 22.1 6.06073 22.1C3.47378 22.1 1.25639 20.0304 0.886825 17.5174C0.886825 17.2956 0.812912 17 0.812912 16.7782C0.812912 12.9348 0.812912 9.1652 0.812912 5.32173C0.812912 2.66086 2.80856 0.369564 5.46942 0C5.69116 0 5.83899 0 6.06073 0C9.97811 0 13.8216 0 17.739 0C20.3259 0 22.6172 1.99565 22.9129 4.5826C22.9129 4.80434 22.9868 5.09999 22.9868 5.32173C22.9868 7.16955 22.9868 9.09128 22.9868 11.013ZM11.9738 1.40434C10.1259 1.40434 8.2042 1.40434 6.35638 1.40434C6.06073 1.40434 5.83899 1.47826 5.54334 1.47826C3.69551 1.84782 2.439 3.39999 2.439 5.24781C2.439 9.09128 2.439 12.8608 2.439 16.7043C2.439 17 2.51291 17.3695 2.58682 17.6652C3.0303 19.4391 4.50856 20.5478 6.35638 20.5478C10.1259 20.5478 13.8955 20.5478 17.6651 20.5478C17.8868 20.5478 18.1085 20.5478 18.4042 20.4739C20.3259 20.1782 21.5824 18.626 21.5824 16.7043C21.5824 12.9348 21.5824 9.09128 21.5824 5.32173C21.5824 4.28695 21.2129 3.32608 20.4737 2.58695C19.7346 1.84782 18.7737 1.47826 17.739 1.47826C15.7433 1.40434 13.8216 1.40434 11.9738 1.40434Z" fill="#3F7874"/>
<path d="M11.5303 5.02597C11.5303 4.95205 11.4564 4.87814 11.3825 4.80423C11.1608 4.50858 11.1608 4.0651 11.4564 3.76945C11.7521 3.4738 12.1956 3.4738 12.4912 3.69553C13.0086 4.21292 13.526 4.73031 14.0434 5.2477C14.339 5.54336 14.2651 5.98683 14.0434 6.20857C13.526 6.72596 13.0825 7.24335 12.5651 7.68683C12.2695 7.98248 11.826 7.98248 11.5303 7.68683C11.2347 7.39118 11.2347 6.9477 11.5303 6.65205C11.6043 6.57814 11.6043 6.57814 11.6782 6.50422C11.4564 6.57814 11.3825 6.57814 11.3825 6.57814C10.4956 6.57814 9.6086 6.57814 8.79556 6.57814C7.76078 6.57814 7.02165 7.24335 6.87383 8.20422C6.726 9.09117 7.46513 10.052 8.35208 10.1999C8.57382 10.1999 8.79556 10.2738 8.94339 10.2738C10.7912 10.2738 12.639 10.2738 14.5608 10.2738C16.1868 10.2738 17.739 11.4564 17.8868 13.3042C18.0347 15.152 16.7782 16.7042 15.0042 16.9259C14.8564 16.9259 14.7086 16.9259 14.5608 16.9259C12.7869 16.9259 11.0129 16.9259 9.23904 16.9259C9.0173 16.9259 8.94339 16.9999 8.86947 17.1477C8.426 18.1085 7.3173 18.552 6.35644 18.3303C5.32166 18.0346 4.65644 17.0738 4.73035 15.9651C4.80427 15.0042 5.61731 14.1172 6.65209 13.9694C7.61296 13.8216 8.57382 14.339 8.94339 15.2259C9.0173 15.3738 9.09121 15.4477 9.23904 15.4477C11.0129 15.4477 12.7869 15.4477 14.5608 15.4477C15.5216 15.4477 16.3347 14.7825 16.4825 13.9694C16.6303 12.9346 15.8912 11.826 14.5608 11.826C12.639 11.826 10.7912 11.826 8.86947 11.826C7.3173 11.826 5.69122 10.7173 5.46948 8.94335C5.09992 7.02161 6.35644 5.46944 7.98252 5.09988C8.20426 5.09988 8.426 5.09988 8.57382 5.09988C9.46078 5.09988 10.3477 5.09988 11.2347 5.09988C11.3825 5.09988 11.4564 5.09988 11.5303 5.02597ZM7.53904 16.1868C7.53904 15.8172 7.24339 15.4477 6.87383 15.4477C6.50426 15.4477 6.1347 15.7433 6.1347 16.1129C6.1347 16.4825 6.43035 16.852 6.79991 16.852C7.16948 16.852 7.46513 16.5564 7.53904 16.1868Z" fill="#3F7874"/>
<path d="M19.3651 5.83909C19.3651 7.09561 18.4042 8.05648 17.1477 8.05648C15.8912 8.05648 14.9303 7.09561 14.9303 5.83909C14.9303 4.58257 15.8912 3.6217 17.1477 3.6217C18.3303 3.6217 19.3651 4.58257 19.3651 5.83909ZM17.0738 5.09996C16.7043 5.09996 16.3347 5.46953 16.3347 5.83909C16.3347 6.20865 16.7043 6.57822 17.0738 6.50431C17.4434 6.50431 17.8129 6.13474 17.8129 5.76518C17.8129 5.46953 17.4434 5.09996 17.0738 5.09996Z" fill="#D89036"/>
</svg>
