<svg width="19" height="24" viewBox="0 0 19 24" fill="none" xmlns="http://www.w3.org/2000/svg">
<path d="M12.2088 23C12.0562 23 11.9036 23 11.6747 23C11.5221 22.9246 11.3695 22.8492 11.2169 22.6984C10.6827 22.2459 10.1486 21.7934 9.61446 21.2656C9.46185 21.1902 9.38554 21.1902 9.30924 21.2656C9.08032 21.4918 8.85141 21.6426 8.62249 21.8689C8.16466 22.2459 7.78313 22.6984 7.249 23C7.09639 23 6.94378 23 6.71486 23C6.56225 22.9246 6.40964 22.8492 6.33333 22.7738C5.64659 22.2459 4.88353 21.718 4.19679 21.2656C4.04418 21.1902 3.96787 21.1902 3.81526 21.2656C3.51004 21.4918 3.28112 21.6426 2.9759 21.8689C2.36546 22.2459 1.75502 22.6984 1.14458 23.0754C0.991968 23.0754 0.839357 23.0754 0.610442 23.0754C0.381526 23 0.228916 22.8492 0.15261 22.623C0 22.3967 0 22.1705 0 21.9443C0 15.3082 0 8.67213 0 2.03607C0 1.96066 0 1.88525 0 1.88525C0.0763052 0.754098 0.839357 0 1.98394 0C7.02008 0 11.9799 0 17.0161 0C17.1687 0 17.3213 0 17.3976 0C18.3896 0.15082 19 0.980328 19 1.96066C19 8.59672 19 15.3082 19 21.9443C19 22.3967 18.8474 22.6984 18.3896 22.9246C18.2369 22.9246 18.0843 22.9246 17.8554 22.9246C17.7028 22.8492 17.6265 22.7738 17.4739 22.6984C16.7871 22.2459 16.1767 21.7934 15.49 21.341C14.9558 20.9639 14.9558 20.9639 14.4217 21.341C13.7349 21.9443 12.9719 22.4721 12.2088 23ZM17.3213 11.1607C17.3213 8.14426 17.3213 5.20328 17.3213 2.18689C17.3213 2.11148 17.3213 1.96066 17.3213 1.88525C17.3213 1.73443 17.245 1.65902 17.0924 1.65902C17.0161 1.65902 16.9398 1.65902 16.8635 1.65902C11.9799 1.65902 7.09639 1.65902 2.21285 1.65902C2.13655 1.65902 2.06024 1.65902 2.06024 1.65902C1.90763 1.65902 1.75502 1.73443 1.75502 1.96066C1.75502 2.03607 1.75502 2.18689 1.75502 2.2623C1.75502 8.06885 1.75502 13.8754 1.75502 19.6066C1.75502 19.8328 1.75502 20.1344 1.75502 20.3607C1.75502 20.4361 1.75502 20.5115 1.83133 20.5115C1.90763 20.5115 1.90763 20.5115 1.98394 20.4361C2.51807 20.059 2.9759 19.7574 3.51004 19.3803C3.96787 19.0787 4.27309 19.0787 4.73092 19.3803C5.49398 19.9082 6.18072 20.4361 6.94378 20.9639C7.09639 21.0393 7.17269 21.0393 7.249 20.9639C7.78313 20.4361 8.39357 19.9836 8.92771 19.5311C9.38554 19.1541 9.76707 19.0787 10.3012 19.5311C10.8353 19.9836 11.3695 20.4361 11.9036 20.8885C12.1325 21.1148 12.1325 21.1148 12.4378 20.8885C13.1245 20.3607 13.8112 19.9082 14.5743 19.3803C14.9558 19.0787 15.261 19.0787 15.7189 19.3803C16.1767 19.682 16.7108 20.059 17.1687 20.3607C17.245 20.4361 17.3213 20.5115 17.4739 20.5115C17.5502 20.4361 17.4739 20.3607 17.4739 20.2098C17.3213 17.1934 17.3213 14.177 17.3213 11.1607Z" fill="#3F7874"/>
<path d="M9.46186 8.89832C10.8354 8.89832 12.2088 8.89832 13.5823 8.89832C13.7349 8.89832 13.8876 8.89831 14.0402 8.97372C14.4217 9.12454 14.6506 9.42618 14.5743 9.87864C14.5743 10.2557 14.2691 10.5573 13.8876 10.6327C13.735 10.6327 13.5823 10.6327 13.4297 10.6327C10.759 10.6327 8.01206 10.6327 5.34137 10.6327C5.18876 10.6327 5.03615 10.6327 4.95985 10.6327C4.57832 10.5573 4.2731 10.2557 4.2731 9.87864C4.2731 9.42618 4.50202 9.12454 4.88354 8.97372C5.03615 8.89831 5.18876 8.89832 5.26507 8.89832C6.71487 8.89832 8.08836 8.89832 9.46186 8.89832Z" fill="#3F7874"/>
<path d="M9.46186 6.25899C8.01206 6.25899 6.56226 6.25899 5.11246 6.25899C4.65463 6.25899 4.34941 5.95735 4.2731 5.50489C4.2731 5.05243 4.50202 4.67539 4.95985 4.59998C5.03615 4.59998 5.18876 4.59998 5.26507 4.59998C8.01206 4.59998 10.759 4.59998 13.506 4.59998C13.5823 4.59998 13.7349 4.59998 13.8113 4.59998C14.1928 4.59998 14.498 4.90161 14.5743 5.27866C14.6506 5.73112 14.4217 6.03276 14.0402 6.18358C13.8876 6.25899 13.8113 6.18358 13.6586 6.18358C12.2851 6.25899 10.9117 6.25899 9.46186 6.25899Z" fill="#3F7874"/>
<path d="M7.32531 14.8557C6.63856 14.8557 5.95182 14.8557 5.18876 14.8557C4.65463 14.8557 4.2731 14.4787 4.2731 14.0262C4.2731 13.6491 4.57832 13.2721 4.95985 13.2721C5.11246 13.2721 5.18876 13.2721 5.34137 13.2721C6.63856 13.2721 7.85945 13.2721 9.15664 13.2721C9.23294 13.2721 9.30925 13.2721 9.46186 13.2721C9.99599 13.3475 10.3012 13.6491 10.3012 14.177C10.3012 14.6295 9.91969 14.9311 9.38555 14.9311C8.6988 14.8557 8.01206 14.8557 7.32531 14.8557Z" fill="#D89036"/>
</svg>
