<svg width="19" height="23" viewBox="0 0 19 23" fill="none" xmlns="http://www.w3.org/2000/svg">
<path d="M16.3506 0C16.8805 0.146965 17.4103 0.29393 17.8645 0.661342C18.6215 1.2492 19 2.05751 19 3.01278C19 8.67093 19 14.3291 19 19.9872C19 21.6038 17.5617 23 15.8964 23C11.6574 23 7.41831 23 3.17927 23C1.43823 23 0.0756836 21.6038 0.0756836 19.9872C0.0756836 15.2843 0.0756836 10.655 0.0756836 5.95208C0.0756836 4.77636 0.529867 3.82109 1.43823 3.08626C2.3466 2.35144 3.25497 1.61661 4.16333 0.881789C4.69321 0.440895 5.37449 0.146965 6.13146 0C9.53784 0 12.9442 0 16.3506 0ZM17.3346 11.4633C17.3346 8.67093 17.3346 5.87859 17.3346 3.08626C17.3346 2.20447 16.7291 1.54313 15.8207 1.54313C12.7928 1.54313 9.84062 1.54313 6.81274 1.54313C6.28286 1.54313 5.75297 1.61661 5.29879 1.98403C4.39042 2.79233 3.40636 3.52716 2.4223 4.33546C1.89242 4.77636 1.66533 5.36422 1.66533 6.02556C1.66533 10.655 1.66533 15.2843 1.66533 19.8403C1.66533 20.7955 2.2709 21.3834 3.25497 21.3834C7.41831 21.3834 11.5817 21.3834 15.745 21.3834C15.8964 21.3834 16.0478 21.3834 16.1992 21.3834C16.9562 21.1629 17.3346 20.6486 17.3346 19.8403C17.3346 17.0479 17.3346 14.2556 17.3346 11.4633Z" fill="#3F7874"/>
<path d="M9.46214 18.444C7.8725 18.444 6.28286 18.444 4.76892 18.444C4.16334 18.444 3.78485 18.0031 3.86055 17.5622C3.93625 17.1948 4.23904 16.9009 4.61752 16.9009C4.69322 16.9009 4.84461 16.9009 4.92031 16.9009C8.0239 16.9009 11.0518 16.9009 14.1554 16.9009C14.7609 16.9009 15.1394 17.2683 15.0637 17.8561C14.988 18.297 14.6853 18.5175 14.1554 18.5175C12.6414 18.444 11.0518 18.444 9.46214 18.444Z" fill="#3F7874"/>
<path d="M9.53784 13.0063C11.1275 13.0063 12.7171 13.0063 14.2311 13.0063C14.6096 13.0063 14.8366 13.1533 14.988 13.4472C15.1394 13.7412 15.0637 14.0351 14.8366 14.329C14.6096 14.5495 14.3825 14.623 14.0797 14.623C11.8088 14.623 9.61354 14.623 7.34262 14.623C6.50995 14.623 5.60159 14.623 4.76892 14.623C4.39043 14.623 4.08764 14.476 3.93625 14.1821C3.78485 13.8881 3.86055 13.5942 4.08764 13.3738C4.23904 13.1533 4.46613 13.0798 4.76892 13.0798C6.43426 13.0063 8.0239 13.0063 9.53784 13.0063Z" fill="#3F7874"/>
<path d="M11.8844 7.64217C11.8844 6.90734 11.8844 6.09904 11.8844 5.36421C11.8844 4.84983 12.1872 4.5559 12.6414 4.48242C13.0956 4.48242 13.4741 4.84983 13.4741 5.29073C13.4741 6.83386 13.4741 8.37699 13.4741 9.84664C13.4741 10.2875 13.1713 10.6549 12.7928 10.6549C12.4143 10.7284 12.0358 10.508 11.8844 10.2141C11.8087 10.0671 11.8087 9.9936 11.8087 9.84664C11.8844 9.11181 11.8844 8.37699 11.8844 7.64217Z" fill="#D89036"/>
<path d="M10.2948 8.45046C10.2948 8.96484 10.2948 9.40574 10.2948 9.92011C10.2948 10.361 9.992 10.7284 9.53782 10.7284C9.08364 10.7284 8.70515 10.4345 8.70515 9.9936C8.62945 8.96484 8.70515 7.93609 8.70515 6.90733V6.83385C8.78085 6.39296 9.15934 6.09903 9.61352 6.17251C10.0677 6.17251 10.3705 6.53992 10.3705 6.98082C10.2948 7.49519 10.2948 7.93609 10.2948 8.45046Z" fill="#D89036"/>
<path d="M7.19122 8.7444C7.19122 9.11181 7.19122 9.47923 7.19122 9.92012C7.19122 10.4345 6.81273 10.7284 6.35855 10.7284C5.90436 10.7284 5.52588 10.361 5.52588 9.92012C5.52588 9.11181 5.52588 8.37699 5.52588 7.56868C5.52588 7.12779 5.90436 6.76038 6.35855 6.76038C6.81273 6.76038 7.11552 7.12779 7.11552 7.56868C7.19122 8.00958 7.19122 8.37699 7.19122 8.7444Z" fill="#D89036"/>
</svg>
