<svg width="29" height="25" viewBox="0 0 29 25" fill="none" xmlns="http://www.w3.org/2000/svg">
<path d="M0 9.43442C0.982456 7.77925 1.88304 6.04132 2.8655 4.38615C3.02924 4.05511 3.27485 3.8896 3.60234 3.72408C6.95906 2.4827 10.3158 1.32408 13.5906 0.0826988C13.9181 -5.97704e-05 14.2456 -5.97704e-05 14.5731 0.0826988C17.848 1.32408 21.2047 2.56546 24.4795 3.72408C24.807 3.80684 24.9708 3.97235 25.1345 4.30339C26.0351 5.8758 26.9357 7.53097 27.8363 9.10339C28.2456 9.76546 28.0819 10.262 27.345 10.593C26.7719 10.8413 26.2807 11.0068 25.7076 11.2551C25.462 11.3379 25.3801 11.5034 25.3801 11.7517C25.3801 13.6551 25.3801 17.2965 25.3801 19.1999C25.3801 19.862 25.2164 20.1103 24.6433 20.3586C21.2866 21.5999 18.0117 22.7586 14.655 23.9999C14.3275 24.0827 14 24.1655 13.6725 23.9999C10.3158 22.7586 6.95906 21.5172 3.60234 20.3586C3.19298 20.193 2.94737 19.9448 2.94737 19.4482C2.94737 19.2827 2.94737 19.1172 2.94737 18.9517C2.94737 17.131 2.94737 13.6551 2.94737 11.8344C2.94737 11.5861 2.8655 11.4206 2.61988 11.2551C2.04678 11.0896 1.47368 10.7586 0.900585 10.593C0.573099 10.5103 0.327485 10.3448 0.163743 10.0137C0 9.84822 0 9.59994 0 9.43442ZM14.9825 11.8344C14.9825 11.9172 14.9825 11.9172 14.9825 11.8344C14.9006 11.9172 14.9006 11.9999 14.9006 12.1655C14.9006 14.731 14.9006 18.9517 14.9006 21.5172C14.9006 21.931 14.9006 21.931 15.3099 21.8482C18.0117 20.8551 20.6316 19.9448 23.3333 18.9517C23.5789 18.8689 23.6608 18.7861 23.6608 18.5379C23.6608 17.0482 23.6608 13.9034 23.6608 12.4137C23.6608 12.0827 23.6608 12.0827 23.3333 12.1655C21.3684 12.9103 19.4035 13.7379 17.4386 14.4827C17.1111 14.6482 16.7836 14.6482 16.538 14.3999C16.3743 14.3172 16.2924 14.1517 16.2105 13.9861C15.7193 13.2413 15.3918 12.5793 14.9825 11.8344ZM13.1813 11.7517C13.0994 11.7517 13.0994 11.8344 13.0175 11.9172C12.6082 12.5793 12.1988 13.3241 11.8713 13.9861C11.5439 14.6482 11.2164 14.731 10.4795 14.4827C8.59649 13.7379 6.71345 12.993 4.83041 12.2482C4.5848 12.1655 4.5848 12.1655 4.5848 12.4137C4.5848 13.9034 4.5848 17.0482 4.5848 18.5379C4.5848 18.7861 4.66667 18.8689 4.83041 18.9517C7.53216 19.9448 10.2339 20.9379 12.9357 21.8482C13.2632 21.931 13.2632 21.931 13.2632 21.5999C13.2632 18.9517 13.2632 14.6482 13.2632 11.9172C13.1813 11.8344 13.2632 11.7517 13.1813 11.7517ZM6.22222 4.63442C6.30409 4.71718 6.30409 4.71718 6.38597 4.71718C8.84211 5.62753 11.3801 6.53787 13.8363 7.44822C14 7.53097 14.1637 7.53097 14.2456 7.44822C16.6199 6.53787 19.076 5.62753 21.4503 4.71718C21.5322 4.71718 21.614 4.71718 21.614 4.55166C21.5322 4.55166 21.4503 4.46891 21.4503 4.46891C19.076 3.55856 16.7018 2.73097 14.3275 1.82063C14.0819 1.73787 13.9181 1.73787 13.6725 1.82063C11.5439 2.64822 9.33333 3.39304 7.20468 4.22063C6.95906 4.30339 6.63158 4.46891 6.22222 4.63442ZM12.7719 8.93787C12.7719 8.85511 12.6901 8.85511 12.6082 8.77235C9.82456 7.77925 7.12281 6.78615 4.33918 5.79304C4.17544 5.71028 4.09357 5.71028 3.92982 5.8758C3.35673 6.95166 2.78363 7.94477 2.12865 9.02063C2.04678 9.18615 2.04678 9.26891 2.21053 9.35166C4.91228 10.4275 7.61404 11.5034 10.3158 12.4965C10.4795 12.5793 10.5614 12.5793 10.6433 12.331C11.2982 11.1724 11.9532 10.0965 12.5263 9.02063C12.6901 9.02063 12.7719 8.93787 12.7719 8.93787ZM25.8713 9.18615C25.8713 9.10339 25.7895 9.10339 25.7895 9.02063C25.2164 7.94477 24.5614 6.95166 23.9883 5.8758C23.9064 5.71028 23.8246 5.62753 23.5789 5.71028C22.5965 6.12408 21.5322 6.45511 20.5497 6.86891C18.8304 7.53097 17.193 8.11029 15.4737 8.77235C15.3099 8.85511 15.2281 8.93787 15.3099 9.10339C15.883 10.1793 16.538 11.2551 17.1111 12.331C17.193 12.5793 17.3567 12.5793 17.5205 12.4965C18.8304 11.9999 20.2222 11.4206 21.5322 10.9241C22.8421 10.4275 24.2339 9.84822 25.5439 9.35166C25.7895 9.35166 25.8713 9.35166 25.8713 9.18615Z" fill="#3F7874"/>
<path d="M17.6842 14.3999V18.4551C18.9123 18.0413 20.0585 17.5448 21.2865 17.131V12.993C20.0585 13.4068 18.8304 13.9034 17.6842 14.3999Z" fill="#D89036"/>
</svg>
