<svg width="23" height="21" viewBox="0 0 23 21" fill="none" xmlns="http://www.w3.org/2000/svg">
<path d="M19.8603 3.01C17.3048 3.01 14.7492 3.01 12.1937 3.01C11.9746 3.01 11.8286 2.94 11.6825 2.8C11.0984 2.24 10.5873 1.68 10.0032 1.19L9.71111 0.91C9.05397 0.28 8.25079 0 7.3746 0C6.49841 0 5.62222 0 4.74603 0C4.38095 0 4.01587 0 3.65079 0C3.50476 0 3.35873 0 3.2127 0C1.31429 0 0 1.26 0 3.08C0 4.83 0 6.65 0 8.4V12.53C0 14.35 0 16.24 0 18.06C0 18.76 0.219048 19.46 0.730159 19.95C1.3873 20.65 2.19048 21 3.2127 21C5.18413 21 7.15556 21 9.12698 21H11.4635H13.3619C15.4794 21 17.5968 21 19.7143 21C21.6127 21 22.927 19.67 22.927 17.92V13.02C22.927 10.71 22.927 8.4 22.927 6.02C22.927 5.74 22.927 5.53 22.854 5.32C22.5619 3.99 21.3206 3.01 19.8603 3.01ZM21.0286 12.46C21.0286 14.28 21.0286 16.03 21.0286 17.85C21.0286 17.99 21.0286 18.13 21.0286 18.27C20.9556 18.83 20.5175 19.18 19.9333 19.18C19.2762 19.18 18.619 19.18 17.9619 19.18H11.5365C10.8063 19.18 10.0032 19.18 9.27302 19.18C7.30159 19.18 5.33016 19.18 3.35873 19.18C2.99365 19.18 2.62857 19.04 2.40952 18.83C2.19048 18.62 2.04444 18.27 2.04444 17.85C2.04444 14.21 2.04444 10.57 2.04444 6.86V3.08C2.04444 2.24 2.48254 1.82 3.35873 1.82H4.74603C5.62222 1.82 6.49841 1.82 7.3746 1.82C7.8127 1.82 8.17778 1.96 8.46984 2.24C8.90794 2.66 9.34603 3.08 9.71111 3.5C10.0762 3.85 10.3683 4.13 10.7333 4.48C10.9524 4.76 11.2444 4.9 11.6095 4.9C13.4349 4.9 15.2603 4.9 17.0857 4.9H19.7143C20.1524 4.9 20.5175 5.04 20.7365 5.32C20.9556 5.6 20.9556 5.88 20.9556 6.16C20.9556 7.56 20.9556 9.03 20.9556 10.43V12.46H21.0286Z" fill="#3F7874"/>
<path d="M14.9682 11.9C14.6032 11.76 14.2381 11.83 13.946 12.11C13.727 12.32 13.5079 12.53 13.2159 12.74C13.0698 12.88 12.9238 13.02 12.8508 13.09C12.8508 13.09 12.8508 13.09 12.7778 13.16C12.7047 13.23 12.6317 13.3 12.5587 13.3H12.4857V13.23C12.4127 13.16 12.4127 13.02 12.4127 12.95V12.88C12.4127 11.55 12.4127 10.22 12.4127 8.89002C12.4127 8.75002 12.4127 8.61002 12.3397 8.47002C12.2666 8.05002 11.8286 7.77002 11.3905 7.77002C10.9524 7.77002 10.5143 8.05002 10.4413 8.47002C10.4413 8.61002 10.4413 8.75002 10.4413 8.89002C10.4413 9.94002 10.4413 10.99 10.4413 12.04V13.3L10.2952 13.37L10.2222 13.23C10.1492 13.16 10.1492 13.16 10.0762 13.09C9.93014 12.95 9.85713 12.88 9.71109 12.74C9.49205 12.53 9.19998 12.25 8.98094 12.04C8.76189 11.9 8.54284 11.83 8.32379 11.83C8.03173 11.83 7.81268 11.9 7.59363 12.11C7.22855 12.46 7.22855 13.02 7.59363 13.37C8.68887 14.42 9.71109 15.4 10.8063 16.45C11.1714 16.8 11.7555 16.8 12.1936 16.45C13.2159 15.47 14.3111 14.42 15.4063 13.37C15.6254 13.16 15.6984 12.88 15.6984 12.6C15.5524 12.32 15.3333 12.04 14.9682 11.9Z" fill="#D89036"/>
</svg>
