<svg width="20" height="22" viewBox="0 0 20 22" fill="none" xmlns="http://www.w3.org/2000/svg">
<path d="M1.58845 11C1.58845 13.6776 1.58845 16.2829 1.58845 18.9605C1.58845 19.9013 2.09386 20.4079 3.03249 20.4079C4.18773 20.4079 5.34296 20.4079 6.49819 20.4079C6.85921 20.4079 7.14801 20.625 7.29242 20.9868C7.36462 21.2763 7.29242 21.6382 7.00361 21.8553C6.85921 22 6.6426 22 6.49819 22C5.27076 22 4.11552 22 2.88809 22C1.44404 22 0.361011 21.0592 0.0722022 19.6842C0 19.3947 0 19.1776 0 18.8882C0 13.6053 0 8.39474 0 3.11184C0 1.95395 0.433213 1.01316 1.44404 0.361842C1.94946 0.144737 2.38267 0 2.96029 0C5.77617 0 8.51986 0 11.3357 0C12.13 0 12.852 0.289474 13.4296 0.868421C14.657 2.17105 15.9567 3.40132 17.2563 4.70395C17.8339 5.28289 18.1227 6.00658 18.1227 6.875C18.1227 7.88816 18.1227 8.97368 18.1227 9.98684C18.1227 10.3487 17.9061 10.7105 17.5451 10.7829C17.2563 10.8553 16.8953 10.7105 16.6787 10.4211C16.6065 10.2763 16.5343 10.0592 16.5343 9.8421C16.5343 8.90132 16.5343 7.96053 16.5343 7.09211C16.5343 6.80263 16.5343 6.80263 16.2455 6.80263C15.3069 6.80263 14.296 6.80263 13.3574 6.80263C12.4188 6.80263 11.6968 6.22368 11.5523 5.35526C11.5523 5.21053 11.5523 5.06579 11.5523 4.92105C11.5523 3.90789 11.5523 2.96711 11.5523 1.95395C11.5523 1.73684 11.4801 1.66447 11.2635 1.66447C8.51986 1.66447 5.77617 1.66447 2.96029 1.66447C2.09386 1.59211 1.58845 2.09868 1.58845 2.89474C1.58845 5.64474 1.58845 8.32237 1.58845 11ZM12.9964 2.82237C12.9964 3.54605 12.9964 4.19737 12.9964 4.92105C12.9964 5.13816 13.1408 5.13816 13.2852 5.13816C13.7906 5.13816 14.3682 5.13816 14.8736 5.13816C15.0181 5.13816 15.1625 5.13816 15.2347 5.13816C14.5848 4.3421 13.7906 3.54605 12.9964 2.82237Z" fill="#3F7874"/>
<path d="M14.0794 21.9999C12.9242 21.9999 11.769 21.9999 10.6137 21.9999C9.38629 21.9999 8.44766 21.2762 8.23106 20.1183C8.08665 19.5394 8.23106 18.9604 8.51987 18.4539C9.6751 16.4276 10.8303 14.4012 11.9856 12.3026C12.9964 10.6381 15.1625 10.6381 16.1011 12.3026C17.2563 14.3289 18.4116 16.3552 19.5668 18.4539C20.5054 20.046 19.3502 21.9276 17.4729 21.9999C16.4621 21.9999 15.3069 21.9999 14.0794 21.9999ZM14.1516 20.4078C15.3069 20.4078 16.4621 20.4078 17.6895 20.4078C18.1228 20.4078 18.4116 20.1183 18.4838 19.6841C18.4838 19.467 18.4116 19.2499 18.2672 19.0328C17.6895 18.0197 17.1119 16.9341 16.4621 15.921C15.8845 14.9802 15.3791 13.967 14.8015 13.0262C14.4404 12.4473 13.7906 12.4473 13.4296 13.0262C13.4296 13.0986 13.3574 13.171 13.3574 13.171C12.2744 15.1249 11.1191 17.0789 10.0361 19.0328C9.6751 19.6841 9.96391 20.2631 10.7581 20.2631C11.8412 20.4078 12.9964 20.4078 14.1516 20.4078Z" fill="#D89036"/>
<path d="M7.43682 7.96045C8.44765 7.96045 9.45848 7.96045 10.4693 7.96045C11.0469 7.96045 11.4079 8.46703 11.2635 8.97361C11.1913 9.26308 10.9747 9.40782 10.6859 9.48019C10.6137 9.48019 10.4693 9.48019 10.3249 9.48019C8.37545 9.48019 6.49819 9.48019 4.54873 9.48019C4.33213 9.48019 4.18772 9.48019 3.97112 9.33545C3.68231 9.11834 3.5379 8.82887 3.6101 8.46703C3.68231 8.17755 3.97112 7.96045 4.40433 7.96045C5.41516 7.96045 6.42599 7.96045 7.43682 7.96045Z" fill="#3F7874"/>
<path d="M5.92057 4.34204C6.42599 4.34204 6.8592 4.34204 7.36462 4.34204C7.87003 4.34204 8.23104 4.70388 8.23104 5.13809C8.23104 5.5723 7.87003 5.93415 7.43682 5.93415C6.42599 5.93415 5.41516 5.93415 4.33213 5.93415C3.89891 5.86178 3.5379 5.49994 3.5379 5.06573C3.61011 4.63151 3.97112 4.34204 4.40433 4.34204C4.90974 4.34204 5.41516 4.34204 5.92057 4.34204Z" fill="#3F7874"/>
<path d="M5.92059 11.5789C6.42601 11.5789 6.85922 11.5789 7.36463 11.5789C7.87005 11.5789 8.23106 11.8683 8.23106 12.3749C8.23106 12.8091 7.87005 13.171 7.43684 13.171C6.42601 13.171 5.41518 13.171 4.40435 13.171C3.89893 13.171 3.53792 12.8091 3.61012 12.3749C3.61012 11.9407 3.97113 11.5789 4.40435 11.5789C4.90976 11.5789 5.41518 11.5789 5.92059 11.5789Z" fill="#3F7874"/>
<path d="M13.3574 16.2106C13.3574 15.9211 13.3574 15.5593 13.3574 15.2698C13.3574 14.7632 13.7184 14.4014 14.1516 14.4014C14.5848 14.4014 14.9458 14.7632 14.9458 15.2698C14.9458 15.9211 14.9458 16.5724 14.9458 17.2237C14.9458 17.7303 14.5848 18.0922 14.1516 18.0922C13.7184 18.0922 13.3574 17.7303 13.3574 17.2237C13.3574 16.8619 13.3574 16.5001 13.3574 16.2106Z" fill="#3F7874"/>
<path d="M14.1516 19.8289C13.7184 19.8289 13.3574 19.4671 13.3574 19.0329C13.3574 18.5987 13.7184 18.2368 14.1516 18.2368C14.5848 18.2368 14.9458 18.5987 14.9458 19.0329C14.9458 19.4671 14.5848 19.8289 14.1516 19.8289Z" fill="#3F7874"/>
</svg>
