<svg width="24" height="23" viewBox="0 0 24 23" fill="none" xmlns="http://www.w3.org/2000/svg">
<path d="M0 12.0199C0.0738462 12.1656 0 12.2384 0.0738462 12.3841C0.295385 14.5695 1.03385 16.5364 2.28923 18.3576C3.17538 19.6689 4.28308 20.6887 5.53846 21.5629C5.98154 21.8543 6.35077 21.7086 6.64615 21.2715C6.72 21.1258 6.79385 21.053 6.86769 20.9073C6.94154 20.7616 7.01538 20.7616 7.16308 20.8344C9.45231 22.0728 11.8892 22.3642 14.4 21.7086C19.0523 20.543 22.4492 16.0993 22.4492 11.1457C22.4492 10.5629 22.2277 10.2715 21.5631 10.2715C18.6831 10.2715 15.8031 10.2715 12.9231 10.2715C12.6277 10.2715 12.6277 10.2715 12.6277 9.90728C12.6277 6.84768 12.6277 3.86093 12.6277 0.801324C12.6277 0.291391 12.3323 0 11.8154 0C11.3723 0 10.9292 0 10.4862 0.0728477C7.68 0.509934 5.39077 1.89404 3.61846 4.15232C3.10154 4.88079 2.58462 5.68212 2.28923 6.55629C2.21538 6.77483 2.14154 6.77483 1.99385 6.70199C1.84615 6.70199 1.69846 6.62914 1.55077 6.55629C1.10769 6.4106 0.738462 6.62914 0.590769 7.06622C0.516923 7.28477 0.443077 7.43046 0.443077 7.64901C0.221538 8.37748 0.147692 9.17881 0.0738462 9.98013C0 10.6358 0 11.3642 0 12.0199ZM20.6769 11.7285C21.0462 11.7285 21.0462 11.7285 20.9723 12.0927C20.7508 14.1324 19.9385 15.9536 18.6092 17.4834C17.2062 19.0132 15.5077 20.0331 13.5138 20.3245C11.5938 20.6887 9.74769 20.3973 8.04923 19.5232C7.82769 19.4503 7.82769 19.3775 7.90154 19.1589C9.37846 16.755 10.7815 14.351 12.1846 11.947C12.2585 11.8013 12.4062 11.7285 12.6277 11.7285C13.9569 11.7285 15.36 11.7285 16.6892 11.7285C18.0185 11.7285 19.3477 11.7285 20.6769 11.7285ZM1.69846 8.52318C1.77231 8.30464 1.77231 8.30464 1.99385 8.37748C4.87385 9.39735 7.75385 10.3444 10.56 11.3642C10.7815 11.4371 10.7815 11.5099 10.6338 11.6556C9.00923 14.2781 7.45846 16.9735 5.83385 19.6689C5.76 19.8874 5.61231 19.8874 5.46462 19.7417C3.24923 17.9205 1.92 15.5894 1.47692 12.7483C1.47692 12.0927 1.47692 11.5099 1.40308 11C1.47692 10.1258 1.55077 9.3245 1.69846 8.52318ZM11.2246 9.68874C11.2246 9.90728 11.1508 9.90728 11.0031 9.83444C8.64 9.03311 6.20308 8.15894 3.84 7.35762C3.61846 7.28477 3.54462 7.21192 3.69231 6.99338C5.09538 3.93377 7.45846 2.11258 10.6338 1.60265C11.2246 1.5298 11.2246 1.5298 11.2246 2.11258C11.2246 3.35099 11.2246 4.51656 11.2246 5.75497C11.2246 7.06622 11.2246 8.37748 11.2246 9.68874Z" fill="#3F7874"/>
<path d="M18.9785 8.81454C17.5754 8.81454 16.1723 8.81454 14.6954 8.81454C14.2523 8.81454 13.9569 8.52315 13.9569 8.08606C13.9569 7.64898 14.2523 7.35759 14.6954 7.35759C14.8431 7.35759 14.9908 7.35759 15.1385 7.35759C15.36 7.35759 15.4338 7.28474 15.4338 7.06619C15.4338 6.48341 15.4338 5.90063 15.4338 5.31785C15.4338 4.73507 15.7292 4.44368 16.1723 4.44368C16.6154 4.44368 16.9108 4.80792 16.9108 5.31785C16.9108 5.90063 16.9108 6.48341 16.9108 7.06619C16.9108 7.28474 16.9846 7.35759 17.2062 7.35759C17.5015 7.35759 17.7969 7.35759 18.0185 7.35759C18.24 7.35759 18.24 7.28474 18.24 7.06619C18.24 5.97348 18.24 4.80792 18.24 3.7152C18.24 3.42381 18.3877 3.20527 18.6092 3.05957C18.8308 2.91388 19.1262 2.91388 19.3477 3.05957C19.5692 3.20527 19.6431 3.42381 19.6431 3.7152C19.6431 4.80792 19.6431 5.90063 19.6431 6.99335C19.6431 7.21189 19.7169 7.35759 19.9385 7.28474C20.2338 7.28474 20.4554 7.28474 20.7508 7.28474C20.9723 7.28474 21.0462 7.21189 21.0462 6.99335C21.0462 5.3907 21.0462 3.8609 21.0462 2.25825C21.0462 2.11255 21.0462 2.0397 21.0462 1.89401C21.1938 1.52977 21.4892 1.31123 21.8585 1.38407C22.2277 1.45692 22.4492 1.74831 22.4492 2.11255C22.4492 3.64235 22.4492 5.17215 22.4492 6.70196C22.4492 6.7748 22.4492 6.84765 22.4492 6.99335C22.4492 7.13904 22.5231 7.21189 22.6708 7.21189C22.8185 7.21189 22.9662 7.21189 23.1877 7.21189C23.7046 7.21189 24 7.50328 24 7.94037C24 8.37745 23.7046 8.66884 23.1877 8.66884C21.7846 8.81454 20.3815 8.81454 18.9785 8.81454Z" fill="#D89036"/>
</svg>
