<svg width="24" height="23" viewBox="0 0 24 23" fill="none" xmlns="http://www.w3.org/2000/svg">
<path d="M23.9991 12.4139C23.8468 13.0993 23.5422 13.7086 22.9329 14.0894C22.3998 14.4702 21.7905 14.6987 21.1051 14.6225C20.8004 14.6225 20.6481 14.6987 20.4958 14.9272C20.2673 15.3841 19.7342 15.4603 19.2773 15.2318C18.8203 15.0033 18.668 14.5464 18.8203 14.0894C19.1249 13.3278 19.8865 12.7947 20.7243 12.7947C20.8766 12.7947 21.0289 12.7947 21.1812 12.7947C21.7143 12.7947 22.019 12.4901 22.0951 11.957C22.0951 11.6523 22.0951 11.2715 22.0951 10.8907C22.019 10.3576 21.7143 10.053 21.1812 10.053C20.9528 10.053 20.6481 10.053 20.4196 10.053C19.5819 9.90066 19.0488 9.36755 18.8203 8.60596C18.5918 7.84437 18.7441 7.08278 19.2773 6.47351C19.3534 6.39735 19.5057 6.24503 19.5819 6.16887C20.0388 5.86424 20.0388 5.33113 19.6581 4.95033C19.4296 4.72185 19.2773 4.49338 19.0488 4.34106C18.668 4.03642 18.211 4.03642 17.8302 4.34106C17.6779 4.49338 17.5256 4.6457 17.3733 4.79801C16.0786 5.86424 14.1746 5.17881 13.87 3.57947C13.7938 3.35099 13.87 3.12252 13.87 2.89404C13.87 2.28477 13.4892 1.90397 12.8799 1.90397C12.6514 1.90397 12.423 1.90397 12.1945 1.90397C11.5852 1.90397 11.2806 2.28477 11.2806 2.81788C11.2806 3.12252 11.2806 3.35099 11.2044 3.65563C10.8236 5.25497 8.9958 5.86424 7.7011 4.79801C7.54878 4.6457 7.39646 4.49338 7.24414 4.34106C6.86335 3.96027 6.4064 3.96027 6.0256 4.34106C5.79712 4.56954 5.56865 4.72185 5.34017 4.95033C5.03554 5.33113 5.03554 5.86424 5.34017 6.16887C5.49249 6.32119 5.64481 6.47351 5.72097 6.62583C6.78719 7.92053 6.10176 9.8245 4.50242 10.1291C4.27395 10.2053 4.04547 10.1291 3.81699 10.1291C3.20772 10.1291 2.82693 10.5099 2.82693 11.1192C2.82693 11.3477 2.82693 11.5762 2.82693 11.8046C2.82693 12.4901 3.20772 12.7947 3.81699 12.7947C4.04547 12.7947 4.3501 12.7947 4.57858 12.8709C5.26401 13.0232 5.79712 13.4801 6.0256 14.1656C6.25408 14.6225 6.0256 15.1556 5.56865 15.3841C5.11169 15.6126 4.57858 15.4603 4.35011 15.0033C4.19779 14.7748 4.04547 14.6987 3.74083 14.6987C2.75077 14.7748 1.98918 14.394 1.37991 13.6325C1.22759 13.0993 0.999112 12.5662 0.999112 12.0331C0.999112 11.5762 0.922953 11.043 1.07527 10.5861C1.30375 9.29139 2.44613 8.37748 3.74083 8.37748C3.81699 8.37748 3.96931 8.37748 4.04547 8.37748C4.19779 8.37748 4.35011 8.37748 4.42626 8.22517C4.50242 8.07285 4.42626 7.92053 4.35011 7.84437C4.12163 7.61589 3.96931 7.38742 3.81699 7.2351C2.97924 6.16887 3.0554 4.6457 4.04547 3.65563C4.42626 3.27483 4.7309 2.89404 5.18785 2.5894C6.25408 1.98013 7.54878 2.13245 8.46269 2.89404C8.53885 2.9702 8.69116 3.12252 8.76732 3.19868C8.91964 3.35099 8.9958 3.42715 9.22428 3.35099C9.37659 3.27483 9.37659 3.12252 9.37659 2.9702C9.37659 2.74172 9.37659 2.51325 9.37659 2.20861C9.60507 1.06623 10.2905 0.304636 11.509 0C11.5852 0 11.5852 0 11.6614 0C12.2706 0 12.8799 0 13.4892 0C13.5653 0 13.5653 0 13.6415 0C14.7077 0.380795 15.3932 1.06623 15.6216 2.28477C15.6978 2.51325 15.6216 2.74172 15.6216 3.04636C15.6216 3.19868 15.6216 3.35099 15.7739 3.42715C15.9263 3.50331 16.0786 3.42715 16.2309 3.27483C16.3071 3.19868 16.4594 3.04636 16.5355 2.9702C17.5256 2.05629 18.9726 1.98013 19.9627 2.81788C20.3435 3.12252 20.6481 3.42715 20.9528 3.73179C21.7905 4.6457 21.9428 5.9404 21.3335 7.00662C21.1812 7.31126 20.8766 7.53974 20.6481 7.76821C20.572 7.84437 20.4958 7.99669 20.572 8.14901C20.6481 8.30132 20.7243 8.30132 20.8766 8.30132C21.0289 8.30132 21.1812 8.30132 21.3335 8.30132C21.9428 8.30132 22.5521 8.5298 23.009 8.9106C23.5422 9.36755 23.8468 9.90066 23.9991 10.5861C23.9991 11.1954 23.9991 11.8046 23.9991 12.4139Z" fill="#D89036"/>
<path d="M12.5753 23.0001C10.7475 23.0001 8.91964 23.0001 7.09182 23.0001C5.56864 23.0001 4.50242 21.6292 4.88321 20.1822C5.49248 17.7451 7.01566 15.9934 9.22427 14.9272C9.45275 14.8511 9.45275 14.8511 9.30043 14.6226C8.08189 13.3279 7.70109 11.7285 8.31037 10.053C8.91964 8.37754 10.1382 7.31132 11.8898 7.00668C14.4792 6.62589 16.764 8.4537 17.0686 10.9669C17.221 12.3378 16.764 13.5564 15.8501 14.5464C15.6978 14.6987 15.6978 14.6987 15.9263 14.8511C16.6878 15.1557 17.3733 15.6126 17.9825 16.1458C18.3633 16.5266 18.4395 17.0597 18.1349 17.5166C17.8302 17.8974 17.221 17.8974 16.8402 17.5928C15.8501 16.755 14.7839 16.2219 13.4892 16.0696C10.6713 15.765 8.00573 17.3643 7.09182 19.9537C7.01566 20.1822 6.9395 20.4107 6.86335 20.563C6.78719 20.8676 6.9395 21.0199 7.24414 21.0961C7.3203 21.0961 7.39646 21.0961 7.47262 21.0961C10.9759 21.0961 14.5554 21.0961 18.0587 21.0961H18.1349C18.5157 21.0961 18.668 20.9438 18.5918 20.563C18.5157 20.0299 18.8203 19.5729 19.3534 19.4967C19.8865 19.4206 20.3435 19.7252 20.4196 20.2583C20.4958 20.4868 20.4958 20.7915 20.4196 21.0199C20.2673 22.0862 19.3534 22.9239 18.211 22.9239C16.2309 23.0001 14.4031 23.0001 12.5753 23.0001ZM12.4991 14.1656C13.9461 14.1656 15.1647 13.0994 15.1647 11.5001C15.1647 10.053 14.0984 8.8345 12.5753 8.8345C11.1282 8.8345 9.9097 9.82456 9.83354 11.5001C9.83354 12.9471 10.9759 14.0895 12.4991 14.1656Z" fill="#3F7874"/>
</svg>
