<svg width="20" height="23" viewBox="0 0 20 23" fill="none" xmlns="http://www.w3.org/2000/svg">
<path d="M20 11.0368C20 12.8027 20 14.5686 20 16.3344C20 17.3645 19.7802 18.3211 19.2674 19.2776C18.3883 20.8963 16.9963 21.7057 15.2381 21.9264C14.1392 22.0736 12.967 22 11.8681 22C9.81685 22 7.69231 22 5.64103 22C2.63736 22 0.3663 19.8662 0.14652 16.8495C0 16.4816 0 16.1873 0 15.8194C0 12.5084 0 9.12375 0 5.73913C0 4.63545 0.21978 3.60535 0.805861 2.64883C1.68498 1.17726 2.9304 0.367893 4.61539 0.0735786C5.05495 0 5.49451 0 6.00733 0C8.79121 0 11.5751 0 14.359 0C15.4579 0 16.4835 0.294314 17.3626 0.809365C18.9011 1.76589 19.6337 3.23746 19.9267 5.00334C20 5.44482 20 5.81271 20 6.25418C20 7.79933 20 9.41806 20 11.0368ZM18.2418 11.0368C18.2418 9.41806 18.2418 7.72575 18.2418 6.10702C18.2418 5.73913 18.2418 5.37124 18.1685 5.00334C17.9487 3.82609 17.3626 2.79599 16.2637 2.20736C15.6044 1.83946 14.8718 1.76589 14.1392 1.76589C11.3553 1.76589 8.57143 1.76589 5.78755 1.76589C5.49451 1.76589 5.20147 1.76589 4.90842 1.83946C3.663 1.98662 2.63736 2.64883 2.12454 3.82609C1.8315 4.41472 1.75824 5.00334 1.75824 5.59197C1.75824 9.19732 1.75824 12.8027 1.75824 16.408C1.75824 16.6288 1.75824 16.7759 1.8315 16.9967C2.05128 18.3946 2.71062 19.4247 4.0293 19.9398C4.61538 20.1605 5.20147 20.2341 5.86081 20.2341C8.49817 20.2341 11.1355 20.2341 13.6996 20.2341C13.9927 20.2341 14.359 20.2341 14.652 20.2341C16.7766 20.087 18.1685 18.6154 18.2418 16.4816C18.315 14.6421 18.2418 12.8027 18.2418 11.0368Z" fill="#3F7874"/>
<path d="M10.0366 10.2274C11.3553 10.2274 12.6007 10.2274 13.9194 10.2274C14.2124 10.2274 14.4322 10.301 14.652 10.4481C15.0916 10.8896 14.945 11.6254 14.359 11.8461C14.2124 11.9197 14.1392 11.9197 13.9927 11.9197C11.4286 11.9197 8.86446 11.9197 6.22709 11.9197C6.00731 11.9197 5.86079 11.8461 5.64101 11.7725C5.34797 11.5518 5.20145 11.1839 5.27471 10.816C5.34797 10.4481 5.71427 10.1538 6.08057 10.1538C6.59339 10.1538 7.10621 10.1538 7.61903 10.1538C8.42489 10.2274 9.23076 10.2274 10.0366 10.2274Z" fill="#3F7874"/>
<path d="M10.0366 16.5552C8.71794 16.5552 7.39926 16.5552 6.15384 16.5552C5.49449 16.5552 5.12819 16.0401 5.27471 15.4515C5.34797 15.1572 5.56776 14.9365 5.8608 14.8629C6.00732 14.8629 6.15384 14.7893 6.30036 14.7893C8.7912 14.7893 11.282 14.7893 13.8461 14.7893C14.359 14.7893 14.7253 15.01 14.7985 15.3779C15.0183 15.9666 14.5787 16.4816 13.9927 16.4816C13.1135 16.4816 12.3077 16.4816 11.4286 16.4816C10.989 16.5552 10.4762 16.5552 10.0366 16.5552Z" fill="#D89036"/>
<path d="M7.5458 5.66562C8.05862 5.66562 8.57144 5.66562 9.08426 5.66562C9.45056 5.66562 9.81686 5.95993 9.89012 6.25425C9.96338 6.62214 9.89012 6.99003 9.59708 7.21077C9.45056 7.35793 9.23078 7.35793 9.011 7.35793C8.05862 7.35793 7.10624 7.35793 6.15386 7.35793C5.64104 7.35793 5.20148 6.99003 5.20148 6.47498C5.20148 5.95993 5.56778 5.59204 6.15386 5.59204C6.59342 5.59204 7.10624 5.59204 7.5458 5.66562C7.5458 5.59204 7.5458 5.59204 7.5458 5.66562Z" fill="#3F7874"/>
</svg>
