<svg width="23" height="23" viewBox="0 0 23 23" fill="none" xmlns="http://www.w3.org/2000/svg">
<path d="M21.9616 12.9763C21.8124 11.6339 21.6632 10.2915 21.3649 8.65085C21.0666 7.01017 20.8429 5.44407 20.2463 3.95254C19.948 3.20678 19.5005 2.23729 18.6802 1.49153C17.9344 0.820339 16.9649 0.447458 15.6971 0.223729C14.131 0 12.6395 0 11.0734 0C10.9243 0 10.7751 0 10.626 0C10.4768 0 10.3277 0 10.1785 0C10.0293 0 9.80562 0 9.65647 0C8.53782 0 7.27003 0.0745763 6.00223 0.298305C4.06325 0.671186 2.72087 1.71525 1.97511 3.50508C1.6768 4.25085 1.45308 4.99661 1.22935 5.89153C0.78189 7.75593 0.483585 9.62034 0.259856 11.4102C0.036127 12.9763 -0.113026 14.6915 0.110703 16.4068C0.334432 18.0475 0.856466 19.1661 1.82596 20.061C2.57172 20.7322 3.46664 21.1797 4.65986 21.478C6.30053 21.8508 7.94121 21.9254 9.43274 22C11.4463 22.0746 13.1616 22 14.7277 21.9254C16.07 21.7763 17.1141 21.6271 18.0836 21.2542C20.0971 20.583 21.3649 19.1661 21.7378 17.078C22.0361 15.8847 22.1107 14.6169 21.9616 12.9763ZM20.0226 16.7051C19.7243 18.122 18.9039 19.0169 17.5616 19.4644C16.8158 19.7627 15.9209 19.9119 14.8022 19.9864C13.7582 20.061 12.7141 20.1356 11.3717 20.1356C10.5514 20.1356 9.73104 20.1356 8.9107 20.1356C7.56833 20.1356 6.07681 19.9864 4.65986 19.539C2.87003 18.9424 2.04969 17.9729 1.82596 15.9593C1.60223 14.2441 1.82596 12.4542 2.04969 10.9627L2.12426 10.5153C2.42257 9.02373 2.6463 7.38305 3.01918 5.81695C3.16833 5.22034 3.31748 4.69831 3.54121 4.17627C4.06325 2.90847 5.03274 2.16271 6.44969 1.93898C7.56833 1.78983 8.68697 1.78983 9.73104 1.78983C9.95477 1.78983 10.1039 1.78983 10.3277 1.78983C10.4768 1.78983 10.626 1.78983 10.8497 1.78983H11.0734C11.4463 1.78983 11.7446 1.78983 12.1175 1.78983H12.2666C13.087 1.78983 13.8327 1.78983 14.6531 1.86441C15.1005 1.93898 15.7717 2.01356 16.3683 2.16271C17.3378 2.46102 18.0836 3.20678 18.531 4.32542C18.9785 5.44407 19.2022 6.71186 19.426 7.83051C19.6497 9.32203 19.948 11.0373 20.0971 12.8271C20.2463 13.9458 20.3209 15.3627 20.0226 16.7051Z" fill="#3F7874"/>
<path d="M14.0848 4.47465C13.6373 4.54923 13.339 4.92211 13.339 5.44414C13.2644 6.33906 12.817 7.01024 12.0712 7.38313C11.2509 7.75601 10.4305 7.68143 9.68478 7.08482C9.16274 6.63736 8.86444 6.11533 8.78986 5.36957C8.78986 4.84753 8.41698 4.47465 7.89495 4.47465C7.89495 4.47465 7.89495 4.47465 7.82037 4.47465C7.59664 4.47465 7.37291 4.54923 7.22376 4.77296C7.07461 4.99669 7.00003 5.22041 7.00003 5.51872C7.00003 5.5933 7.00003 5.5933 7.00003 5.66787C7.00003 5.66787 7.00003 5.74245 7.00003 5.81703C7.22376 7.90516 8.93901 9.47126 11.1017 9.47126H11.1763C11.2509 9.47126 11.3255 9.47126 11.4746 9.47126C13.5627 9.24753 15.0543 7.60686 15.1288 5.51872C15.1288 5.22041 15.0543 4.99669 14.8305 4.77296C14.6068 4.47465 14.3831 4.40008 14.0848 4.47465Z" fill="#D89036"/>
</svg>
