<svg width="22" height="26" viewBox="0 0 22 26" fill="none" xmlns="http://www.w3.org/2000/svg">
<path d="M11.3212 0C11.8029 0.0816993 12.1241 0.408497 12.4453 0.735294C14.0511 2.20588 16.0584 3.02288 18.2263 3.26797C18.8686 3.34967 19.5912 3.43137 20.2336 3.43137C21.1971 3.43137 21.9197 4.08497 21.9197 4.98366C21.9197 6.61765 22 8.16993 22 9.80392C21.9197 11.7647 21.7591 13.8072 21.1971 15.6863C20.073 19.4444 17.7445 22.1405 14.1314 23.8562C13.3285 24.2647 12.5255 24.5915 11.6423 24.9183C11.2409 25.0817 10.8394 25.0817 10.438 24.9183C8.67153 24.3464 6.9854 23.5294 5.45985 22.3856C3.13139 20.6699 1.68613 18.4641 0.883212 15.768C0.40146 14.2974 0.240876 12.8268 0.080292 11.2745C0 10.049 0 8.74183 0 7.51634C0 6.69935 0 5.88235 0 5.06536C0 4.08497 0.722628 3.43137 1.68613 3.43137C3.53285 3.43137 5.37956 3.10457 7.06569 2.28758C8.0292 1.79739 8.91241 1.22549 9.63504 0.490196C9.87591 0.245098 10.1971 0.0816993 10.5182 0C10.8394 0 11.0803 0 11.3212 0ZM1.60584 8.49673C1.60584 9.23203 1.60584 9.96732 1.60584 10.7026C1.68613 12.3366 1.92701 13.8889 2.40876 15.4412C2.9708 17.1569 3.77372 18.6274 5.05839 19.9346C6.66423 21.5686 8.67153 22.6307 10.8394 23.366C11 23.4477 11.1606 23.366 11.2409 23.366C12.2847 23.0392 13.2482 22.549 14.2117 22.0588C16.6204 20.6699 18.3066 18.7908 19.3504 16.2582C20.1533 14.2974 20.3942 12.1732 20.4745 10.049C20.5547 8.41503 20.4745 6.78105 20.4745 5.14706C20.3942 4.98366 20.3139 4.90196 20.073 4.90196C19.3504 4.90196 18.6277 4.82026 17.9051 4.73856C15.3358 4.41176 13.1679 3.43137 11.2409 1.71569C11 1.47059 11 1.47059 10.6788 1.71569C9.55474 2.77778 8.27007 3.59477 6.74453 4.08497C5.13869 4.65686 3.53285 4.90196 1.84672 4.90196C1.68613 4.90196 1.60584 4.98366 1.60584 5.22876C1.68613 6.29085 1.52555 7.43464 1.60584 8.49673Z" fill="#3F7874"/>
<path d="M11 18.0556C10.5182 18.0556 10.1168 18.0556 9.63502 18.0556C8.99269 18.0556 8.67152 17.7288 8.67152 17.0752C8.67152 16.4216 8.67152 15.768 8.67152 15.1144C8.67152 14.7876 8.67152 14.7876 8.35035 14.7876C7.70801 14.7876 6.98539 14.7876 6.34305 14.7876C5.8613 14.7876 5.45984 14.5425 5.45984 13.9706C5.45984 12.9902 5.45984 11.9282 5.45984 10.9478C5.45984 10.3759 5.78101 10.1308 6.34305 10.1308C6.98539 10.1308 7.70801 10.1308 8.35035 10.1308C8.59123 10.1308 8.67152 10.0491 8.67152 9.80397C8.67152 9.15037 8.67152 8.41508 8.67152 7.76149C8.67152 7.27129 8.91239 6.94449 9.39415 6.86279C9.8759 6.86279 10.4379 6.86279 10.9197 6.86279C11.4014 6.86279 11.8029 6.86279 12.2847 6.86279C12.927 6.86279 13.2482 7.18959 13.2482 7.84319C13.2482 8.49678 13.2482 9.15037 13.2482 9.80397C13.2482 10.0491 13.3285 10.1308 13.5693 10.1308C14.2117 10.1308 14.9343 10.1308 15.5766 10.1308C16.1387 10.1308 16.4598 10.3759 16.4598 10.9478C16.4598 11.5197 16.4598 12.0099 16.4598 12.5817C16.4598 12.9902 16.4598 13.3987 16.4598 13.8072C16.4598 14.4608 16.1387 14.7876 15.4963 14.7876C14.854 14.7876 14.2117 14.7876 13.5693 14.7876C13.3285 14.7876 13.2482 14.8693 13.2482 15.1144C13.2482 15.768 13.2482 16.5033 13.2482 17.1569C13.2482 17.7288 12.927 18.0556 12.3649 18.0556C11.9635 18.0556 11.4817 18.0556 11 18.0556ZM11.7226 15.1144C11.7226 14.7876 11.7226 14.4608 11.7226 14.0523C11.7226 13.4804 12.0438 13.1536 12.6058 13.1536C13.2482 13.1536 13.9708 13.1536 14.6131 13.1536C14.7737 13.1536 14.9343 13.0719 14.9343 12.9085C14.9343 12.5817 14.9343 12.255 14.9343 11.9282C14.9343 11.6831 14.854 11.6831 14.6934 11.6831C14.0511 11.6831 13.3285 11.6831 12.6861 11.6831C12.1241 11.6831 11.8029 11.3563 11.8029 10.7844C11.8029 10.1308 11.8029 9.39547 11.8029 8.74188C11.8029 8.49678 11.7226 8.41508 11.4817 8.41508C11.1606 8.41508 10.8394 8.41508 10.5182 8.41508C10.2774 8.41508 10.2774 8.49678 10.2774 8.66018C10.2774 9.39547 10.2774 10.0491 10.2774 10.7844C10.2774 11.3563 9.95619 11.6831 9.39415 11.6831C8.75181 11.6831 8.02918 11.6831 7.38685 11.6831C7.14597 11.6831 7.06568 11.7648 7.06568 12.0099C7.06568 12.3366 7.06568 12.6634 7.06568 12.9902C7.06568 13.2353 7.14597 13.2353 7.30655 13.2353C8.02918 13.2353 8.67152 13.2353 9.39415 13.2353C9.95619 13.2353 10.2774 13.5621 10.2774 14.134C10.2774 14.8693 10.2774 15.5229 10.2774 16.2582C10.2774 16.4216 10.3576 16.5033 10.5182 16.5033C10.8394 16.5033 11.1606 16.5033 11.562 16.5033C11.7226 16.5033 11.8029 16.4216 11.8029 16.2582C11.7226 15.8497 11.7226 15.5229 11.7226 15.1144Z" fill="#D89036"/>
</svg>
