<svg width="24" height="25" viewBox="0 0 24 25" fill="none" xmlns="http://www.w3.org/2000/svg">
<path d="M23.6821 22.2517C22.4901 22.2517 21.3775 22.2517 20.1854 22.2517C19.8675 22.2517 19.8675 22.2517 19.947 21.9338C20.5828 20.3444 20.6623 18.755 20.3444 17.0861C19.6291 13.5894 16.6093 10.7285 13.1126 10.3311C12.8742 10.3311 12.7947 10.2517 12.7947 10.0132C12.7947 9.13907 12.7947 8.18543 12.7947 7.31126C12.7947 6.91391 12.7947 6.91391 13.1921 6.91391C14.2252 6.91391 15.1788 6.99338 16.2119 6.83444C19.1523 6.43709 21.457 3.89404 21.457 0.953642C21.457 0.317881 21.0596 0 20.5033 0C19.3907 0 18.2781 0 17.0861 0C14.543 0.0794702 12.7152 1.27152 11.6026 3.57616C11.4437 3.89404 11.4437 3.89404 11.2848 3.65563C10.3311 2.62252 9.0596 1.90728 7.62914 1.74834C6.19868 1.66887 4.76821 1.74834 3.33775 1.74834C2.9404 1.74834 2.62252 2.1457 2.62252 2.54305C2.62252 2.78146 2.62252 3.01987 2.62252 3.25828C3.01987 6.51656 5.80132 8.74172 8.66225 8.66225C9.37748 8.66225 10.1722 8.66225 10.8874 8.66225C11.0464 8.66225 11.1258 8.74172 11.1258 8.90066C11.1258 9.29801 11.1258 9.77483 11.1258 10.1722C11.1258 10.3311 11.0464 10.4106 10.8874 10.4106C10.649 10.4106 10.4106 10.4901 10.1722 10.5695C5.00662 11.6026 2.06623 17.0861 3.97351 21.9338C4.13245 22.2517 4.13245 22.2517 3.81457 22.2517C2.62252 22.2517 1.43046 22.2517 0.317881 22.2517C0.0794702 22.2517 0 22.3311 0 22.5695C0 22.9669 0 23.2848 0 23.6821C0 24.0795 0 24.0795 0.397351 24.0795C4.29139 24.0795 8.10596 24.0795 12 24.0795C14.9404 24.0795 17.9603 24.0795 20.9007 24.0795C21.8543 24.0795 22.8079 24.0795 23.6821 24.0795C23.9205 24.0795 24 24 24 23.7616C24 23.3642 24 23.0464 24 22.649C24 22.3311 23.9205 22.2517 23.6821 22.2517ZM13.0331 4.84768C13.5894 3.25828 14.6225 2.22517 16.2914 1.82781C17.0066 1.66887 17.6424 1.74834 18.3576 1.74834C18.6755 1.74834 18.9934 1.74834 19.3113 1.74834C19.5497 1.74834 19.5497 1.82781 19.5497 1.98676C19.1523 3.25828 18.3576 4.13245 17.1656 4.68874C16.3709 5.00662 15.5762 5.08609 14.7815 5.08609C14.6225 5.08609 14.543 5.08609 14.3841 5.08609C13.9868 5.08609 13.6689 5.08609 13.2715 5.08609C13.0331 5.16556 12.9536 5.08609 13.0331 4.84768ZM10.7285 6.83444C10.3311 6.83444 10.0132 6.83444 9.61589 6.83444C8.98013 6.83444 8.34437 6.91391 7.70861 6.75497C6.1192 6.35762 5.00662 5.40397 4.5298 3.81457C4.37086 3.49669 4.45033 3.49669 4.76821 3.49669C5.64238 3.49669 6.51656 3.49669 7.39073 3.49669C9.0596 3.65563 10.649 5.00662 11.0464 6.59603C11.0464 6.83444 10.9669 6.83444 10.7285 6.83444ZM18.0397 22.0132C17.9603 22.1722 17.8013 22.2517 17.6424 22.2517H9.93377H6.43709C6.19868 22.2517 6.11921 22.1722 6.03973 22.0132C5.56291 21.1391 5.3245 20.2649 5.24503 19.2318C5.08609 17.4834 5.56291 15.9735 6.6755 14.6225C8.2649 12.6358 10.3311 11.7616 12.8742 12.0795C15.8146 12.3974 18.0397 14.4636 18.6755 17.245C18.9934 18.9139 18.8344 20.5033 18.0397 22.0132Z" fill="#3F7874"/>
<path d="M14.543 20.265C14.3046 19.1524 13.2715 18.2782 12.1589 18.2782C11.6026 18.2782 11.3642 18.0398 11.2053 17.6424C11.1258 17.2451 11.3642 16.7683 11.7616 16.6888C12.2384 16.5299 12.7152 16.7683 12.7947 17.1656C12.8742 17.404 12.9536 17.4835 13.192 17.4835C13.5894 17.4835 13.9073 17.4835 14.3046 17.4835C14.6225 17.4835 14.6225 17.404 14.6225 17.0862C14.4636 16.212 13.9867 15.4967 13.192 15.0994C12.9536 15.0199 12.9536 14.861 12.9536 14.702C12.9536 13.9868 12.9536 13.9868 12.2384 13.9868C12 13.9868 11.6821 13.9868 11.4437 13.9868C11.2848 13.9868 11.2053 14.0663 11.2053 14.2252C11.2848 14.7815 11.1258 15.0199 10.5695 15.3378C9.53642 15.8941 9.21854 17.0067 9.53642 18.1193C9.8543 19.1524 10.8079 19.8676 11.9205 19.9471C12.5563 19.9471 12.9536 20.4239 12.7947 20.9802C12.7947 21.0597 12.7152 21.1391 12.7152 21.2186H14.543C14.6225 20.9007 14.6225 20.5828 14.543 20.265Z" fill="#D89036"/>
</svg>
