<svg width="20" height="19" viewBox="0 0 20 19" fill="none" xmlns="http://www.w3.org/2000/svg">
<path d="M16.3611 9.61254C16.3611 9.14134 16.3139 8.62301 16.1726 8.10469C16.0783 7.6806 16.2668 7.35076 16.6438 7.25652C16.9736 7.16228 17.3035 7.39788 17.3977 7.77484C17.8218 9.56542 17.6804 11.3089 16.9265 12.9581C15.937 15.2199 14.2406 16.822 11.8846 17.5759C8.68043 18.5654 5.80609 17.8586 3.35583 15.5026C1.94221 14.1361 1.18829 12.3926 0.999805 10.4136C0.669962 7.11516 2.41342 3.91097 5.28776 2.356C6.65426 1.60207 8.16211 1.27223 9.71708 1.31935C10.2354 1.31935 10.7066 1.41359 11.2249 1.55495C11.649 1.69631 11.8375 2.02615 11.7433 2.356C11.649 2.73296 11.3192 2.92144 10.9422 2.8272C8.86892 2.40312 6.93698 2.73296 5.24064 3.95809C3.63855 5.1361 2.64902 6.69108 2.3663 8.67013C2.03645 11.1204 2.79038 13.1937 4.58096 14.8429C5.75897 15.9267 7.12546 16.5392 8.72755 16.6806C11.6961 16.8691 13.9108 15.644 15.4187 13.1466C16.0783 12.1099 16.3611 10.9319 16.3611 9.61254Z" fill="#236561"/>
<path d="M12.5914 4.33518C12.5914 3.95821 12.5914 3.58125 12.5914 3.20429C12.5914 3.0158 12.6857 2.87444 12.827 2.73308C13.6752 1.88491 14.4762 1.08387 15.3244 0.2357C15.7014 -0.141264 16.2668 -0.047023 16.4553 0.518422C16.5967 0.989626 16.7851 1.46083 16.9265 1.93203C16.9736 2.0734 17.0207 2.12052 17.1621 2.16764C17.6333 2.309 18.0574 2.45036 18.5286 2.63884C19.094 2.82732 19.1883 3.34565 18.8113 3.76973C18.0103 4.57078 17.1621 5.41895 16.3611 6.21999C16.1726 6.40847 15.937 6.45559 15.6543 6.45559C15.0417 6.45559 14.382 6.45559 13.7694 6.45559C13.6281 6.45559 13.4867 6.50272 13.3925 6.59696C12.2616 7.72785 11.1307 8.85874 10.0469 9.94251C9.71708 10.2723 9.29299 10.3195 9.01027 10.0367C8.72755 9.75402 8.77467 9.32994 9.10451 9.0001C10.2354 7.86921 11.3192 6.78544 12.4501 5.65455C12.5914 5.51319 12.6385 5.41895 12.6385 5.23046C12.5914 4.94774 12.5914 4.6179 12.5914 4.33518ZM14.759 5.13622C14.9946 5.13622 15.183 5.13622 15.4186 5.13622C15.5129 5.13622 15.56 5.13622 15.6071 5.04198C16.0783 4.57078 16.5495 4.09957 17.0679 3.58125C17.1621 3.48701 17.1621 3.43989 17.0207 3.43989C16.7851 3.34565 16.5495 3.25141 16.2668 3.20429C16.0312 3.11005 15.8899 2.96868 15.7956 2.73308C15.7014 2.49748 15.6071 2.26188 15.56 2.02628C15.5129 1.88491 15.5129 1.88491 15.3715 1.97915C14.9003 2.45036 14.4291 2.92156 13.9579 3.39277C13.9108 3.43989 13.8637 3.53413 13.8637 3.62837C13.8637 4.09957 13.8637 4.52366 13.8637 4.99486C13.8637 5.13622 13.9108 5.13622 14.005 5.13622C14.2878 5.0891 14.5234 5.13622 14.759 5.13622Z" fill="#236561"/>
<path d="M9.34013 12.6284C10.8951 12.6284 12.1674 11.4504 12.2616 9.94251C12.2616 9.84826 12.2616 9.75402 12.3087 9.65978C12.3558 9.28282 12.5914 9.04722 12.9684 9.04722C13.2982 9.04722 13.581 9.32994 13.581 9.7069C13.581 10.7907 13.204 11.7331 12.4972 12.5341C11.6019 13.4765 10.5181 13.9477 9.19876 13.9477C7.12547 13.9006 5.33489 12.2043 5.09929 10.131C4.86369 7.91633 6.41866 5.70167 8.91604 5.41895C9.0574 5.41895 9.24588 5.41895 9.38725 5.41895C9.71709 5.41895 9.99981 5.70167 9.99981 6.03151C9.99981 6.36135 9.76421 6.64408 9.38725 6.6912C8.86892 6.73832 8.39772 6.78544 7.92651 7.06816C6.84274 7.63361 6.18306 8.90586 6.37154 10.0839C6.60714 11.4032 7.54955 12.3928 8.8218 12.6284C9.01028 12.6284 9.15164 12.6284 9.34013 12.6284Z" fill="#236561"/>
</svg>
