<svg width="16" height="16" viewBox="0 0 16 16" fill="none" xmlns="http://www.w3.org/2000/svg">
<path d="M15.3642 6.34777C15.3642 5.24927 14.9248 4.37047 14.0773 3.67998C12.9788 2.83257 11.7548 1.89099 10.2483 0.729719C8.99284 -0.24324 7.26662 -0.24324 6.01119 0.729719C4.88131 1.60852 3.53172 2.61287 2.21351 3.67998C1.3661 4.37047 0.926697 5.24927 0.926697 6.34777C0.926697 7.22658 0.926697 8.41924 0.926697 9.6119V12.1855C0.926697 12.4366 0.926697 12.6249 0.989468 12.7819C1.30333 14.4453 2.71569 15.5752 4.41052 15.5752C4.88131 15.5752 5.32071 15.5752 5.79149 15.5752C6.19951 15.5752 6.57614 15.5752 6.98415 15.5752H11.8803C12.0373 15.5752 12.2256 15.5752 12.3825 15.5438C14.0773 15.3241 15.3642 13.8804 15.3642 12.1541C15.3642 10.6476 15.3642 7.91706 15.3642 6.34777ZM14.0773 12.1541C14.0773 13.284 13.2299 14.1942 12.1 14.3198C11.9745 14.3198 11.8176 14.3512 11.6606 14.3512H7.07831C6.19951 14.3512 5.32071 14.3512 4.4419 14.3512C3.97112 14.3512 3.59449 14.257 3.24924 14.0373C2.55876 13.5979 2.18213 12.9702 2.18213 12.1855C2.18213 10.5849 2.18213 7.82291 2.18213 6.41055C2.18213 5.68867 2.49599 5.09234 3.06093 4.65294C4.2222 3.74275 5.38348 2.86395 6.54475 1.95377L6.73307 1.79684C7.14108 1.48298 7.64325 1.29466 8.11404 1.29466C8.58483 1.29466 9.05561 1.45159 9.46363 1.76545C10.6563 2.67564 11.9117 3.6486 13.2613 4.71571C13.7949 5.12373 14.046 5.68867 14.046 6.41055C14.0773 8.01122 14.0773 10.679 14.0773 12.1541Z" fill="#236561"/>
<path d="M10.7191 10.7417C9.93446 10.7417 9.14982 10.7417 8.36517 10.7417H7.04697C6.5448 10.7417 6.07401 10.7417 5.57184 10.7417C5.25798 10.7417 5.00689 10.93 4.94412 11.2125C4.91273 11.4008 4.94412 11.6205 5.06966 11.746C5.19521 11.903 5.38352 11.9971 5.57184 11.9971C5.94847 11.9971 6.29371 11.9971 6.67034 11.9971C6.92142 11.9971 7.17251 11.9971 7.39221 11.9971H8.11408H8.80457C9.43229 11.9971 10.06 11.9971 10.6877 11.9971C10.876 11.9971 11.033 11.9344 11.1585 11.8088C11.284 11.6833 11.3468 11.5263 11.3154 11.338C11.3468 10.9928 11.0643 10.7417 10.7191 10.7417Z" fill="#236561"/>
</svg>
