<svg width="440" height="345" viewBox="0 0 440 345" fill="none" xmlns="http://www.w3.org/2000/svg">
<path d="M12.7443 -15H-14.9102V12.6438H12.7443V-15Z" stroke="white" stroke-width="0.5" stroke-miterlimit="10"/>
<path d="M40.3986 -15H12.7441V12.6438H40.3986V-15Z" stroke="white" stroke-width="0.5" stroke-miterlimit="10"/>
<path d="M68.1164 -15H40.4619V12.6438H68.1164V-15Z" stroke="white" stroke-width="0.5" stroke-miterlimit="10"/>
<path d="M95.7707 -15H68.1162V12.6438H95.7707V-15Z" stroke="white" stroke-width="0.5" stroke-miterlimit="10"/>
<path d="M123.425 -15H95.7705V12.6438H123.425V-15Z" stroke="white" stroke-width="0.5" stroke-miterlimit="10"/>
<path d="M151.143 -15H123.488V12.6438H151.143V-15Z" stroke="white" stroke-width="0.5" stroke-miterlimit="10"/>
<path d="M178.797 -15H151.143V12.6438H178.797V-15Z" stroke="white" stroke-width="0.5" stroke-miterlimit="10"/>
<path d="M206.515 -15H178.86V12.6438H206.515V-15Z" stroke="white" stroke-width="0.5" stroke-miterlimit="10"/>
<path d="M234.169 -15H206.515V12.6438H234.169V-15Z" stroke="white" stroke-width="0.5" stroke-miterlimit="10"/>
<path d="M261.824 -15H234.169V12.6438H261.824V-15Z" stroke="white" stroke-width="0.5" stroke-miterlimit="10"/>
<path d="M289.541 -15H261.887V12.6438H289.541V-15Z" stroke="white" stroke-width="0.5" stroke-miterlimit="10"/>
<path d="M317.196 -15H289.542V12.6438H317.196V-15Z" stroke="white" stroke-width="0.5" stroke-miterlimit="10"/>
<path d="M344.913 -15H317.259V12.6438H344.913V-15Z" stroke="white" stroke-width="0.5" stroke-miterlimit="10"/>
<path d="M372.568 -15H344.914V12.6438H372.568V-15Z" stroke="white" stroke-width="0.5" stroke-miterlimit="10"/>
<path d="M400.285 -15H372.631V12.6438H400.285V-15Z" stroke="white" stroke-width="0.5" stroke-miterlimit="10"/>
<path d="M427.94 -15H400.286V12.6438H427.94V-15Z" stroke="white" stroke-width="0.5" stroke-miterlimit="10"/>
<path d="M455.595 -15H427.94V12.6438H455.595V-15Z" stroke="white" stroke-width="0.5" stroke-miterlimit="10"/>
<path d="M12.7443 12.7069H-14.9102V40.3506H12.7443V12.7069Z" stroke="white" stroke-width="0.5" stroke-miterlimit="10"/>
<path d="M40.3986 12.7069H12.7441V40.3506H40.3986V12.7069Z" stroke="white" stroke-width="0.5" stroke-miterlimit="10"/>
<path d="M68.1164 12.7069H40.4619V40.3506H68.1164V12.7069Z" stroke="white" stroke-width="0.5" stroke-miterlimit="10"/>
<path d="M95.7707 12.7069H68.1162V40.3506H95.7707V12.7069Z" stroke="white" stroke-width="0.5" stroke-miterlimit="10"/>
<path d="M123.425 12.7069H95.7705V40.3507H123.425V12.7069Z" stroke="white" stroke-width="0.5" stroke-miterlimit="10"/>
<path d="M151.143 12.7069H123.488V40.3507H151.143V12.7069Z" stroke="white" stroke-width="0.5" stroke-miterlimit="10"/>
<path d="M178.797 12.7069H151.143V40.3507H178.797V12.7069Z" stroke="white" stroke-width="0.5" stroke-miterlimit="10"/>
<path d="M206.515 12.7069H178.86V40.3507H206.515V12.7069Z" stroke="white" stroke-width="0.5" stroke-miterlimit="10"/>
<path d="M234.169 12.7069H206.515V40.3507H234.169V12.7069Z" stroke="white" stroke-width="0.5" stroke-miterlimit="10"/>
<path d="M261.824 12.7069H234.169V40.3506H261.824V12.7069Z" stroke="white" stroke-width="0.5" stroke-miterlimit="10"/>
<path d="M289.541 12.7069H261.887V40.3507H289.541V12.7069Z" stroke="white" stroke-width="0.5" stroke-miterlimit="10"/>
<path d="M317.196 12.7069H289.542V40.3506H317.196V12.7069Z" stroke="white" stroke-width="0.5" stroke-miterlimit="10"/>
<path d="M344.913 12.7069H317.259V40.3507H344.913V12.7069Z" stroke="white" stroke-width="0.5" stroke-miterlimit="10"/>
<path d="M372.568 12.7069H344.914V40.3506H372.568V12.7069Z" stroke="white" stroke-width="0.5" stroke-miterlimit="10"/>
<path d="M400.285 12.7069H372.631V40.3507H400.285V12.7069Z" stroke="white" stroke-width="0.5" stroke-miterlimit="10"/>
<path d="M427.94 12.7069H400.286V40.3506H427.94V12.7069Z" stroke="white" stroke-width="0.5" stroke-miterlimit="10"/>
<path d="M455.595 12.7069H427.94V40.3507H455.595V12.7069Z" stroke="white" stroke-width="0.5" stroke-miterlimit="10"/>
<path d="M12.7443 40.3506H-14.9102V67.9944H12.7443V40.3506Z" stroke="white" stroke-width="0.5" stroke-miterlimit="10"/>
<path d="M40.3986 40.3506H12.7441V67.9944H40.3986V40.3506Z" stroke="white" stroke-width="0.5" stroke-miterlimit="10"/>
<path d="M68.1164 40.3506H40.4619V67.9944H68.1164V40.3506Z" stroke="white" stroke-width="0.5" stroke-miterlimit="10"/>
<path d="M95.7707 40.3506H68.1162V67.9944H95.7707V40.3506Z" stroke="white" stroke-width="0.5" stroke-miterlimit="10"/>
<path d="M123.425 40.3506H95.7705V67.9944H123.425V40.3506Z" stroke="white" stroke-width="0.5" stroke-miterlimit="10"/>
<path d="M151.143 40.3506H123.488V67.9944H151.143V40.3506Z" stroke="white" stroke-width="0.5" stroke-miterlimit="10"/>
<path d="M178.797 40.3506H151.143V67.9944H178.797V40.3506Z" stroke="white" stroke-width="0.5" stroke-miterlimit="10"/>
<path d="M206.515 40.3506H178.86V67.9944H206.515V40.3506Z" stroke="white" stroke-width="0.5" stroke-miterlimit="10"/>
<path d="M234.169 40.3506H206.515V67.9944H234.169V40.3506Z" stroke="white" stroke-width="0.5" stroke-miterlimit="10"/>
<path d="M261.824 40.3506H234.169V67.9944H261.824V40.3506Z" stroke="white" stroke-width="0.5" stroke-miterlimit="10"/>
<path d="M289.541 40.3506H261.887V67.9944H289.541V40.3506Z" stroke="white" stroke-width="0.5" stroke-miterlimit="10"/>
<path d="M317.196 40.3506H289.542V67.9944H317.196V40.3506Z" stroke="white" stroke-width="0.5" stroke-miterlimit="10"/>
<path d="M344.913 40.3506H317.259V67.9944H344.913V40.3506Z" stroke="white" stroke-width="0.5" stroke-miterlimit="10"/>
<path d="M372.568 40.3506H344.914V67.9944H372.568V40.3506Z" stroke="white" stroke-width="0.5" stroke-miterlimit="10"/>
<path d="M400.285 40.3506H372.631V67.9944H400.285V40.3506Z" stroke="white" stroke-width="0.5" stroke-miterlimit="10"/>
<path d="M427.94 40.3506H400.286V67.9944H427.94V40.3506Z" stroke="white" stroke-width="0.5" stroke-miterlimit="10"/>
<path d="M455.595 40.3506H427.94V67.9944H455.595V40.3506Z" stroke="white" stroke-width="0.5" stroke-miterlimit="10"/>
<path d="M12.7443 68.0575H-14.9102V95.7013H12.7443V68.0575Z" stroke="white" stroke-width="0.5" stroke-miterlimit="10"/>
<path d="M40.3986 68.0575H12.7441V95.7013H40.3986V68.0575Z" stroke="white" stroke-width="0.5" stroke-miterlimit="10"/>
<path d="M68.1164 68.0575H40.4619V95.7013H68.1164V68.0575Z" stroke="white" stroke-width="0.5" stroke-miterlimit="10"/>
<path d="M95.7707 68.0575H68.1162V95.7013H95.7707V68.0575Z" stroke="white" stroke-width="0.5" stroke-miterlimit="10"/>
<path d="M123.425 68.0575H95.7705V95.7013H123.425V68.0575Z" stroke="white" stroke-width="0.5" stroke-miterlimit="10"/>
<path d="M151.143 68.0575H123.488V95.7013H151.143V68.0575Z" stroke="white" stroke-width="0.5" stroke-miterlimit="10"/>
<path d="M178.797 68.0575H151.143V95.7013H178.797V68.0575Z" stroke="white" stroke-width="0.5" stroke-miterlimit="10"/>
<path d="M206.515 68.0575H178.86V95.7013H206.515V68.0575Z" stroke="white" stroke-width="0.5" stroke-miterlimit="10"/>
<path d="M234.169 68.0575H206.515V95.7013H234.169V68.0575Z" stroke="white" stroke-width="0.5" stroke-miterlimit="10"/>
<path d="M261.824 68.0575H234.169V95.7013H261.824V68.0575Z" stroke="white" stroke-width="0.5" stroke-miterlimit="10"/>
<path d="M289.541 68.0575H261.887V95.7013H289.541V68.0575Z" stroke="white" stroke-width="0.5" stroke-miterlimit="10"/>
<path d="M317.196 68.0575H289.542V95.7013H317.196V68.0575Z" stroke="white" stroke-width="0.5" stroke-miterlimit="10"/>
<path d="M344.913 68.0575H317.259V95.7013H344.913V68.0575Z" stroke="white" stroke-width="0.5" stroke-miterlimit="10"/>
<path d="M372.568 68.0575H344.914V95.7013H372.568V68.0575Z" stroke="white" stroke-width="0.5" stroke-miterlimit="10"/>
<path d="M400.285 68.0575H372.631V95.7013H400.285V68.0575Z" stroke="white" stroke-width="0.5" stroke-miterlimit="10"/>
<path d="M427.94 68.0575H400.286V95.7013H427.94V68.0575Z" stroke="white" stroke-width="0.5" stroke-miterlimit="10"/>
<path d="M455.595 68.0575H427.94V95.7013H455.595V68.0575Z" stroke="white" stroke-width="0.5" stroke-miterlimit="10"/>
<path d="M12.7443 95.7013H-14.9102V123.345H12.7443V95.7013Z" stroke="white" stroke-width="0.5" stroke-miterlimit="10"/>
<path d="M40.3986 95.7013H12.7441V123.345H40.3986V95.7013Z" stroke="white" stroke-width="0.5" stroke-miterlimit="10"/>
<path d="M68.1164 95.7013H40.4619V123.345H68.1164V95.7013Z" stroke="white" stroke-width="0.5" stroke-miterlimit="10"/>
<path d="M95.7707 95.7013H68.1162V123.345H95.7707V95.7013Z" stroke="white" stroke-width="0.5" stroke-miterlimit="10"/>
<path d="M123.425 95.7013H95.7705V123.345H123.425V95.7013Z" stroke="white" stroke-width="0.5" stroke-miterlimit="10"/>
<path d="M151.143 95.7013H123.488V123.345H151.143V95.7013Z" stroke="white" stroke-width="0.5" stroke-miterlimit="10"/>
<path d="M178.797 95.7013H151.143V123.345H178.797V95.7013Z" stroke="white" stroke-width="0.5" stroke-miterlimit="10"/>
<path d="M206.515 95.7013H178.86V123.345H206.515V95.7013Z" stroke="white" stroke-width="0.5" stroke-miterlimit="10"/>
<path d="M234.169 95.7013H206.515V123.345H234.169V95.7013Z" stroke="white" stroke-width="0.5" stroke-miterlimit="10"/>
<path d="M261.824 95.7013H234.169V123.345H261.824V95.7013Z" stroke="white" stroke-width="0.5" stroke-miterlimit="10"/>
<path d="M289.541 95.7013H261.887V123.345H289.541V95.7013Z" stroke="white" stroke-width="0.5" stroke-miterlimit="10"/>
<path d="M317.196 95.7013H289.542V123.345H317.196V95.7013Z" stroke="white" stroke-width="0.5" stroke-miterlimit="10"/>
<path d="M344.913 95.7013H317.259V123.345H344.913V95.7013Z" stroke="white" stroke-width="0.5" stroke-miterlimit="10"/>
<path d="M372.568 95.7013H344.914V123.345H372.568V95.7013Z" stroke="white" stroke-width="0.5" stroke-miterlimit="10"/>
<path d="M400.285 95.7013H372.631V123.345H400.285V95.7013Z" stroke="white" stroke-width="0.5" stroke-miterlimit="10"/>
<path d="M427.94 95.7013H400.286V123.345H427.94V95.7013Z" stroke="white" stroke-width="0.5" stroke-miterlimit="10"/>
<path d="M455.595 95.7013H427.94V123.345H455.595V95.7013Z" stroke="white" stroke-width="0.5" stroke-miterlimit="10"/>
<path d="M12.7443 123.408H-14.9102V151.052H12.7443V123.408Z" stroke="white" stroke-width="0.5" stroke-miterlimit="10"/>
<path d="M40.3986 123.408H12.7441V151.052H40.3986V123.408Z" stroke="white" stroke-width="0.5" stroke-miterlimit="10"/>
<path d="M68.1164 123.408H40.4619V151.052H68.1164V123.408Z" stroke="white" stroke-width="0.5" stroke-miterlimit="10"/>
<path d="M95.7707 123.408H68.1162V151.052H95.7707V123.408Z" stroke="white" stroke-width="0.5" stroke-miterlimit="10"/>
<path d="M123.425 123.408H95.7705V151.052H123.425V123.408Z" stroke="white" stroke-width="0.5" stroke-miterlimit="10"/>
<path d="M151.143 123.408H123.488V151.052H151.143V123.408Z" stroke="white" stroke-width="0.5" stroke-miterlimit="10"/>
<path d="M178.797 123.408H151.143V151.052H178.797V123.408Z" stroke="white" stroke-width="0.5" stroke-miterlimit="10"/>
<path d="M206.515 123.408H178.86V151.052H206.515V123.408Z" stroke="white" stroke-width="0.5" stroke-miterlimit="10"/>
<path d="M234.169 123.408H206.515V151.052H234.169V123.408Z" stroke="white" stroke-width="0.5" stroke-miterlimit="10"/>
<path d="M261.824 123.408H234.169V151.052H261.824V123.408Z" stroke="white" stroke-width="0.5" stroke-miterlimit="10"/>
<path d="M289.541 123.408H261.887V151.052H289.541V123.408Z" stroke="white" stroke-width="0.5" stroke-miterlimit="10"/>
<path d="M317.196 123.408H289.542V151.052H317.196V123.408Z" stroke="white" stroke-width="0.5" stroke-miterlimit="10"/>
<path d="M344.913 123.408H317.259V151.052H344.913V123.408Z" stroke="white" stroke-width="0.5" stroke-miterlimit="10"/>
<path d="M372.568 123.408H344.914V151.052H372.568V123.408Z" stroke="white" stroke-width="0.5" stroke-miterlimit="10"/>
<path d="M400.285 123.408H372.631V151.052H400.285V123.408Z" stroke="white" stroke-width="0.5" stroke-miterlimit="10"/>
<path d="M427.94 123.408H400.286V151.052H427.94V123.408Z" stroke="white" stroke-width="0.5" stroke-miterlimit="10"/>
<path d="M455.595 123.408H427.94V151.052H455.595V123.408Z" stroke="white" stroke-width="0.5" stroke-miterlimit="10"/>
<path d="M12.7443 151.052H-14.9102V178.696H12.7443V151.052Z" stroke="white" stroke-width="0.5" stroke-miterlimit="10"/>
<path d="M40.3986 151.052H12.7441V178.696H40.3986V151.052Z" stroke="white" stroke-width="0.5" stroke-miterlimit="10"/>
<path d="M68.1164 151.052H40.4619V178.696H68.1164V151.052Z" stroke="white" stroke-width="0.5" stroke-miterlimit="10"/>
<path d="M95.7707 151.052H68.1162V178.696H95.7707V151.052Z" stroke="white" stroke-width="0.5" stroke-miterlimit="10"/>
<path d="M123.425 151.052H95.7705V178.696H123.425V151.052Z" stroke="white" stroke-width="0.5" stroke-miterlimit="10"/>
<path d="M151.143 151.052H123.488V178.696H151.143V151.052Z" stroke="white" stroke-width="0.5" stroke-miterlimit="10"/>
<path d="M178.797 151.052H151.143V178.696H178.797V151.052Z" stroke="white" stroke-width="0.5" stroke-miterlimit="10"/>
<path d="M206.515 151.052H178.86V178.696H206.515V151.052Z" stroke="white" stroke-width="0.5" stroke-miterlimit="10"/>
<path d="M234.169 151.052H206.515V178.696H234.169V151.052Z" stroke="white" stroke-width="0.5" stroke-miterlimit="10"/>
<path d="M261.824 151.052H234.169V178.696H261.824V151.052Z" stroke="white" stroke-width="0.5" stroke-miterlimit="10"/>
<path d="M289.541 151.052H261.887V178.696H289.541V151.052Z" stroke="white" stroke-width="0.5" stroke-miterlimit="10"/>
<path d="M317.196 151.052H289.542V178.696H317.196V151.052Z" stroke="white" stroke-width="0.5" stroke-miterlimit="10"/>
<path d="M344.913 151.052H317.259V178.696H344.913V151.052Z" stroke="white" stroke-width="0.5" stroke-miterlimit="10"/>
<path d="M372.568 151.052H344.914V178.696H372.568V151.052Z" stroke="white" stroke-width="0.5" stroke-miterlimit="10"/>
<path d="M400.285 151.052H372.631V178.696H400.285V151.052Z" stroke="white" stroke-width="0.5" stroke-miterlimit="10"/>
<path d="M427.94 151.052H400.286V178.696H427.94V151.052Z" stroke="white" stroke-width="0.5" stroke-miterlimit="10"/>
<path d="M455.595 151.052H427.94V178.696H455.595V151.052Z" stroke="white" stroke-width="0.5" stroke-miterlimit="10"/>
<path d="M12.7443 178.696H-14.9102V206.339H12.7443V178.696Z" stroke="white" stroke-width="0.5" stroke-miterlimit="10"/>
<path d="M40.3986 178.696H12.7441V206.339H40.3986V178.696Z" stroke="white" stroke-width="0.5" stroke-miterlimit="10"/>
<path d="M68.1164 178.696H40.4619V206.339H68.1164V178.696Z" stroke="white" stroke-width="0.5" stroke-miterlimit="10"/>
<path d="M95.7707 178.696H68.1162V206.339H95.7707V178.696Z" stroke="white" stroke-width="0.5" stroke-miterlimit="10"/>
<path d="M123.425 178.696H95.7705V206.339H123.425V178.696Z" stroke="white" stroke-width="0.5" stroke-miterlimit="10"/>
<path d="M151.143 178.696H123.488V206.339H151.143V178.696Z" stroke="white" stroke-width="0.5" stroke-miterlimit="10"/>
<path d="M178.797 178.696H151.143V206.339H178.797V178.696Z" stroke="white" stroke-width="0.5" stroke-miterlimit="10"/>
<path d="M206.515 178.696H178.86V206.339H206.515V178.696Z" stroke="white" stroke-width="0.5" stroke-miterlimit="10"/>
<path d="M234.169 178.696H206.515V206.339H234.169V178.696Z" stroke="white" stroke-width="0.5" stroke-miterlimit="10"/>
<path d="M261.824 178.696H234.169V206.339H261.824V178.696Z" stroke="white" stroke-width="0.5" stroke-miterlimit="10"/>
<path d="M289.541 178.696H261.887V206.339H289.541V178.696Z" stroke="white" stroke-width="0.5" stroke-miterlimit="10"/>
<path d="M317.196 178.696H289.542V206.339H317.196V178.696Z" stroke="white" stroke-width="0.5" stroke-miterlimit="10"/>
<path d="M344.913 178.696H317.259V206.339H344.913V178.696Z" stroke="white" stroke-width="0.5" stroke-miterlimit="10"/>
<path d="M372.568 178.696H344.914V206.339H372.568V178.696Z" stroke="white" stroke-width="0.5" stroke-miterlimit="10"/>
<path d="M400.285 178.696H372.631V206.339H400.285V178.696Z" stroke="white" stroke-width="0.5" stroke-miterlimit="10"/>
<path d="M427.94 178.696H400.286V206.339H427.94V178.696Z" stroke="white" stroke-width="0.5" stroke-miterlimit="10"/>
<path d="M455.595 178.696H427.94V206.339H455.595V178.696Z" stroke="white" stroke-width="0.5" stroke-miterlimit="10"/>
<path d="M12.7443 206.403H-14.9102V234.046H12.7443V206.403Z" stroke="white" stroke-width="0.5" stroke-miterlimit="10"/>
<path d="M40.3986 206.403H12.7441V234.046H40.3986V206.403Z" stroke="white" stroke-width="0.5" stroke-miterlimit="10"/>
<path d="M68.1164 206.403H40.4619V234.046H68.1164V206.403Z" stroke="white" stroke-width="0.5" stroke-miterlimit="10"/>
<path d="M95.7707 206.403H68.1162V234.046H95.7707V206.403Z" stroke="white" stroke-width="0.5" stroke-miterlimit="10"/>
<path d="M123.425 206.403H95.7705V234.046H123.425V206.403Z" stroke="white" stroke-width="0.5" stroke-miterlimit="10"/>
<path d="M151.143 206.403H123.488V234.046H151.143V206.403Z" stroke="white" stroke-width="0.5" stroke-miterlimit="10"/>
<path d="M178.797 206.403H151.143V234.046H178.797V206.403Z" stroke="white" stroke-width="0.5" stroke-miterlimit="10"/>
<path d="M206.515 206.403H178.86V234.046H206.515V206.403Z" stroke="white" stroke-width="0.5" stroke-miterlimit="10"/>
<path d="M234.169 206.403H206.515V234.046H234.169V206.403Z" stroke="white" stroke-width="0.5" stroke-miterlimit="10"/>
<path d="M261.824 206.403H234.169V234.046H261.824V206.403Z" stroke="white" stroke-width="0.5" stroke-miterlimit="10"/>
<path d="M289.541 206.403H261.887V234.046H289.541V206.403Z" stroke="white" stroke-width="0.5" stroke-miterlimit="10"/>
<path d="M317.196 206.403H289.542V234.046H317.196V206.403Z" stroke="white" stroke-width="0.5" stroke-miterlimit="10"/>
<path d="M344.913 206.403H317.259V234.046H344.913V206.403Z" stroke="white" stroke-width="0.5" stroke-miterlimit="10"/>
<path d="M372.568 206.403H344.914V234.046H372.568V206.403Z" stroke="white" stroke-width="0.5" stroke-miterlimit="10"/>
<path d="M400.285 206.403H372.631V234.046H400.285V206.403Z" stroke="white" stroke-width="0.5" stroke-miterlimit="10"/>
<path d="M427.94 206.403H400.286V234.046H427.94V206.403Z" stroke="white" stroke-width="0.5" stroke-miterlimit="10"/>
<path d="M455.595 206.403H427.94V234.046H455.595V206.403Z" stroke="white" stroke-width="0.5" stroke-miterlimit="10"/>
<path d="M12.7443 234.046H-14.9102V261.69H12.7443V234.046Z" stroke="white" stroke-width="0.5" stroke-miterlimit="10"/>
<path d="M40.3986 234.046H12.7441V261.69H40.3986V234.046Z" stroke="white" stroke-width="0.5" stroke-miterlimit="10"/>
<path d="M68.1164 234.046H40.4619V261.69H68.1164V234.046Z" stroke="white" stroke-width="0.5" stroke-miterlimit="10"/>
<path d="M95.7707 234.046H68.1162V261.69H95.7707V234.046Z" stroke="white" stroke-width="0.5" stroke-miterlimit="10"/>
<path d="M123.425 234.046H95.7705V261.69H123.425V234.046Z" stroke="white" stroke-width="0.5" stroke-miterlimit="10"/>
<path d="M151.143 234.046H123.488V261.69H151.143V234.046Z" stroke="white" stroke-width="0.5" stroke-miterlimit="10"/>
<path d="M178.797 234.046H151.143V261.69H178.797V234.046Z" stroke="white" stroke-width="0.5" stroke-miterlimit="10"/>
<path d="M206.515 234.046H178.86V261.69H206.515V234.046Z" stroke="white" stroke-width="0.5" stroke-miterlimit="10"/>
<path d="M234.169 234.046H206.515V261.69H234.169V234.046Z" stroke="white" stroke-width="0.5" stroke-miterlimit="10"/>
<path d="M261.824 234.046H234.169V261.69H261.824V234.046Z" stroke="white" stroke-width="0.5" stroke-miterlimit="10"/>
<path d="M289.541 234.046H261.887V261.69H289.541V234.046Z" stroke="white" stroke-width="0.5" stroke-miterlimit="10"/>
<path d="M317.196 234.046H289.542V261.69H317.196V234.046Z" stroke="white" stroke-width="0.5" stroke-miterlimit="10"/>
<path d="M344.913 234.046H317.259V261.69H344.913V234.046Z" stroke="white" stroke-width="0.5" stroke-miterlimit="10"/>
<path d="M372.568 234.046H344.914V261.69H372.568V234.046Z" stroke="white" stroke-width="0.5" stroke-miterlimit="10"/>
<path d="M400.285 234.046H372.631V261.69H400.285V234.046Z" stroke="white" stroke-width="0.5" stroke-miterlimit="10"/>
<path d="M427.94 234.046H400.286V261.69H427.94V234.046Z" stroke="white" stroke-width="0.5" stroke-miterlimit="10"/>
<path d="M455.595 234.046H427.94V261.69H455.595V234.046Z" stroke="white" stroke-width="0.5" stroke-miterlimit="10"/>
<path d="M12.7443 261.753H-14.9102V289.397H12.7443V261.753Z" stroke="white" stroke-width="0.5" stroke-miterlimit="10"/>
<path d="M40.3986 261.753H12.7441V289.397H40.3986V261.753Z" stroke="white" stroke-width="0.5" stroke-miterlimit="10"/>
<path d="M68.1164 261.753H40.4619V289.397H68.1164V261.753Z" stroke="white" stroke-width="0.5" stroke-miterlimit="10"/>
<path d="M95.7707 261.753H68.1162V289.397H95.7707V261.753Z" stroke="white" stroke-width="0.5" stroke-miterlimit="10"/>
<path d="M123.425 261.753H95.7705V289.397H123.425V261.753Z" stroke="white" stroke-width="0.5" stroke-miterlimit="10"/>
<path d="M151.143 261.753H123.488V289.397H151.143V261.753Z" stroke="white" stroke-width="0.5" stroke-miterlimit="10"/>
<path d="M178.797 261.753H151.143V289.397H178.797V261.753Z" stroke="white" stroke-width="0.5" stroke-miterlimit="10"/>
<path d="M206.515 261.753H178.86V289.397H206.515V261.753Z" stroke="white" stroke-width="0.5" stroke-miterlimit="10"/>
<path d="M234.169 261.753H206.515V289.397H234.169V261.753Z" stroke="white" stroke-width="0.5" stroke-miterlimit="10"/>
<path d="M261.824 261.753H234.169V289.397H261.824V261.753Z" stroke="white" stroke-width="0.5" stroke-miterlimit="10"/>
<path d="M289.541 261.753H261.887V289.397H289.541V261.753Z" stroke="white" stroke-width="0.5" stroke-miterlimit="10"/>
<path d="M317.196 261.753H289.542V289.397H317.196V261.753Z" stroke="white" stroke-width="0.5" stroke-miterlimit="10"/>
<path d="M344.913 261.753H317.259V289.397H344.913V261.753Z" stroke="white" stroke-width="0.5" stroke-miterlimit="10"/>
<path d="M372.568 261.753H344.914V289.397H372.568V261.753Z" stroke="white" stroke-width="0.5" stroke-miterlimit="10"/>
<path d="M400.285 261.753H372.631V289.397H400.285V261.753Z" stroke="white" stroke-width="0.5" stroke-miterlimit="10"/>
<path d="M427.94 261.753H400.286V289.397H427.94V261.753Z" stroke="white" stroke-width="0.5" stroke-miterlimit="10"/>
<path d="M455.595 261.753H427.94V289.397H455.595V261.753Z" stroke="white" stroke-width="0.5" stroke-miterlimit="10"/>
<path d="M12.7443 289.397H-14.9102V317.041H12.7443V289.397Z" stroke="white" stroke-width="0.5" stroke-miterlimit="10"/>
<path d="M40.3986 289.397H12.7441V317.041H40.3986V289.397Z" stroke="white" stroke-width="0.5" stroke-miterlimit="10"/>
<path d="M68.1164 289.397H40.4619V317.041H68.1164V289.397Z" stroke="white" stroke-width="0.5" stroke-miterlimit="10"/>
<path d="M95.7707 289.397H68.1162V317.041H95.7707V289.397Z" stroke="white" stroke-width="0.5" stroke-miterlimit="10"/>
<path d="M123.425 289.397H95.7705V317.041H123.425V289.397Z" stroke="white" stroke-width="0.5" stroke-miterlimit="10"/>
<path d="M151.143 289.397H123.488V317.041H151.143V289.397Z" stroke="white" stroke-width="0.5" stroke-miterlimit="10"/>
<path d="M178.797 289.397H151.143V317.041H178.797V289.397Z" stroke="white" stroke-width="0.5" stroke-miterlimit="10"/>
<path d="M206.515 289.397H178.86V317.041H206.515V289.397Z" stroke="white" stroke-width="0.5" stroke-miterlimit="10"/>
<path d="M234.169 289.397H206.515V317.041H234.169V289.397Z" stroke="white" stroke-width="0.5" stroke-miterlimit="10"/>
<path d="M261.824 289.397H234.169V317.041H261.824V289.397Z" stroke="white" stroke-width="0.5" stroke-miterlimit="10"/>
<path d="M289.541 289.397H261.887V317.041H289.541V289.397Z" stroke="white" stroke-width="0.5" stroke-miterlimit="10"/>
<path d="M317.196 289.397H289.542V317.041H317.196V289.397Z" stroke="white" stroke-width="0.5" stroke-miterlimit="10"/>
<path d="M344.913 289.397H317.259V317.041H344.913V289.397Z" stroke="white" stroke-width="0.5" stroke-miterlimit="10"/>
<path d="M372.568 289.397H344.914V317.041H372.568V289.397Z" stroke="white" stroke-width="0.5" stroke-miterlimit="10"/>
<path d="M400.285 289.397H372.631V317.041H400.285V289.397Z" stroke="white" stroke-width="0.5" stroke-miterlimit="10"/>
<path d="M427.94 289.397H400.286V317.041H427.94V289.397Z" stroke="white" stroke-width="0.5" stroke-miterlimit="10"/>
<path d="M455.595 289.397H427.94V317.041H455.595V289.397Z" stroke="white" stroke-width="0.5" stroke-miterlimit="10"/>
<path d="M12.7443 317.041H-14.9102V344.684H12.7443V317.041Z" stroke="white" stroke-width="0.5" stroke-miterlimit="10"/>
<path d="M40.3986 317.041H12.7441V344.684H40.3986V317.041Z" stroke="white" stroke-width="0.5" stroke-miterlimit="10"/>
<path d="M68.1164 317.041H40.4619V344.684H68.1164V317.041Z" stroke="white" stroke-width="0.5" stroke-miterlimit="10"/>
<path d="M95.7707 317.041H68.1162V344.684H95.7707V317.041Z" stroke="white" stroke-width="0.5" stroke-miterlimit="10"/>
<path d="M123.425 317.041H95.7705V344.684H123.425V317.041Z" stroke="white" stroke-width="0.5" stroke-miterlimit="10"/>
<path d="M151.143 317.041H123.488V344.684H151.143V317.041Z" stroke="white" stroke-width="0.5" stroke-miterlimit="10"/>
<path d="M178.797 317.041H151.143V344.684H178.797V317.041Z" stroke="white" stroke-width="0.5" stroke-miterlimit="10"/>
<path d="M206.515 317.041H178.86V344.684H206.515V317.041Z" stroke="white" stroke-width="0.5" stroke-miterlimit="10"/>
<path d="M234.169 317.041H206.515V344.684H234.169V317.041Z" stroke="white" stroke-width="0.5" stroke-miterlimit="10"/>
<path d="M261.824 317.041H234.169V344.684H261.824V317.041Z" stroke="white" stroke-width="0.5" stroke-miterlimit="10"/>
<path d="M289.541 317.041H261.887V344.684H289.541V317.041Z" stroke="white" stroke-width="0.5" stroke-miterlimit="10"/>
<path d="M317.196 317.041H289.542V344.684H317.196V317.041Z" stroke="white" stroke-width="0.5" stroke-miterlimit="10"/>
<path d="M344.913 317.041H317.259V344.684H344.913V317.041Z" stroke="white" stroke-width="0.5" stroke-miterlimit="10"/>
<path d="M372.568 317.041H344.914V344.684H372.568V317.041Z" stroke="white" stroke-width="0.5" stroke-miterlimit="10"/>
<path d="M400.285 317.041H372.631V344.684H400.285V317.041Z" stroke="white" stroke-width="0.5" stroke-miterlimit="10"/>
<path d="M427.94 317.041H400.286V344.684H427.94V317.041Z" stroke="white" stroke-width="0.5" stroke-miterlimit="10"/>
<path d="M455.595 317.041H427.94V344.684H455.595V317.041Z" stroke="white" stroke-width="0.5" stroke-miterlimit="10"/>
</svg>
