<svg width="27" height="27" viewBox="0 0 27 27" fill="none" xmlns="http://www.w3.org/2000/svg">
<path d="M21.8627 26.4353C16.1544 26.4353 10.4461 26.4353 4.73776 26.4353C4.73776 25.5704 4.73776 24.7055 4.73776 23.8406C4.73776 23.6676 4.73776 23.5811 4.56478 23.4081C3.09446 21.2459 1.62414 18.9972 0.153811 16.8349C0.153811 16.6619 0.0673218 16.5754 0.0673218 16.4025C0.0673218 13.0294 0.0673218 9.74276 0.0673218 6.45616C0.0673218 5.59126 0.0673218 4.72636 0.0673218 3.86147C0.0673218 2.65061 1.1052 1.61274 2.40254 1.61274C3.69989 1.61274 4.73776 2.65061 4.73776 3.94796C4.73776 6.19669 4.73776 8.53191 4.73776 10.7806C4.73776 11.0401 4.73776 11.0401 4.99723 10.9536C5.77564 10.7806 6.55405 10.9536 7.15947 11.559C9.14874 13.4618 11.0515 15.4511 12.9543 17.3539C13.0408 17.4403 13.1273 17.6998 13.3002 17.6998C13.3867 17.6998 13.5597 17.4403 13.6462 17.3539C15.549 15.4511 17.5382 13.4618 19.441 11.559C20.0464 10.9536 20.7383 10.7806 21.5168 10.9536C21.7762 11.0401 21.8627 10.9536 21.8627 10.6941C21.8627 8.44542 21.8627 6.1102 21.8627 3.86147C21.8627 2.7371 22.6411 1.78572 23.7655 1.61274C24.8034 1.43976 25.9277 1.95869 26.3602 2.99657C26.4467 3.16955 26.5332 3.42902 26.5332 3.602C26.5332 7.92648 26.5332 12.3375 26.5332 16.6619L26.4467 16.7484C24.9763 18.9972 23.4195 21.2459 21.9492 23.4946C21.8627 23.5811 21.8627 23.7541 21.8627 23.8406C21.8627 24.7055 21.8627 25.5704 21.8627 26.4353ZM24.8899 10.0022C24.8899 8.01297 24.8899 6.02371 24.8899 4.03445C24.8899 3.68849 24.8034 3.42902 24.5439 3.25604C24.2844 3.08306 24.025 3.08306 23.7655 3.25604C23.506 3.42902 23.4195 3.68849 23.4195 4.03445C23.4195 7.06158 23.4195 10.0887 23.4195 13.1159C23.4195 13.8943 23.1601 14.4997 22.6411 15.0186C22.2087 15.4511 21.7762 15.8835 21.3438 16.316C19.9599 17.6998 18.5761 19.0836 17.1923 20.554C17.0193 20.7269 16.9328 20.7269 16.8463 20.554C16.5868 20.2945 16.4139 20.035 16.1544 19.8621C15.9814 19.6891 15.9814 19.6026 16.1544 19.5161C17.7112 17.9593 19.268 16.4025 20.9113 14.7592C21.1708 14.4997 21.5168 14.1537 21.7762 13.8943C21.9492 13.7213 22.0357 13.4618 22.0357 13.1159C21.8627 12.5104 21.1708 12.3375 20.7383 12.7699C20.0464 13.4618 19.3545 14.1537 18.6626 14.8457C17.4517 16.0565 16.2409 17.2674 15.03 18.4782C14.5976 18.9107 14.3381 19.4296 14.2516 20.035C14.2516 21.5918 14.2516 23.1487 14.2516 24.792C14.2516 24.8785 14.2516 24.9649 14.4246 24.9649C16.4139 24.9649 18.4031 24.9649 20.3059 24.9649C20.4789 24.9649 20.4789 24.8785 20.4789 24.792C20.4789 24.3595 20.4789 23.9271 20.4789 23.4946C20.4789 23.3216 20.4789 23.1487 20.6519 22.9757C22.1222 20.8134 23.5925 18.6512 24.9763 16.4025C25.0628 16.2295 25.1493 16.143 25.1493 15.8835C24.8899 13.8943 24.8899 11.9915 24.8899 10.0022ZM1.62414 9.91574C1.62414 11.905 1.62414 13.8943 1.62414 15.8835C1.62414 16.0565 1.62414 16.143 1.79711 16.316C3.00797 18.1323 4.21883 19.9485 5.42968 21.8513C5.68915 22.2838 6.1216 22.6297 6.20809 23.1487C6.38107 23.5811 6.20809 24.1 6.20809 24.619C6.20809 24.619 6.20809 24.619 6.20809 24.7055C6.20809 24.8785 6.29458 24.9649 6.46756 24.9649C8.37033 24.9649 10.3596 24.9649 12.2624 24.9649C12.5218 24.9649 12.5218 24.8785 12.5218 24.7055C12.5218 23.2351 12.5218 21.8513 12.5218 20.381C12.5218 19.6026 12.2624 18.9107 11.6569 18.3917C10.1866 16.9214 8.6298 15.3646 7.15947 13.8943C6.81352 13.5483 6.38107 13.1159 5.94862 12.7699C5.60266 12.5104 5.17021 12.5104 4.91074 12.7699C4.56478 13.0294 4.56478 13.5483 4.91074 13.8943C4.99723 13.8943 5.08372 13.8943 5.08372 13.9808C6.9 15.797 8.71629 17.6133 10.5326 19.4296C10.7056 19.6026 10.7056 19.6891 10.5326 19.8621C10.2731 20.1215 10.0136 20.2945 9.84065 20.554C9.66767 20.7269 9.66767 20.7269 9.49469 20.554C7.67841 18.7377 5.77564 16.8349 3.95936 15.0186C3.44042 14.4997 3.18095 13.8943 3.18095 13.2023C3.18095 11.8185 3.18095 10.4347 3.18095 9.05085C3.18095 7.40754 3.18095 5.67775 3.18095 4.03445C3.18095 3.68849 3.00797 3.42902 2.7485 3.25604C2.22956 2.99657 1.62414 3.34253 1.62414 3.94796C1.62414 5.93722 1.62414 7.92648 1.62414 9.91574Z" fill="#236561"/>
<path d="M13.3003 13.9808C10.6191 13.9808 8.71635 11.2996 9.66773 8.7914C9.75422 8.61842 9.75422 8.53193 9.66773 8.35896C9.32177 7.49406 9.32177 6.62916 9.66773 5.67778C9.75422 5.5048 9.75422 5.41831 9.66773 5.24533C8.88933 3.08309 10.1002 0.747865 12.2624 0.142438C14.4247 -0.46299 16.6734 0.920845 17.1058 3.16958C17.2788 3.86149 17.1923 4.55341 16.9329 5.24533C16.8464 5.41831 16.8464 5.5048 16.9329 5.67778C17.2788 6.54267 17.2788 7.49406 16.9329 8.35896C16.8464 8.53193 16.8464 8.61842 16.9329 8.7914C17.7978 11.2996 15.9815 13.9808 13.3003 13.9808ZM15.6355 10.0887C15.6355 8.7914 14.5976 7.75353 13.3003 7.75353C12.003 7.75353 10.9651 8.7914 10.9651 10.0887C10.9651 11.3861 12.003 12.424 13.3003 12.424C14.5112 12.424 15.6355 11.3861 15.6355 10.0887ZM15.6355 3.86149C15.549 2.9966 15.2031 2.30468 14.4247 1.87223C13.5598 1.43978 12.7814 1.43978 12.003 1.95872C11.3975 2.39117 10.9651 3.25607 11.0516 3.775C12.5219 2.91011 14.0787 2.91011 15.6355 3.86149ZM10.9651 6.97512C12.5219 5.93724 14.0787 6.02373 15.549 6.97512C15.6355 5.76427 14.5112 4.72639 13.2138 4.72639C12.003 4.72639 10.8786 5.76427 10.9651 6.97512Z" fill="#D89036"/>
</svg>
