<svg width="28" height="28" viewBox="0 0 28 28" fill="none" xmlns="http://www.w3.org/2000/svg">
<path d="M27.3 21.0201C27.3 21.4562 27.3 21.9796 27.3 22.4157C27.3 22.5901 27.2128 22.6773 27.2128 22.8518C26.6895 25.2939 24.4217 27.3 21.9796 27.3C14.9147 27.3 7.93706 27.3 0.872204 27.3C0.348882 27.3 0 26.9511 0 26.4278C0 22.154 0 17.8802 0 13.6936C0 13.1703 0.348882 12.8214 0.872204 12.8214C3.48882 12.8214 6.19265 12.8214 8.80927 12.8214C9.07093 12.8214 9.33259 12.9086 9.50703 13.1703C9.59425 13.3447 9.68147 13.3447 9.76869 13.1703C10.6409 12.0364 11.6003 10.9026 12.5597 9.76869C12.7342 9.59425 12.7342 9.50703 12.4725 9.50703C12.1236 9.41981 11.862 9.07093 11.862 8.72204C11.862 8.37316 12.1236 8.02428 12.4725 7.93706C12.7342 7.84984 12.7342 7.84984 12.5597 7.6754C11.5131 6.45431 10.3792 5.23323 9.33259 4.01214C9.07093 3.66326 8.80927 3.4016 8.63482 2.9655C8.19872 1.91885 8.63482 0.872204 9.59425 0.348882C9.85591 0.174441 10.2048 0.0872205 10.4665 0C10.8153 0 11.2514 0 11.6003 0C12.2981 0.174441 12.9086 0.348882 13.5192 0.784984C13.6064 0.872204 13.6936 0.872204 13.7808 0.784984C14.3042 0.348882 15.0019 0.0872205 15.6997 0C16.0486 0 16.3974 0 16.7463 0C17.4441 0.0872205 18.0546 0.348882 18.6652 0.784984C18.7524 0.872204 18.8396 0.872204 18.9268 0.784984C19.5374 0.348882 20.1479 0.174441 20.8457 0C21.1946 0 21.6307 0 21.9796 0C22.3284 0.0872205 22.7645 0.174441 23.0262 0.436102C23.724 0.872204 24.0728 1.56997 23.8984 2.35495C23.8112 2.9655 23.5495 3.4016 23.2006 3.8377C22.0668 5.14601 20.9329 6.36709 19.799 7.6754C19.7118 7.76262 19.6246 7.76262 19.7118 7.84984C19.9735 7.84984 20.2351 8.02428 20.4096 8.19872C20.7585 8.63482 20.584 9.24537 19.9735 9.50703C19.799 9.59425 19.799 9.68147 19.8863 9.76869L19.9735 9.85591C21.9796 12.2109 23.9856 14.5658 25.6428 17.1824C26.3406 18.4035 27.1256 19.6246 27.3 21.0201ZM17.4441 25.6428C18.7524 25.6428 19.9735 25.6428 21.2818 25.6428C21.5435 25.6428 21.8051 25.6428 22.0668 25.6428C24.6834 25.3811 26.3406 22.6773 25.3812 20.2351C25.1195 19.5374 24.6834 18.8396 24.3345 18.2291C22.3284 15.1764 20.0607 12.4725 17.6185 9.76869C17.4441 9.68147 17.3569 9.59425 17.1824 9.59425C16.5719 9.59425 15.8741 9.59425 15.2636 9.59425C15.0891 9.59425 15.0019 9.68147 14.8275 9.76869C13.0831 11.6875 11.3387 13.6936 9.76869 15.8741C9.68147 16.0486 9.59425 16.1358 9.59425 16.3102C9.59425 17.0952 9.59425 17.793 9.59425 18.578C9.59425 19.1885 9.59425 19.1885 10.2048 19.2757H10.292C13.0831 19.799 14.4786 22.939 12.9958 25.3812C12.9958 25.4684 12.8214 25.5556 12.9086 25.6428C12.9958 25.73 13.0831 25.6428 13.1703 25.6428C14.653 25.6428 16.0486 25.6428 17.4441 25.6428ZM16.0486 7.93706C16.4847 7.93706 16.8335 7.93706 17.0952 7.93706C17.2696 7.93706 17.3569 7.84984 17.5313 7.76262C19.0141 6.10543 20.4968 4.44824 21.8923 2.79105C21.9796 2.61661 22.154 2.52939 22.154 2.35495C22.2412 2.09329 22.154 2.00607 21.9796 1.83163C21.8923 1.74441 21.8051 1.65719 21.6307 1.65719C21.1073 1.56997 20.6712 1.65719 20.2351 1.91885C19.799 2.09329 19.4502 2.44217 19.1013 2.70383C18.6652 3.05272 18.0546 2.9655 17.793 2.44217C17.6185 2.09329 17.3569 1.91885 17.008 1.74441C16.5719 1.56997 16.1358 1.56997 15.6125 1.65719C15.0891 1.74441 14.7403 1.91885 14.4786 2.44217C14.3914 2.61661 14.2169 2.70383 14.0425 2.79105C13.6936 2.9655 13.3447 2.79105 13.0831 2.61661C12.647 2.18051 12.2109 1.91885 11.6003 1.74441C11.1642 1.65719 10.7281 1.56997 10.292 1.74441C10.0304 1.83163 9.94313 2.00607 10.0304 2.35495C10.1176 2.52939 10.2048 2.70383 10.3792 2.87827C11.6003 4.2738 12.9086 5.66933 14.1297 7.15208C14.8275 7.76262 15.3508 8.1115 16.0486 7.93706ZM9.68147 20.9329C8.37316 20.9329 7.32652 21.9796 7.32652 23.2879C7.32652 24.5962 8.37316 25.6428 9.68147 25.6428C10.9898 25.6428 12.0364 24.5962 12.0364 23.2879C12.0364 21.9796 10.9898 20.9329 9.68147 20.9329ZM4.79712 19.1885C5.75655 19.1885 6.71597 19.1885 7.58818 19.1885C7.93706 19.1885 7.93706 19.1885 7.93706 18.8396C7.93706 18.578 7.93706 18.2291 7.93706 17.9674C7.93706 17.7058 7.84984 17.6185 7.6754 17.6185C7.58818 17.6185 7.50096 17.6185 7.32652 17.6185C5.58211 17.6185 3.75048 17.6185 2.00607 17.6185C1.56997 17.6185 1.56997 17.6185 1.56997 18.0546C1.56997 18.3163 1.56997 18.578 1.56997 18.8396C1.56997 19.1885 1.56997 19.1885 1.91885 19.1885C2.9655 19.1885 3.92492 19.1885 4.79712 19.1885ZM4.79712 16.0486C5.75655 16.0486 6.71597 16.0486 7.6754 16.0486C7.93706 16.0486 8.02428 15.9613 8.02428 15.6997C8.02428 15.438 8.02428 15.0891 8.02428 14.8275C8.02428 14.653 7.93706 14.5658 7.76262 14.5658C5.84377 14.5658 3.92492 14.5658 2.00607 14.5658C1.83163 14.5658 1.74441 14.653 1.74441 14.8275C1.74441 15.0891 1.74441 15.438 1.74441 15.6997C1.74441 15.9613 1.83163 16.0486 2.09329 16.0486C2.87827 16.0486 3.8377 16.0486 4.79712 16.0486ZM4.01214 25.6428C4.7099 25.6428 5.40767 25.6428 6.10543 25.6428C6.27987 25.6428 6.36709 25.6428 6.19265 25.3812C5.93099 25.0323 5.75655 24.5962 5.66933 24.1601C5.66933 23.9856 5.58211 23.9856 5.40767 23.9856C4.18658 23.9856 3.05272 23.9856 1.83163 23.9856C1.65719 23.9856 1.56997 24.0728 1.56997 24.2473C1.56997 24.5962 1.56997 24.945 1.56997 25.2939C1.56997 25.5556 1.65719 25.5556 1.83163 25.5556C2.61661 25.6428 3.31438 25.6428 4.01214 25.6428ZM4.01214 20.8457C3.31438 20.8457 2.61661 20.8457 1.91885 20.8457C1.65719 20.8457 1.56997 20.9329 1.56997 21.1946C1.56997 21.5434 1.56997 21.8051 1.56997 22.154C1.56997 22.3284 1.65719 22.4157 1.83163 22.4157C3.05272 22.4157 4.18658 22.4157 5.40767 22.4157C5.58211 22.4157 5.66933 22.3284 5.66933 22.154C5.75655 21.8051 5.93099 21.369 6.19265 21.1073C6.36709 20.9329 6.36709 20.8457 6.10543 20.8457C5.40767 20.8457 4.7099 20.8457 4.01214 20.8457Z" fill="#236561"/>
<path d="M15.5252 18.4036C15.8741 18.4036 16.1358 18.4036 16.4847 18.4036C16.7463 18.4036 16.9208 18.2291 16.9208 18.0547C16.9208 17.793 16.7463 17.7058 16.4847 17.7058C16.223 17.7058 16.0486 17.7058 15.7869 17.7058C14.8275 17.7058 14.0425 17.0081 13.7808 16.1358C13.6064 15.1764 14.0425 14.217 15.0019 13.8681C15.1764 13.7809 15.3508 13.6937 15.438 13.432C15.5252 13.0831 15.8741 12.9087 16.223 12.9087C16.5719 12.9087 16.9208 13.0831 17.008 13.432C17.0952 13.6937 17.1824 13.7809 17.4441 13.6937C17.6185 13.6937 17.7058 13.6937 17.8802 13.6937C18.3163 13.6937 18.6652 14.0426 18.6652 14.5659C18.6652 15.002 18.3163 15.3509 17.8802 15.3509C17.2697 15.3509 16.7463 15.3509 16.1358 15.3509C16.0486 15.3509 15.9613 15.3509 15.8741 15.3509C15.6125 15.3509 15.438 15.5253 15.438 15.787C15.438 15.9614 15.6125 16.1358 15.8741 16.1358C16.223 16.1358 16.6591 16.1358 17.008 16.2231C17.8802 16.3975 18.4907 17.1825 18.578 18.0547C18.6652 18.9269 18.1419 19.7991 17.2697 20.0608C17.0952 20.148 16.9208 20.2352 16.9208 20.4096C16.8335 20.7585 16.4847 20.933 16.1358 20.933C15.7869 20.933 15.438 20.7585 15.3508 20.4096C15.3508 20.0608 15.2636 20.0608 15.0891 20.0608C14.9147 20.0608 14.7403 20.0608 14.653 20.0608C14.2169 20.0608 13.8681 19.7119 13.8681 19.2758C13.8681 18.8397 14.2169 18.4908 14.653 18.4908C14.9147 18.4036 15.2636 18.4036 15.5252 18.4036Z" fill="#D89036"/>
</svg>
