<svg width="27" height="30" viewBox="0 0 27 30" fill="none" xmlns="http://www.w3.org/2000/svg">
<path d="M13.1035 29.3C9.73357 29.3 6.3636 29.3 3.08725 29.3C1.49587 29.3 0.278939 28.2703 -0.00189209 26.7725C-0.00189209 26.5853 -0.00189209 26.3981 -0.00189209 26.2108C-0.00189209 24.5258 -0.00189209 22.8409 -0.00189209 21.1559C-0.00189209 19.4709 1.30865 18.0667 3.08725 18.0667C4.67862 18.0667 6.17638 18.0667 7.76776 18.0667C8.04859 18.0667 8.1422 17.9731 8.1422 17.6923C8.1422 17.2243 8.1422 16.6626 8.23581 16.1945C8.61025 14.884 9.82718 14.0415 11.1377 14.0415C12.5419 14.0415 13.8524 14.0415 15.2566 14.0415C16.9416 14.0415 18.2521 15.352 18.2521 17.037C18.2521 17.5987 18.2521 18.1604 18.2521 18.722C18.2521 19.0028 18.3457 19.0965 18.6265 19.0965C20.1243 19.0965 21.6221 19.0965 23.1198 19.0965C24.992 19.0965 26.209 20.407 26.3026 22.2792C26.3026 23.5897 26.3026 24.9003 26.3026 26.2108C26.3026 27.8958 24.992 29.2064 23.3071 29.2064C19.7499 29.3 16.4735 29.3 13.1035 29.3ZM10.0144 22.092C10.0144 23.6834 10.0144 25.2747 10.0144 26.7725C10.0144 27.2405 10.0144 27.2405 10.3888 27.2405C12.1674 27.2405 13.8524 27.2405 15.631 27.2405C15.9118 27.2405 16.0055 27.1469 16.0055 26.8661C16.0055 23.6834 16.0055 20.5942 16.0055 17.4115C16.0055 16.569 15.631 16.1945 14.7885 16.1945C13.5716 16.1945 12.4483 16.1945 11.2313 16.1945C10.3888 16.1945 10.0144 16.569 10.0144 17.4115C10.0144 19.0028 10.0144 20.5942 10.0144 22.092ZM7.95498 23.777C7.95498 22.7473 7.95498 21.7175 7.95498 20.5942C7.95498 20.3134 7.86137 20.2198 7.58054 20.2198C6.08277 20.2198 4.58501 20.2198 3.18086 20.2198C2.33836 20.2198 1.96392 20.5942 1.96392 21.4367C1.96392 22.9345 1.96392 24.5258 1.96392 26.0236C1.96392 26.8661 2.33836 27.2405 3.18086 27.2405C4.67862 27.2405 6.08277 27.2405 7.58054 27.2405C7.86137 27.2405 7.95498 27.1469 7.95498 26.8661C7.95498 25.8364 7.95498 24.8067 7.95498 23.777ZM18.1585 24.245C18.1585 25.0875 18.1585 26.0236 18.1585 26.8661C18.1585 27.1469 18.2521 27.2405 18.5329 27.2405C20.0307 27.2405 21.5285 27.2405 23.0262 27.2405C23.7751 27.2405 24.1495 26.8661 24.1495 26.0236C24.1495 24.8067 24.1495 23.5897 24.1495 22.3728C24.1495 21.6239 23.7751 21.1559 23.0262 21.1559C21.5285 21.1559 20.0307 21.1559 18.5329 21.1559C18.2521 21.1559 18.1585 21.2495 18.1585 21.5303C18.1585 22.4664 18.1585 23.4025 18.1585 24.245Z" fill="#236561"/>
<path d="M8.51668 9.54831C8.51668 9.08026 8.51668 8.61221 8.51668 8.14416C8.51668 7.95694 8.42307 7.76972 8.32945 7.67611C7.95501 7.20806 7.67418 6.83362 7.29974 6.36557C6.36364 5.14863 6.9253 3.55726 8.32945 3.08921C8.89112 2.90199 9.35917 2.71477 9.92083 2.62116C10.108 2.52755 10.2953 2.43394 10.3889 2.34033C10.6697 1.87227 10.9505 1.49783 11.325 1.02978C12.2611 -0.280761 13.9461 -0.280761 14.7886 1.02978C15.0694 1.49783 15.4438 1.96588 15.7247 2.34033C15.8183 2.52755 15.9119 2.62116 16.0991 2.62116C16.6608 2.80838 17.2224 2.90199 17.7841 3.08921C19.1882 3.55726 19.6563 5.14863 18.8138 6.36557C18.533 6.83362 18.1585 7.20806 17.7841 7.67611C17.6905 7.86333 17.5969 8.05055 17.5969 8.23777C17.5969 8.79943 17.6905 9.36109 17.6905 9.82914C17.6905 11.3269 16.2863 12.3566 14.8822 11.8886C14.4141 11.7013 13.8525 11.5141 13.3844 11.3269C13.1972 11.2333 13.01 11.2333 12.8227 11.3269C12.3547 11.5141 11.8866 11.6077 11.5122 11.795C9.92083 12.4502 8.42306 11.3269 8.51668 9.64192C8.42306 9.64192 8.42306 9.54831 8.51668 9.54831C8.42306 9.54831 8.42306 9.54831 8.51668 9.54831ZM10.5761 8.98665C10.5761 9.26748 10.5761 9.36109 10.5761 9.54831C10.5761 9.82914 10.6697 9.82914 10.8569 9.73553C11.4186 9.54831 11.9803 9.36109 12.6355 9.08026C12.9164 8.98665 13.1972 8.98665 13.5716 9.08026C14.1333 9.26748 14.7886 9.4547 15.3502 9.73553C15.5374 9.82914 15.6311 9.73553 15.6311 9.54831C15.6311 9.17387 15.6311 8.70582 15.6311 8.33138C15.5374 7.5825 15.6311 7.02084 16.1927 6.45918C16.5672 6.08473 16.7544 5.71029 17.1288 5.33585C17.316 5.14863 17.316 5.05502 17.0352 5.05502C16.4735 4.8678 15.9119 4.68058 15.2566 4.58697C14.8822 4.49336 14.6013 4.30614 14.4141 3.9317C14.1333 3.46365 13.7588 2.9956 13.3844 2.43394C13.2908 2.24672 13.1972 2.15311 13.01 2.43394C12.7291 2.90199 12.3547 3.37004 11.9803 3.9317C11.793 4.21253 11.5122 4.49336 11.1378 4.58697C10.3889 4.68058 9.82722 4.8678 9.26556 4.96141C8.98473 5.05502 8.98473 5.14863 9.17195 5.33585C9.54639 5.8039 9.92083 6.27195 10.2953 6.74001C10.5761 7.02084 10.6697 7.39528 10.6697 7.86333C10.5761 8.23777 10.5761 8.61221 10.5761 8.98665Z" fill="#D89036"/>
<path d="M21.0604 2.62109C20.4987 2.62109 20.1243 2.34026 19.9371 1.8722C19.8435 1.49776 19.9371 1.02971 20.3115 0.748882C20.686 0.468051 21.0604 0.280831 21.4348 0.0936102C21.8093 -0.0936102 22.2773 0 22.6518 0.374441C22.9326 0.748882 23.0262 1.21693 22.7454 1.59137C22.1837 2.15304 21.6221 2.43387 21.0604 2.62109Z" fill="#236561"/>
<path d="M4.30412 0C4.49134 0 4.67856 0 4.77217 0.0936102C5.05301 0.280831 5.33384 0.374441 5.61467 0.561661C6.08272 0.842492 6.26994 1.49776 5.98911 1.96581C5.80189 2.52748 5.24023 2.7147 4.67856 2.43387C4.39773 2.34026 4.02329 2.15304 3.74246 1.8722C3.27441 1.59137 3.1808 1.12332 3.27441 0.748882C3.46163 0.280831 3.83607 0 4.30412 0Z" fill="#236561"/>
<path d="M4.30408 12.1694C3.83603 12.1694 3.46159 11.8886 3.27437 11.5141C3.08715 11.1397 3.18076 10.6716 3.5552 10.3908C3.92964 10.11 4.39769 9.82915 4.77213 9.64193C5.24018 9.45471 5.70823 9.64193 5.98906 10.0164C6.26989 10.3908 6.26989 10.9525 5.89545 11.2333C5.52101 11.6077 4.95935 11.8886 4.4913 12.0758C4.4913 12.1694 4.39769 12.1694 4.30408 12.1694Z" fill="#236561"/>
<path d="M20.9668 9.64185C21.0604 9.64185 21.2476 9.64185 21.4348 9.73546C21.8093 9.92268 22.0901 10.1099 22.3709 10.2971C22.839 10.5779 23.0262 11.2332 22.7454 11.7013C22.4646 12.1693 21.9029 12.3565 21.3412 12.0757C20.9668 11.8885 20.686 11.7013 20.4051 11.5141C20.0307 11.2332 19.8435 10.7652 20.0307 10.3907C20.0307 9.92268 20.4051 9.64185 20.9668 9.64185Z" fill="#236561"/>
<path d="M3.46178 7.11436C3.27456 7.11436 3.08734 7.11436 2.99373 7.11436C2.43207 7.11436 1.96402 6.64631 1.96402 6.08464C1.96402 5.52298 2.33846 5.05493 2.99373 5.05493C3.36817 5.05493 3.649 5.05493 4.02344 5.05493C4.58511 5.05493 5.05316 5.52298 5.05316 6.08464C5.05316 6.64631 4.58511 7.11436 4.02344 7.11436C3.83622 7.11436 3.649 7.11436 3.46178 7.11436Z" fill="#236561"/>
<path d="M22.5582 7.11436C22.3709 7.11436 22.2773 7.11436 22.0901 7.11436C21.5284 7.11436 21.0604 6.64631 21.0604 6.08464C21.0604 5.52298 21.5284 5.05493 22.0901 5.05493C22.4645 5.05493 22.7454 5.05493 23.1198 5.05493C23.6815 5.05493 24.0559 5.52298 24.1495 6.08464C24.1495 6.64631 23.7751 7.11436 23.1198 7.11436C23.0262 7.11436 22.7454 7.11436 22.5582 7.11436Z" fill="#236561"/>
</svg>
