<svg width="28" height="29" viewBox="0 0 28 29" fill="none" xmlns="http://www.w3.org/2000/svg">
<path d="M27.6291 25.9603C26.2384 25.9603 24.9404 25.9603 23.5497 25.9603C23.1788 25.9603 23.1788 25.9603 23.2715 25.5894C24.0132 23.7351 24.106 21.8808 23.7351 19.9338C22.9007 15.8543 19.3775 12.5166 15.298 12.053C15.0199 12.053 14.9272 11.9603 14.9272 11.6821C14.9272 10.6623 14.9272 9.54967 14.9272 8.5298C14.9272 8.06623 14.9272 8.06623 15.3907 8.06623C16.596 8.06623 17.7086 8.15894 18.9139 7.97351C22.3444 7.50993 25.0331 4.54305 25.0331 1.11258C25.0331 0.370861 24.5695 0 23.9205 0C22.6225 0 21.3245 0 19.9338 0C16.9669 0.0927152 14.8344 1.48344 13.5364 4.17219C13.351 4.54305 13.351 4.54305 13.1656 4.2649C12.053 3.0596 10.5695 2.22517 8.90066 2.03974C7.23179 1.94702 5.56291 2.03974 3.89404 2.03974C3.43046 2.03974 3.0596 2.50331 3.0596 2.96689C3.0596 3.24503 3.0596 3.52318 3.0596 3.80132C3.52318 7.60265 6.76821 10.1987 10.106 10.106C10.9404 10.106 11.8675 10.106 12.702 10.106C12.8874 10.106 12.9801 10.1987 12.9801 10.3841C12.9801 10.8477 12.9801 11.404 12.9801 11.8675C12.9801 12.053 12.8874 12.1457 12.702 12.1457C12.4238 12.1457 12.1457 12.2384 11.8675 12.3311C5.84106 13.5364 2.4106 19.9338 4.63576 25.5894C4.82119 25.9603 4.82119 25.9603 4.45033 25.9603C3.0596 25.9603 1.66887 25.9603 0.370861 25.9603C0.0927152 25.9603 0 26.053 0 26.3311C0 26.7947 0 27.1656 0 27.6291C0 28.0927 0 28.0927 0.463576 28.0927C5.00662 28.0927 9.45695 28.0927 14 28.0927C17.4305 28.0927 20.9536 28.0927 24.3841 28.0927C25.4967 28.0927 26.6093 28.0927 27.6291 28.0927C27.9073 28.0927 28 28 28 27.7219C28 27.2583 28 26.8874 28 26.4238C28 26.053 27.9073 25.9603 27.6291 25.9603ZM15.2053 5.65563C15.8543 3.80132 17.0596 2.59603 19.0066 2.13245C19.8411 1.94702 20.5828 2.03974 21.4172 2.03974C21.7881 2.03974 22.1589 2.03974 22.5298 2.03974C22.8079 2.03974 22.8079 2.13245 22.8079 2.31788C22.3444 3.80132 21.4172 4.82119 20.0265 5.4702C19.0993 5.84106 18.1722 5.93377 17.245 5.93377C17.0596 5.93377 16.9669 5.93377 16.7815 5.93377C16.3179 5.93377 15.947 5.93377 15.4834 5.93377C15.2053 6.02649 15.1126 5.93377 15.2053 5.65563ZM12.5166 7.97351C12.053 7.97351 11.6821 7.97351 11.2185 7.97351C10.4768 7.97351 9.7351 8.06623 8.99338 7.8808C7.13907 7.41722 5.84106 6.30464 5.28477 4.45033C5.09934 4.07947 5.19205 4.07947 5.56291 4.07947C6.58278 4.07947 7.60265 4.07947 8.62252 4.07947C10.5695 4.2649 12.4238 5.84106 12.8874 7.69536C12.8874 7.97351 12.7947 7.97351 12.5166 7.97351ZM21.0464 25.6821C20.9536 25.8676 20.7682 25.9603 20.5828 25.9603H11.5894H7.50993C7.23179 25.9603 7.13907 25.8676 7.04636 25.6821C6.49007 24.6623 6.21192 23.6424 6.1192 22.4371C5.93377 20.3974 6.49007 18.6358 7.78808 17.0596C9.64238 14.7417 12.053 13.7219 15.0199 14.0927C18.4503 14.4636 21.0464 16.8742 21.7881 20.1192C22.1589 22.0662 21.9735 23.9205 21.0464 25.6821Z" fill="#236561"/>
<path d="M16.9669 23.6424C16.6887 22.3444 15.4834 21.3245 14.1854 21.3245C13.5364 21.3245 13.2583 21.0463 13.0728 20.5828C12.9801 20.1192 13.2583 19.5629 13.7218 19.4702C14.2781 19.2848 14.8344 19.5629 14.9271 20.0265C15.0199 20.3046 15.1126 20.3973 15.3907 20.3973C15.8543 20.3973 16.2252 20.3973 16.6887 20.3973C17.0596 20.3973 17.0596 20.3046 17.0596 19.9338C16.8742 18.9139 16.3179 18.0795 15.3907 17.6159C15.1126 17.5232 15.1126 17.3377 15.1126 17.1523C15.1126 16.3179 15.1126 16.3179 14.2781 16.3179C14 16.3179 13.6291 16.3179 13.351 16.3179C13.1656 16.3179 13.0728 16.4106 13.0728 16.596C13.1656 17.245 12.9801 17.5232 12.3311 17.894C11.1258 18.543 10.755 19.841 11.1258 21.1391C11.4967 22.3444 12.6093 23.1788 13.9073 23.2715C14.649 23.2715 15.1126 23.8278 14.9271 24.4768C14.9271 24.5695 14.8344 24.6622 14.8344 24.755H16.9669C17.0596 24.3841 17.0596 24.0132 16.9669 23.6424Z" fill="#D89036"/>
</svg>
