<svg width="18" height="19" viewBox="0 0 18 19" fill="none" xmlns="http://www.w3.org/2000/svg">
<path d="M17.1401 6.00397C17.1401 6.6757 17.1401 7.34743 17.1401 8.01916C17.0931 10.3702 16.2932 12.4334 14.8346 14.2087C13.9406 15.3122 12.8114 16.1759 11.541 16.8476C10.9764 17.1355 10.4118 17.4713 9.84717 17.8072C9.2355 18.1431 8.67088 18.1431 8.10626 17.8072C7.21228 17.2794 6.27125 16.7996 5.42433 16.2238C2.9306 14.5925 1.47201 12.2894 0.954439 9.31463C0.907388 8.78685 0.860336 8.25906 0.860336 7.73128C0.860336 6.4358 0.860336 5.14033 0.860336 3.84485C0.860336 3.07716 1.33085 2.50139 2.03662 2.35745C4.15394 1.82967 6.2242 1.20592 8.20036 0.198327C8.71793 -0.0415757 9.18844 -0.0895563 9.70601 0.198327C11.5881 1.15794 13.6113 1.78169 15.6345 2.30947C16.058 2.40543 16.4344 2.50139 16.7637 2.83726C16.999 3.12514 17.1401 3.46101 17.1401 3.84485C17.1401 4.51658 17.1401 5.28427 17.1401 6.00397ZM2.13073 5.90801C2.13073 6.00397 2.13073 6.09994 2.13073 6.1959C2.13073 7.15551 2.08367 8.11512 2.22483 9.07473C2.64829 11.5697 3.87163 13.5369 5.89484 14.9763C6.83587 15.6001 7.871 16.1279 8.81203 16.7036C8.95319 16.7516 9.04729 16.7516 9.14139 16.6557C9.89422 16.2238 10.6941 15.792 11.4469 15.3602C12.9055 14.4965 14.0347 13.345 14.8346 11.8096C15.5404 10.4182 15.8227 8.97877 15.8227 7.44339C15.8227 6.33984 15.8227 5.28427 15.8227 4.18071C15.8227 3.70091 15.8227 3.70091 15.3522 3.55697C13.2819 2.9812 11.2117 2.35745 9.2355 1.34986C9.04729 1.2539 8.90614 1.2539 8.76498 1.34986C8.52972 1.4938 8.29447 1.58976 8.01216 1.68572C6.2242 2.50139 4.34214 3.12514 2.46009 3.55697C2.17778 3.65293 2.13073 3.70091 2.13073 3.98879C2.13073 4.61254 2.13073 5.23629 2.13073 5.90801Z" fill="#236561"/>
<path d="M6.45952 7.53945C6.69478 7.53945 6.88299 7.63541 7.02414 7.77935C7.3535 8.11521 7.68286 8.45108 8.01222 8.78694C8.15338 8.93088 8.20043 8.93088 8.34158 8.78694C9.23556 7.87531 10.0825 7.01166 10.9765 6.10003C11.1647 5.90811 11.3999 5.81215 11.6822 5.86013C12.1528 6.00407 12.2939 6.48387 12.0586 6.86772C12.0116 6.9157 11.9645 7.01166 11.9175 7.05964C10.8824 8.11521 9.84723 9.17079 8.76505 10.2743C8.57684 10.4663 8.34158 10.6102 8.05927 10.5142C7.96517 10.4663 7.87107 10.4663 7.77697 10.3703C7.21235 9.79453 6.64773 9.21877 6.08311 8.643C5.89491 8.45108 5.84786 8.21118 5.98901 7.92329C6.03606 7.63541 6.27132 7.53945 6.45952 7.53945Z" fill="#236561"/>
</svg>
