<svg width="19" height="21" viewBox="0 0 19 21" fill="none" xmlns="http://www.w3.org/2000/svg">
<path d="M18.9175 8.7049C18.9175 7.33534 18.3697 6.23968 17.3131 5.37882C15.9436 4.32229 14.4175 3.14838 12.5392 1.70055C10.974 0.487511 8.82183 0.487511 7.25661 1.70055C5.84792 2.79621 4.16531 4.04838 2.52183 5.37882C1.46531 6.23968 0.91748 7.33534 0.91748 8.7049C0.91748 9.80056 0.91748 11.2875 0.91748 12.7745V15.9832C0.91748 16.2962 0.91748 16.531 0.995741 16.7266C1.38705 18.8006 3.14792 20.2093 5.26096 20.2093C5.84792 20.2093 6.39574 20.2093 6.9827 20.2093C7.49139 20.2093 7.96096 20.2093 8.46965 20.2093H14.574C14.7697 20.2093 15.0044 20.2093 15.2001 20.1701C17.3131 19.8962 18.9175 18.0962 18.9175 15.944C18.9175 14.0658 18.9175 10.6614 18.9175 8.7049ZM17.3131 15.944C17.3131 17.3527 16.2566 18.4875 14.8479 18.644C14.6914 18.644 14.4957 18.6832 14.3001 18.6832H8.58705C7.49139 18.6832 6.39574 18.6832 5.30009 18.6832C4.71313 18.6832 4.24357 18.5658 3.81313 18.2919C2.95226 17.744 2.4827 16.9614 2.4827 15.9832C2.4827 13.9875 2.4827 10.544 2.4827 8.78316C2.4827 7.88316 2.874 7.13968 3.57835 6.59186C5.02618 5.45708 6.474 4.36142 7.92183 3.22664L8.15661 3.03099C8.66531 2.63968 9.29139 2.4049 9.87835 2.4049C10.4653 2.4049 11.0523 2.60055 11.561 2.99186C13.0479 4.12664 14.6131 5.33968 16.2957 6.67012C16.961 7.17882 17.274 7.88316 17.274 8.78316C17.3131 10.7788 17.3131 14.1049 17.3131 15.944Z" fill="#236561"/>
<path d="M12.6953 14.4025C11.7714 14.4025 10.8475 14.4025 9.92355 14.4025H8.37137C7.78007 14.4025 7.22572 14.4025 6.63442 14.4025C6.26485 14.4025 5.9692 14.6242 5.89529 14.9568C5.85833 15.1786 5.89529 15.4372 6.04311 15.5851C6.19094 15.7699 6.41268 15.8807 6.63442 15.8807C7.0779 15.8807 7.48442 15.8807 7.9279 15.8807C8.22355 15.8807 8.5192 15.8807 8.7779 15.8807H9.6279H10.4409C11.1801 15.8807 11.9192 15.8807 12.6583 15.8807C12.8801 15.8807 13.0649 15.8068 13.2127 15.659C13.3605 15.5112 13.4344 15.3264 13.3975 15.1046C13.4344 14.6981 13.1018 14.4025 12.6953 14.4025Z" fill="#236561"/>
</svg>
