<svg width="35" height="35" viewBox="0 0 35 35" fill="none" xmlns="http://www.w3.org/2000/svg">
<rect x="0.638731" y="0.638722" width="33.7225" height="33.7225" rx="12.1359" fill="#FFF4DE" stroke="#FFF4DE" stroke-width="1.27746"/>
<path d="M10.2405 16.8178C10.2405 16.6953 10.3741 16.5729 10.3741 16.5729L15.317 12.0416C15.7178 11.6742 16.2521 11.6742 16.5193 12.0416C16.7865 12.409 16.9201 12.8989 16.5193 13.1438L13.1795 16.2055H23.3324C23.8668 16.3279 24.2676 16.5729 24.2676 17.0627C24.2676 17.5526 23.8668 17.92 23.3324 17.92H13.0459L16.5193 20.9817C16.9201 21.3491 16.9201 21.8389 16.5193 22.0839C16.3857 22.2063 16.1185 22.3288 15.8513 22.3288C15.5842 22.3288 15.4506 22.2063 15.1834 22.0839L10.2405 17.5526C10.1069 17.4301 10.1069 17.4301 10.1069 17.3077C10.1069 17.1852 10.1069 16.9403 10.2405 16.8178Z" fill="#D89036"/>
</svg>
