<svg width="16" height="13" viewBox="0 0 16 13" fill="none" xmlns="http://www.w3.org/2000/svg">
<path d="M15.2932 5.86792C15.1791 5.86792 15.0651 5.86792 14.951 5.86792H1.15087H1.09384C1.03681 5.86792 1.03681 5.86792 0.979789 5.86792C0.409535 5.86792 0.0673828 6.21007 0.0673828 6.7233C0.0673828 7.23653 0.409535 7.57868 0.922764 7.63571C0.979789 7.63571 1.03681 7.63571 1.15087 7.63571H9.36252C11.1873 7.63571 13.0121 7.63571 14.837 7.63571C14.951 7.63571 15.0651 7.63571 15.2361 7.63571C15.6923 7.57868 15.9775 7.23653 15.9775 6.78033C16.0345 6.2671 15.7494 5.92495 15.2932 5.86792Z" fill="#D89036"/>
<path d="M7.08159 2.56051C7.59482 2.56051 8.05102 2.56051 8.56425 2.56051H10.6742C12.1568 2.56051 13.5825 2.56051 15.0651 2.56051C15.5213 2.56051 15.8065 2.38944 15.9205 2.04728C16.0346 1.76216 16.0346 1.42 15.8635 1.1919C15.7494 0.906775 15.4643 0.792725 15.1222 0.792725C14.0957 0.792725 13.0693 0.792725 12.0428 0.792725H9.98988C9.64773 0.792725 9.24855 0.792725 8.9064 0.792725C8.27912 0.792725 7.65184 0.792725 7.08159 0.792725C6.62538 0.792725 6.34026 1.02083 6.22621 1.36298C6.11216 1.70513 6.16918 1.99026 6.34026 2.21836C6.45431 2.44646 6.73943 2.56051 7.08159 2.56051Z" fill="#D89036"/>
<path d="M9.0203 10.8865C7.76574 10.8865 6.51118 10.8865 5.25663 10.8865H3.83099H3.03263C2.74751 10.8865 2.51941 10.8865 2.23428 10.8865C1.8351 10.8865 1.3789 10.8865 0.979719 10.8865C0.523516 10.8865 0.238389 11.1146 0.124338 11.4567C0.0102876 11.7419 0.067313 12.084 0.238389 12.3121C0.409465 12.5402 0.694592 12.6543 0.979719 12.6543C2.00618 12.6543 3.03263 12.6543 4.05909 12.6543H4.9715H6.11201C7.08144 12.6543 8.05087 12.6543 9.0203 12.6543C9.41948 12.6543 9.70461 12.4262 9.81866 12.084C9.93271 11.7419 9.87568 11.4567 9.70461 11.2286C9.64758 11.0005 9.36245 10.8865 9.0203 10.8865Z" fill="#D89036"/>
</svg>
