<svg width="31" height="29" viewBox="0 0 31 29" fill="none" xmlns="http://www.w3.org/2000/svg">
<path d="M29.387 22.7518C28.9105 22.1405 28.3659 21.6651 27.6852 21.3255C26.1194 20.5105 24.4176 20.3068 22.6476 20.5785C21.15 20.8501 19.8565 21.3934 18.8354 22.6838C18.7673 22.7518 18.6992 22.8197 18.5631 22.7518C16.7251 22.4122 14.887 22.0047 13.049 21.6651C12.9129 21.6651 12.8448 21.5972 12.8448 21.4614C12.8448 20.5105 12.5725 19.7635 11.9598 19.0843C11.8237 18.9485 11.8917 18.8806 12.0279 18.7447C13.1171 17.9977 14.2063 17.2506 15.2955 16.4356C15.4316 16.3677 15.4997 16.3677 15.7039 16.3677C17.8823 17.3185 20.0608 17.2506 22.1711 16.3677C23.1922 15.8923 24.0772 15.281 24.5537 14.1944C25.2345 12.7682 24.826 11.1382 23.4645 10.0515C22.7157 9.44028 21.8988 9.03279 20.9457 8.82904V10.5948C21.3542 10.7307 21.7626 10.9344 22.103 11.1382C23.4645 12.089 23.4645 13.4473 22.103 14.3981C20.9457 15.2131 19.6523 15.4169 18.2908 15.281C17.3377 15.2131 16.4528 14.9415 15.7039 14.466C14.2744 13.5152 14.2744 12.089 15.7039 11.1382C16.0443 10.9344 16.4528 10.7307 16.7931 10.5948V8.82904C15.8401 9.03279 15.0232 9.44028 14.2744 10.1194C12.6406 11.4778 12.4363 13.5152 13.7978 15.1452C13.934 15.281 13.934 15.3489 13.7298 15.4169C12.6406 16.1639 11.5514 16.9789 10.4622 17.726C10.326 17.7939 10.2579 17.7939 10.1218 17.7939C8.35183 17.0468 6.58188 16.911 4.74385 17.3864C3.58657 17.726 2.49737 18.2014 1.74854 19.1522C1.34009 19.6276 1.06779 20.2389 0.931641 20.8501C0.931641 21.1218 0.931641 21.4614 0.931641 21.733C1.20394 23.2272 2.22507 24.1101 3.5185 24.7892C3.85887 24.993 4.26732 25.1288 4.67577 25.1967C6.7861 25.74 8.82835 25.6042 10.8025 24.5176C11.3471 24.2459 11.7556 23.8384 12.096 23.363C12.164 23.2272 12.2321 23.2272 12.3683 23.2272C14.2063 23.5667 15.9762 23.9742 17.8143 24.3138C17.9504 24.3138 18.0866 24.3138 18.0185 24.5176C17.9504 25.9438 18.6992 26.8946 19.7885 27.6417C20.7415 28.3208 21.8988 28.6604 23.0561 28.7963C23.1241 28.7963 23.2603 28.7963 23.3284 28.8642C23.8049 28.8642 24.2133 28.8642 24.6899 28.8642C25.0302 28.7963 25.3706 28.7283 25.6429 28.6604C26.9363 28.3888 28.0936 27.9133 28.9786 26.9625C30.2039 25.808 30.3401 24.1101 29.387 22.7518ZM10.1218 22.9555C9.16873 23.6347 8.07953 23.8384 6.92225 23.8384C5.76497 23.8384 4.67577 23.5667 3.72272 22.9555C2.36122 22.0047 2.36122 20.5785 3.7908 19.6955C4.94807 18.9485 6.17343 18.7447 7.53493 18.8126C8.48798 18.8806 9.37296 19.1522 10.1218 19.6276C11.5514 20.6464 11.5514 22.0047 10.1218 22.9555ZM27.6171 26.1475C26.8683 26.8267 25.9152 27.0984 24.9622 27.2342C24.6899 27.3021 24.4176 27.3021 24.2133 27.3021C22.988 27.3021 21.8988 27.0304 20.9457 26.4192C19.5161 25.4684 19.5161 24.0422 20.9457 23.0913C22.103 22.3443 23.3284 22.1405 24.6899 22.2084C25.4387 22.2763 26.1875 22.4801 26.8683 22.8197C27.1406 22.9555 27.4129 23.1593 27.6852 23.363C28.5701 24.178 28.5701 25.2646 27.6171 26.1475Z" fill="#236561"/>
<path d="M26.596 0.271663C26.596 0 26.5279 0 26.3237 0C23.6687 0 21.0819 0 18.427 0C18.1547 0 18.0866 0.0679157 18.0866 0.339578V12.4286V12.7002C18.0866 12.8361 18.1547 12.904 18.2908 12.904C18.7673 12.904 19.1758 12.904 19.6523 12.904C19.8565 12.904 19.8565 12.8361 19.8565 12.7002V7.13115C19.8565 6.9274 19.9246 6.85949 20.1288 6.85949C22.2392 6.85949 24.2814 6.85949 26.3917 6.85949C26.596 6.85949 26.664 6.79157 26.664 6.58782C26.596 4.41452 26.596 2.37705 26.596 0.271663ZM24.6218 5.09368C23.8049 5.09368 23.0561 5.09368 22.2392 5.09368C21.4903 5.09368 20.7415 5.09368 19.9927 5.09368C19.7885 5.09368 19.7204 5.09368 19.7204 4.82201C19.7204 3.87119 19.7204 2.85246 19.7204 1.90164C19.7204 1.76581 19.7885 1.69789 19.9246 1.69789C21.4903 1.69789 23.0561 1.69789 24.6218 1.69789C24.826 1.69789 24.826 1.76581 24.826 1.90164C24.826 2.85246 24.826 3.87119 24.826 4.82201C24.8941 5.02576 24.826 5.09368 24.6218 5.09368Z" fill="#D89036"/>
</svg>
