<svg width="29" height="30" viewBox="0 0 29 30" fill="none" xmlns="http://www.w3.org/2000/svg">
<rect x="0.5" y="0.49999" width="27.8451" height="28.7465" rx="9.5" fill="white" stroke="white"/>
<path d="M14.4082 19.5119C15.0113 19.5119 15.6144 19.5119 16.2129 19.5119C16.5674 19.5119 16.7055 19.7237 16.5398 20.0413C16.0886 20.9161 15.352 21.3488 14.3851 21.3396C13.4229 21.3304 12.6955 20.8885 12.2627 20.0137C12.12 19.7237 12.2581 19.5119 12.5804 19.5119C13.1927 19.5119 13.8004 19.5119 14.4082 19.5119Z" fill="#236561"/>
<path d="M19.9557 16.1326C19.5045 15.5848 19.3296 14.954 19.2559 14.2635C19.1731 13.4486 19.1224 12.6245 18.9475 11.8234C18.5239 9.87597 16.9171 8.41193 14.9513 8.15412C14.7902 8.1311 14.629 8.1357 14.4725 8.11729C14.4449 8.11268 14.4265 8.11268 14.408 8.11729C14.3896 8.11268 14.3666 8.11268 14.3436 8.11268C14.1824 8.1311 14.0213 8.12649 13.8648 8.14951C11.8897 8.40733 10.2876 9.87597 9.864 11.8188C9.68906 12.6199 9.64302 13.444 9.55554 14.2589C9.48188 14.9494 9.30693 15.5848 8.85575 16.128C8.47363 16.5884 8.41839 17.1087 8.6762 17.6427C8.92942 18.1676 9.37139 18.4116 9.95608 18.407C11.4385 18.4024 12.921 18.407 14.3988 18.407H14.4034H14.408C15.8905 18.407 17.3729 18.4024 18.8508 18.407C19.4355 18.407 19.8774 18.1676 20.1307 17.6427C20.3931 17.1087 20.3378 16.5884 19.9557 16.1326Z" fill="#236561"/>
</svg>
