<svg width="18" height="13" viewBox="0 0 18 13" fill="none" xmlns="http://www.w3.org/2000/svg">
<path d="M17.7571 6.21739C17.7571 6.06667 17.5967 5.91594 17.5967 5.91594L11.6628 0.33913C11.1816 -0.113043 10.5401 -0.113043 10.2194 0.33913C9.89861 0.791304 9.73823 1.3942 10.2194 1.69565L14.2288 5.46377H2.04012C1.39861 5.61449 0.91748 5.91594 0.91748 6.51884C0.91748 7.12174 1.39861 7.57391 2.04012 7.57391H14.3892L10.2194 11.342C9.73823 11.7942 9.73823 12.3971 10.2194 12.6985C10.3797 12.8493 10.7005 13 11.0213 13C11.342 13 11.5024 12.8493 11.8231 12.6985L17.7571 7.12174C17.9175 6.97101 17.9175 6.97101 17.9175 6.82029C17.9175 6.66957 17.9175 6.36812 17.7571 6.21739Z" fill="#D89036"/>
</svg>
