<svg width="30" height="30" viewBox="0 0 30 30" fill="none" xmlns="http://www.w3.org/2000/svg">
<rect x="0.5" y="0.49999" width="29" height="29" rx="9.5" fill="white" stroke="white"/>
<path d="M19.9125 11.9762H10.2294C9.73278 11.9762 9.36035 11.598 9.36035 10.9677C9.36035 10.4634 9.73278 10.0852 10.2294 10.0852H19.9125C20.4091 10.0852 20.7815 10.4634 20.7815 10.9677C20.9056 11.598 20.4091 11.9762 19.9125 11.9762Z" fill="#236561"/>
<path d="M19.9125 16.1363H10.2294C9.73278 16.1363 9.36035 15.6321 9.36035 15.1278C9.36035 14.6236 9.73278 14.2454 10.2294 14.2454H19.9125C20.4091 14.2454 20.7815 14.6236 20.7815 15.1278C20.9056 15.6321 20.4091 16.1363 19.9125 16.1363Z" fill="#236561"/>
<path d="M15.9399 20.1704H10.2294C9.73278 20.1704 9.36035 19.7922 9.36035 19.288C9.36035 18.7837 9.73278 18.4055 10.2294 18.4055H15.9399C16.4365 18.4055 16.8089 18.7837 16.8089 19.288C16.9331 19.7922 16.4365 20.1704 15.9399 20.1704Z" fill="#236561"/>
</svg>
