<svg width="13" height="10" viewBox="0 0 13 10" fill="none" xmlns="http://www.w3.org/2000/svg">
<path d="M12.8774 4.78261C12.8774 4.66667 12.7547 4.55072 12.7547 4.55072L8.21698 0.26087C7.84906 -0.0869565 7.35849 -0.0869565 7.11321 0.26087C6.86792 0.608696 6.74528 1.07246 7.11321 1.30435L10.1792 4.2029H0.858491C0.367924 4.31884 0 4.55072 0 5.01449C0 5.47826 0.367924 5.82609 0.858491 5.82609H10.3019L7.11321 8.72464C6.74528 9.07246 6.74528 9.53623 7.11321 9.76812C7.23585 9.88406 7.48113 10 7.72642 10C7.9717 10 8.09434 9.88406 8.33962 9.76812L12.8774 5.47826C13 5.36232 13 5.36232 13 5.24638C13 5.13043 13 4.89855 12.8774 4.78261Z" fill="white"/>
</svg>
